<svg width="424" height="216" viewBox="0 0 424 216" fill="none" xmlns="http://www.w3.org/2000/svg">
<rect width="424" height="216" rx="8" fill="white"/>
<mask id="mask0_1069_7006" style="mask-type:alpha" maskUnits="userSpaceOnUse" x="0" y="0" width="424" height="216">
<rect width="424" height="216" rx="8" fill="#F3F3F3"/>
</mask>
<g mask="url(#mask0_1069_7006)">
<circle cx="28.1769" cy="102.795" r="144.971" fill="#8B2542"/>
</g>
<path d="M137.284 66.9393C137.222 66.9373 137.161 66.9478 137.103 66.9702C137.046 66.9926 136.994 67.0263 136.95 67.0694L114.115 89.5774L106 89.4508C105.889 89.4421 105.777 89.4746 105.688 89.5422L69.3004 117.29H56.8293C56.7073 117.29 56.5902 117.339 56.5039 117.425C56.4176 117.512 56.3691 117.629 56.3691 117.751C56.3691 117.873 56.4176 117.99 56.5039 118.077C56.5902 118.163 56.7073 118.212 56.8293 118.212H69.455C69.566 118.212 69.6734 118.172 69.7571 118.099L106.12 90.3722L114.295 90.4988C114.356 90.5001 114.416 90.4892 114.473 90.4669C114.529 90.4446 114.581 90.4112 114.625 90.3687L137.477 67.8607L145.743 67.6813C145.819 67.6797 145.893 67.6593 145.959 67.6219C146.026 67.5844 146.082 67.5311 146.122 67.4668L153.443 57.1307L154.866 58.0873L154.747 54.3981L151.297 55.6923L152.681 56.6207L145.493 66.7845L137.284 66.9393Z" fill="#CE5476"/>
<path fill-rule="evenodd" clip-rule="evenodd" d="M30.2838 171.675C39.038 177.59 48.9769 181.53 59.4101 183.223C69.8432 184.916 80.5204 184.321 90.6998 181.478C86.5433 177.864 81.5604 175.326 76.1901 174.087L31.0167 167.462C30.5891 168.066 30.3015 168.757 30.1747 169.486C30.0479 170.215 30.0852 170.963 30.2838 171.675Z" fill="#BBBBBB"/>
<path fill-rule="evenodd" clip-rule="evenodd" d="M30.8718 168.319C30.8718 173.534 46.5002 178.618 65.7741 179.673C85.048 180.727 100.686 177.357 100.686 172.142C100.686 166.928 85.0625 161.838 65.7886 160.784C46.5147 159.73 30.8718 163.1 30.8718 168.319Z" fill="#DBDBDB"/>
<path fill-rule="evenodd" clip-rule="evenodd" d="M89.6194 139.965V161.79C91.5675 162.811 93.5655 163.742 95.6132 164.583V139.965H89.6194Z" fill="white"/>
<path fill-rule="evenodd" clip-rule="evenodd" d="M77.54 141.12C77.54 142.016 78.2537 142.728 79.5557 142.931L106.53 147.163C107.648 147.278 108.777 147.133 109.829 146.739C110.881 146.345 111.827 145.712 112.592 144.89C113.556 143.715 113.272 142.233 113.277 140.87C113.038 140.902 112.814 141.004 112.632 141.162C112.45 141.321 112.319 141.529 112.254 141.761C111.94 141.611 111.605 141.509 111.261 141.457L84.2861 137.225C82.3384 137.035 80.3942 137.62 78.8758 138.852C78.6787 138.73 78.459 138.647 78.2297 138.61C78.0004 138.573 77.7659 138.582 77.54 138.636V141.12Z" fill="#C7C7C7"/>
<path fill-rule="evenodd" clip-rule="evenodd" d="M107.052 144.765C108.788 145.035 111.267 143.976 112.569 142.406C113.871 140.836 113.533 139.329 111.783 139.06L83.718 134.654C81.9869 134.384 79.5035 135.444 78.2063 137.013C76.9044 138.583 77.2419 140.09 78.9875 140.36L107.052 144.765Z" fill="#DBDBDB"/>
<path fill-rule="evenodd" clip-rule="evenodd" d="M15.4797 109.121C30.6565 142.748 38.2448 159.559 38.2448 159.556C40.2122 160.331 42.3209 160.683 44.4336 160.59C46.5464 160.497 48.6159 159.961 50.5074 159.017C65.1827 139.905 66.0442 117.041 53.0921 90.4252C35.9109 92.2837 26.0353 93.2755 20.0704 96.7278C14.9107 99.6985 12.2538 104.947 15.4797 109.121Z" fill="#C7C7C7"/>
<path fill-rule="evenodd" clip-rule="evenodd" d="M18.928 106.314L41.6931 156.749C43.6628 157.521 45.7732 157.87 47.8869 157.773C50.0006 157.676 52.0701 157.135 53.9605 156.186C68.6293 137.077 69.4892 114.215 56.5403 87.5988C24.5184 91.0334 11.981 97.2718 18.928 106.314Z" fill="#DBDBDB"/>
<path fill-rule="evenodd" clip-rule="evenodd" d="M104.814 175.869L100.817 165.686C100.114 163.506 98.6531 161.649 96.6991 160.451C94.745 159.253 92.4261 158.791 90.1613 159.151C87.8964 159.51 85.8349 160.666 84.349 162.41C82.8631 164.154 82.0508 166.371 82.0588 168.661C80.8533 172.657 80.1348 174.904 79.9033 175.402L86.4855 182.518C92.8691 181.143 99.0354 178.906 104.814 175.869Z" fill="#070924"/>
<path fill-rule="evenodd" clip-rule="evenodd" d="M79.9036 175.388L79.8308 175.31C79.8016 175.548 79.8259 175.572 79.9036 175.388Z" fill="#070924"/>
<path d="M85.5025 165.991L85.0515 166.231L92.8777 180.879L93.3287 180.639L85.5025 165.991Z" fill="#01020F"/>
<path fill-rule="evenodd" clip-rule="evenodd" d="M85.3868 124.09C85.3868 124.09 89.6206 126.103 96.926 129.136C100.952 123.7 101.97 115.886 98.8549 109.877C95.3251 107.181 89.8472 103.247 85.7918 101.427C83.7041 100.53 81.5173 99.8838 79.2772 99.5011C77.3483 99.1159 75.4195 98.9137 73.6932 98.6826C67.6656 102.108 58.5036 101.421 46.2073 96.6218L35.0779 99.3229C29.2174 107.489 24.2217 117.171 20.0908 128.371L34.832 132.194C39.4274 151.14 42.3255 163.11 44.3652 165.257C45.3875 169.807 47.326 171.613 49.7997 172.73C62.4047 178.421 77.4496 152.816 83.7183 139.421C83.6573 140.634 84.2134 135.524 85.3868 124.09Z" fill="#1E4C7A"/>
<path fill-rule="evenodd" clip-rule="evenodd" d="M73.7937 98.4947C73.0656 98.3214 72.2796 98.1336 71.5515 97.9459C69.9308 97.5675 68.3865 96.9162 66.9849 96.0199C64.0063 96.9394 60.8141 96.904 57.8567 95.9188C57.1125 95.6793 56.3872 95.3848 55.6868 95.0377L55.5518 94.9703C54.4712 94.4301 53.4594 93.7625 52.5379 92.9818C51.4851 93.9854 50.2425 94.7694 48.8828 95.2881C48.0017 95.6189 47.1404 95.9999 46.303 96.4292C48.2511 100.039 50.8966 103.226 54.0866 105.808C57.2765 108.39 60.9476 110.315 64.8873 111.471C67.3409 110.225 69.4421 108.384 70.9982 106.117C72.5543 103.85 73.5155 101.229 73.7937 98.4947Z" fill="white"/>
<path fill-rule="evenodd" clip-rule="evenodd" d="M48.8828 95.2929C50.3803 98.4816 52.5348 101.319 55.2053 103.62C57.8759 105.92 61.0026 107.632 64.381 108.644C66.3821 107.609 68.0887 106.085 69.3423 104.215C70.5959 102.344 71.3558 100.188 71.5515 97.9459C69.7126 96.4051 68.8125 95.9461 68.8511 96.5688C56.5419 85.7676 50.9435 82.6926 52.0558 87.3437C52.6505 91.0286 51.5928 93.6783 48.8828 95.2929Z" fill="#FF9C72"/>
<path fill-rule="evenodd" clip-rule="evenodd" d="M71.1611 100.19C71.3535 99.4539 71.4842 98.7034 71.5516 97.9459C70.9731 97.442 70.3591 96.9803 69.7144 96.5641C62.1502 94.1663 56.7816 91.4106 53.6086 88.297C57.8649 98.6874 63.7157 102.652 71.1611 100.19Z" fill="#EE875A"/>
<path fill-rule="evenodd" clip-rule="evenodd" d="M73.6009 75.687C73.3483 73.7569 72.635 71.9156 71.5209 70.3183C70.4068 68.7209 68.9245 67.4143 67.199 66.5085C65.4735 65.6026 63.5553 65.124 61.6059 65.113C59.6564 65.1021 57.7329 65.559 55.9973 66.4454C54.2616 67.3317 52.7648 68.6216 51.6327 70.2063C50.5006 71.7909 49.7665 73.6241 49.4922 75.5512C49.2178 77.4784 49.4113 79.4431 50.0564 81.28C50.7014 83.1169 51.779 84.7721 53.1986 86.1063C53.4204 90.0207 56.6175 94.4792 60.5282 96.6363C63.7734 98.4322 69.8493 99.0726 70.8233 94.3829C71.8553 92.067 73.4755 89.5055 73.8709 86.9874C74.1024 85.5092 73.76 84.6426 73.5767 83.4918C73.1524 80.8966 74.165 78.6914 73.6009 75.687Z" fill="#FF9C72"/>
<path fill-rule="evenodd" clip-rule="evenodd" d="M59.5925 87.0066C60.3239 87.1716 61.0831 87.1708 61.8141 87.0041C62.5451 86.8375 63.2294 86.5093 63.8166 86.0436C63.1878 86.1841 62.5351 86.1786 61.9087 86.0275C61.2824 85.8764 60.6992 85.5837 60.2039 85.1721C59.7087 84.7604 59.3148 84.2407 59.0524 83.6531C58.7901 83.0654 58.6664 82.4255 58.6908 81.7825L54.6932 81.3636C53.7342 82.0213 53.0484 83.0057 52.7644 84.1322L56.2122 84.3344C56.5409 85.003 57.0149 85.5898 57.5997 86.0521C58.1845 86.5144 58.8654 86.8405 59.5925 87.0066Z" fill="#EE875A"/>
<path fill-rule="evenodd" clip-rule="evenodd" d="M58.0635 72.6151C53.0421 74.0885 49.9174 75.5329 48.6894 76.9485C48.5656 78.9116 48.9456 80.8738 49.7937 82.6492C50.6478 82.5936 51.4987 82.7987 52.2333 83.2373C52.968 83.6759 53.5517 84.3272 53.9069 85.1048C53.9503 82.2159 56.1154 81.8018 55.8984 78.5903C55.7586 76.4429 54.9051 74.4785 58.0635 72.6151Z" fill="#1D1A19"/>
<path d="M69.4395 77.2084C70.0427 77.1057 70.659 77.1057 71.2622 77.2084C71.8678 77.3143 72.4503 77.5245 72.9837 77.8296C73.081 77.8825 73.1949 77.8963 73.302 77.8681C73.4084 77.8379 73.4985 77.7669 73.5527 77.6707C73.5801 77.6238 73.5976 77.572 73.6042 77.5181C73.6109 77.4643 73.6065 77.4098 73.5913 77.3577C73.5624 77.251 73.4933 77.1596 73.3984 77.1025C72.7801 76.7524 72.1067 76.5098 71.4069 76.3851C71.058 76.3256 70.7048 76.295 70.3509 76.2936C69.9968 76.297 69.6436 76.3292 69.2948 76.3899C69.1856 76.4088 69.0884 76.47 69.0242 76.5602C68.9601 76.6504 68.9343 76.7623 68.9525 76.8714C68.975 76.9796 69.0369 77.0756 69.1261 77.141C69.2181 77.2026 69.3302 77.2267 69.4395 77.2084Z" fill="#362319"/>
<path d="M58.8066 78.4025C58.8375 78.4476 58.8771 78.486 58.9229 78.5158C58.9688 78.5455 59.0201 78.5658 59.0739 78.5757C59.1277 78.5855 59.1829 78.5847 59.2363 78.5731C59.2897 78.5616 59.3404 78.5396 59.3853 78.5085C59.8062 78.2131 60.2552 77.9599 60.7258 77.7525C61.1905 77.5436 61.6752 77.3823 62.1725 77.2711C62.6726 77.1551 63.183 77.0889 63.6962 77.0736C64.2111 77.0569 64.7263 77.0908 65.2345 77.1748C65.3434 77.1895 65.4539 77.1619 65.5431 77.0977C65.6294 77.0313 65.6878 76.9352 65.707 76.8281C65.7226 76.7208 65.6948 76.6117 65.6299 76.5248C65.5652 76.4357 65.4684 76.3753 65.3599 76.3562C64.799 76.2643 64.2305 76.2272 63.6625 76.2455C62.5233 76.2817 61.4019 76.5367 60.3593 76.9966C59.8404 77.2285 59.3448 77.509 58.879 77.8344C58.7897 77.8983 58.7291 77.9946 58.7101 78.1026C58.6912 78.2107 58.7155 78.3218 58.7777 78.4122L58.8066 78.4025Z" fill="#362319"/>
<path fill-rule="evenodd" clip-rule="evenodd" d="M72.5686 81.8163C72.5417 81.6813 72.4632 81.5621 72.3498 81.4839C72.2364 81.4057 72.0969 81.3747 71.961 81.3974C71.8936 81.4097 71.8292 81.4352 71.7717 81.4723C71.7141 81.5095 71.6644 81.5576 71.6254 81.6139C71.5865 81.6703 71.559 81.7337 71.5446 81.8007C71.5302 81.8676 71.5291 81.9367 71.5415 82.004C71.5538 82.0714 71.5794 82.1356 71.6166 82.1931C71.6538 82.2506 71.702 82.3002 71.7584 82.3391C71.8148 82.378 71.8784 82.4054 71.9454 82.4198C72.0124 82.4342 72.0816 82.4353 72.1491 82.4229C72.2842 82.396 72.4036 82.3177 72.4819 82.2044C72.5602 82.0912 72.5913 81.952 72.5686 81.8163Z" fill="black"/>
<path fill-rule="evenodd" clip-rule="evenodd" d="M63.7052 81.8163C63.6843 81.7 63.6292 81.5926 63.5471 81.5076C63.465 81.4226 63.3595 81.3638 63.244 81.3387C63.1284 81.3136 63.008 81.3232 62.8979 81.3664C62.7878 81.4097 62.6931 81.4845 62.6256 81.5815C62.5581 81.6785 62.521 81.7933 62.5189 81.9114C62.5168 82.0295 62.5498 82.1455 62.6137 82.2449C62.6777 82.3442 62.7697 82.4224 62.8782 82.4695C62.9866 82.5166 63.1066 82.5306 63.223 82.5096C63.3784 82.4803 63.516 82.3912 63.6062 82.2615C63.6965 82.1318 63.732 81.9719 63.7052 81.8163Z" fill="black"/>
<path fill-rule="evenodd" clip-rule="evenodd" d="M73.2008 81.277C73.3593 81.2461 73.5052 81.169 73.62 81.0556C73.7348 80.9421 73.8135 80.7973 73.8462 80.6393C73.8789 80.4813 73.8641 80.3173 73.8037 80.1677C73.7433 80.0181 73.6399 79.8896 73.5067 79.7984C73.3734 79.7073 73.2161 79.6575 73.0546 79.6553C72.893 79.6531 72.7345 79.6986 72.5987 79.7861C72.463 79.8736 72.3562 79.9992 72.2917 80.1471C72.2273 80.295 72.208 80.4586 72.2364 80.6174C72.2548 80.7247 72.2947 80.8271 72.3535 80.9187C72.4124 81.0103 72.489 81.0892 72.579 81.1507C72.6689 81.2122 72.7702 81.2551 72.877 81.2768C72.9839 81.2985 73.0939 81.2986 73.2008 81.277Z" fill="white"/>
<path fill-rule="evenodd" clip-rule="evenodd" d="M64.4054 81.2144C64.5639 81.1834 64.7098 81.1064 64.8246 80.9929C64.9394 80.8795 65.0181 80.7347 65.0508 80.5767C65.0835 80.4187 65.0687 80.2546 65.0083 80.105C64.9479 79.9554 64.8445 79.827 64.7112 79.7358C64.578 79.6447 64.4207 79.5949 64.2592 79.5927C64.0976 79.5905 63.939 79.636 63.8033 79.7235C63.6676 79.811 63.5608 79.9365 63.4963 80.0844C63.4319 80.2323 63.4126 80.396 63.4409 80.5548C63.4594 80.662 63.4993 80.7645 63.5581 80.8561C63.617 80.9477 63.6936 81.0266 63.7835 81.0881C63.8735 81.1496 63.9748 81.1925 64.0816 81.2142C64.1884 81.2359 64.2985 81.2359 64.4054 81.2144Z" fill="white"/>
<path d="M69.9796 90.1266C70.0477 90.0688 70.0932 89.9888 70.1082 89.9008C70.1232 89.8127 70.1067 89.7223 70.0616 89.6452C70.0397 89.6079 70.0102 89.5757 69.9749 89.5507C69.9397 89.5257 69.8995 89.5086 69.857 89.5004C69.8145 89.4922 69.7708 89.4931 69.7288 89.5031C69.6867 89.5132 69.6473 89.532 69.6131 89.5585C68.7341 90.2476 67.626 90.578 66.5125 90.4829C65.3936 90.3769 64.3532 89.8626 63.5903 89.0385C63.5623 89.0059 63.5275 88.9798 63.4884 88.9618C63.4492 88.9439 63.4067 88.9347 63.3637 88.9347C63.3206 88.9347 63.2781 88.9439 63.239 88.9618C63.1999 88.9798 63.1651 89.0059 63.137 89.0385C63.0814 89.1064 63.051 89.1915 63.051 89.2792C63.051 89.367 63.0814 89.452 63.137 89.52C63.9987 90.4614 65.1787 91.0514 66.4498 91.1763C67.7171 91.2856 68.9787 90.9104 69.9796 90.1266Z" fill="#E88358"/>
<path fill-rule="evenodd" clip-rule="evenodd" d="M54.2881 73.8477C51.4431 74.8973 49.5769 75.9341 48.6896 76.9581C48.5658 78.9212 48.9459 80.8834 49.7939 82.6588C50.4064 82.617 51.0205 82.7107 51.5925 82.9333C51.5218 82.6669 51.4591 82.3972 51.4045 82.1244C51.129 80.6136 51.2498 79.0574 51.7551 77.607C52.2604 76.1567 53.133 74.8616 54.2881 73.8477Z" fill="#0F0906"/>
<path fill-rule="evenodd" clip-rule="evenodd" d="M51.3085 77.247C55.0167 75.9326 57.6785 71.6041 62.0328 70.8915C65.307 70.3522 66.257 73.01 70.5294 70.0008C71.8988 71.2622 72.7475 72.4852 73.601 75.687C73.7939 74.5315 74.0833 73.8382 74.1363 72.9956C75.9687 75.0178 76.5232 71.9315 75.3515 70.2415C75.0817 69.8545 74.7378 69.5246 74.3397 69.2709C73.9417 69.0172 73.4972 68.8447 73.032 68.7633C73.6668 67.1901 73.6536 65.4301 72.9953 63.8665C72.3369 62.3029 71.0867 61.0622 69.5167 60.4145C67.7133 60.0485 67.3114 60.721 68.3112 62.4319C65.7436 61.2325 62.8942 60.7642 60.0771 61.0786C57.2599 61.3929 54.5844 62.4777 52.3453 64.2134C50.8086 65.2822 50.926 66.2452 52.6973 67.1022C47.7498 69.2978 45.8885 79.173 51.3085 77.247Z" fill="#0F0906"/>
<path d="M68.1901 82.8515C68.347 83.7071 68.796 84.482 69.4608 85.0441C70.1256 85.6062 70.965 85.9209 71.836 85.9344C72.7071 85.9479 73.5559 85.6595 74.2379 85.1183C74.9199 84.5771 75.3929 83.8166 75.5763 82.9663C75.7597 82.1159 75.6422 81.2284 75.2438 80.4548C74.8455 79.6813 74.1908 79.0696 73.3914 78.7239C72.592 78.3782 71.6973 78.3199 70.8597 78.5589C70.0221 78.7979 69.2934 79.3195 68.7977 80.0348L68.6627 80.2466C68.2977 79.9952 67.8668 79.8563 67.4234 79.847C66.9344 79.8355 66.4544 79.9806 66.0539 80.2611C65.6457 79.4987 65.0052 78.8858 64.225 78.511C63.4448 78.1362 62.5654 78.019 61.7141 78.1763C61.1858 78.272 60.6817 78.471 60.2306 78.7618C59.7796 79.0527 59.3906 79.4296 59.086 79.8711C58.7624 80.3347 58.5406 80.8614 58.435 81.4166L50.1121 80.6752C50.0685 80.6705 50.0245 80.6768 49.984 80.6937C49.9435 80.7105 49.908 80.7373 49.8806 80.7715L46.78 84.5655C46.7579 84.5924 46.7412 84.6234 46.731 84.6567C46.7209 84.69 46.7174 84.7249 46.7207 84.7596C46.7241 84.7942 46.7342 84.8279 46.7506 84.8586C46.767 84.8893 46.7893 84.9165 46.8162 84.9387C46.8431 84.9608 46.8741 84.9774 46.9075 84.9876C46.9408 84.9978 46.9758 85.0013 47.0105 84.9979C47.0452 84.9946 47.0789 84.9844 47.1097 84.9681C47.1405 84.9517 47.1677 84.9294 47.1899 84.9026L50.2037 81.2144L58.3675 81.9415C58.3496 82.2636 58.369 82.5867 58.4254 82.9044C58.5128 83.4384 58.7057 83.9498 58.9929 84.4086C59.2801 84.8674 59.656 85.2646 60.0984 85.5769C60.5409 85.8893 61.0412 86.1106 61.5702 86.228C62.0992 86.3454 62.6464 86.3565 63.1797 86.2606C63.713 86.1648 64.2219 85.9639 64.6768 85.6698C65.1316 85.3756 65.5232 84.994 65.8289 84.5472C66.1345 84.1004 66.3481 83.5973 66.4571 83.0673C66.5661 82.5373 66.5684 81.9909 66.4638 81.46C66.4194 81.2207 66.3549 80.9855 66.2709 80.757C66.5739 80.5155 66.9488 80.3815 67.3365 80.3763C67.7242 80.3711 68.1025 80.4949 68.4119 80.7281C68.1322 81.3992 68.0551 82.1372 68.1901 82.8515ZM69.2365 80.3381C69.6622 79.7211 70.289 79.2708 71.0102 79.0638C71.7313 78.8569 72.502 78.9063 73.1907 79.2035C73.8795 79.5007 74.4436 80.0274 74.7868 80.6936C75.13 81.3599 75.231 82.1244 75.0725 82.8567C74.9141 83.589 74.5061 84.2437 73.9181 84.7091C73.3301 85.1745 72.5986 85.4217 71.8484 85.4086C71.0982 85.3955 70.3758 85.1228 69.8045 84.6372C69.2332 84.1515 68.8484 83.4829 68.7157 82.7455C68.5642 81.9059 68.7514 81.0405 69.2365 80.3381ZM65.3788 84.19C64.9785 84.7653 64.4165 85.2094 63.7637 85.4663C63.111 85.7232 62.3967 85.7814 61.7108 85.6336C61.025 85.4858 60.3983 85.1387 59.9098 84.6359C59.4212 84.133 59.0926 83.4971 58.9655 82.8081C58.8616 82.235 58.9008 81.6452 59.0797 81.0908C59.2585 80.5365 59.5714 80.0346 59.9907 79.6298C60.41 79.2249 60.9228 78.9295 61.4837 78.7696C62.0446 78.6098 62.6363 78.5904 63.2064 78.7133C63.7766 78.8361 64.3077 79.0974 64.7526 79.474C65.1976 79.8505 65.5427 80.3308 65.7575 80.8723C65.9723 81.4138 66.0501 81.9998 65.9841 82.5785C65.918 83.1571 65.7101 83.7106 65.3788 84.19Z" fill="white"/>
<path fill-rule="evenodd" clip-rule="evenodd" d="M52.4992 87.1992C53.9796 86.5444 54.3991 84.4307 53.4636 82.4855C52.5282 80.5403 50.527 79.4955 49.0466 80.1503C47.5662 80.8052 47.1467 82.9237 48.0822 84.8688C49.0177 86.814 51.0188 87.8588 52.4992 87.1992Z" fill="#FFA984"/>
<path fill-rule="evenodd" clip-rule="evenodd" d="M51.6143 86.2094C52.5353 85.8001 52.8005 84.4809 52.2026 83.2676C51.6046 82.0542 50.3702 81.4042 49.4492 81.8231C48.5282 82.242 48.2629 83.5516 48.8609 84.765C49.4588 85.9783 50.6885 86.6235 51.6143 86.2094Z" fill="#EE865A"/>
<path fill-rule="evenodd" clip-rule="evenodd" d="M51.8245 84.8689C52.3886 84.6185 52.5478 83.8144 52.1813 83.0778C51.8148 82.3411 51.0722 81.9415 50.508 82.1918C49.9438 82.4422 49.7847 83.2415 50.1512 83.9829C50.5177 84.7244 51.2651 85.1192 51.8245 84.8689Z" fill="#DF6D3C"/>
<path fill-rule="evenodd" clip-rule="evenodd" d="M66.1121 87.1511C66.4544 86.9537 67.0765 87.0163 67.9975 87.3437C69.854 87.4977 70.476 86.9488 70.4664 86.1014C70.4664 85.1385 68.6147 81.9125 67.8914 81.0748C67.4671 80.5933 67.0524 80.4825 66.8016 81.5562C66.8016 81.5562 66.5878 82.6027 66.1603 84.6955C65.9664 84.6251 65.7584 84.6018 65.5537 84.6278C65.349 84.6537 65.1534 84.728 64.9832 84.8445C64.813 84.961 64.6731 85.1164 64.5752 85.2978C64.4772 85.4791 64.424 85.6812 64.4199 85.8872C64.4159 86.0932 64.4611 86.2972 64.5519 86.4823C64.6426 86.6673 64.7763 86.8281 64.9417 86.9512C65.1072 87.0743 65.2997 87.1562 65.5033 87.1902C65.7068 87.2241 65.9155 87.209 66.1121 87.1463V87.1511Z" fill="#F38D60"/>
<path fill-rule="evenodd" clip-rule="evenodd" d="M51.3085 77.247C53.4254 76.4959 55.2048 74.7625 57.1481 73.2796C56.1763 71.2562 56.0065 68.9409 56.6727 66.7977C57.339 64.6546 58.7921 62.8423 60.7405 61.724C61.2523 61.4258 61.7916 61.1775 62.3511 60.9826C58.741 60.8537 55.2001 61.9936 52.3453 64.2037C50.8086 65.2726 50.926 66.2355 52.6973 67.0926C47.7498 69.2977 45.8885 79.1729 51.3085 77.247Z" fill="#0F0906"/>
<path fill-rule="evenodd" clip-rule="evenodd" d="M70.0468 67.5356C70.2124 68.438 70.2368 69.3605 70.1192 70.2704C70.2542 70.1837 70.3892 70.0922 70.5291 69.9911C71.8985 71.2526 72.7472 72.4756 73.6007 75.6774C73.7936 74.5219 74.0829 73.8285 74.136 72.9859C75.9684 75.0082 76.5229 71.9219 75.3512 70.2319C75.0814 69.8448 74.7375 69.515 74.3394 69.2613C73.9413 69.0076 73.4969 68.8351 73.0317 68.7537C73.6665 67.1804 73.6533 65.4205 72.995 63.8569C72.3366 62.2933 71.0864 61.0526 69.5164 60.4048C67.713 60.0389 67.3111 60.7114 68.3109 62.4222C67.5435 62.065 66.7485 61.7704 65.9336 61.5411C67.0044 62.1934 67.9247 63.0649 68.6337 64.0981C69.3427 65.1314 69.8243 66.3029 70.0468 67.5356Z" fill="#1D1A19"/>
<path d="M88.6744 106.675C88.7686 110.311 87.9812 113.915 86.3791 117.181C86.0576 118.304 85.7908 120.288 85.5786 123.132L96.0618 127.802C97.0941 126.001 97.9191 124.088 98.5211 122.102C94.2005 119.377 90.9183 114.234 88.6744 106.675Z" fill="#153A5B"/>
<path d="M70.6741 146.681C79.0806 143.195 83.5812 139.716 84.1759 136.243C84.7064 131.235 85.1404 127.023 85.4441 124.143L86.37 117.181C88.347 113.416 88.9032 109.638 88.0384 105.847C88.3124 105.562 88.6487 105.344 89.0209 105.211C89.3932 105.077 89.7913 105.031 90.1843 105.077C92.4651 105.351 94.8617 114.104 100.262 118.197C100.234 114.57 99.7947 111.729 98.946 109.675C95.4709 106.968 91.8154 104.5 88.0047 102.289C85.3397 100.729 81.9224 99.6423 77.7529 99.0292C64.4488 110.681 94.582 128.202 70.6741 146.681Z" fill="#265E96"/>
<path d="M46.6508 107.547C46.5686 109.039 46.4816 110.484 46.4043 111.88C46.6724 110.452 46.7552 108.996 46.6508 107.547Z" fill="#220D82"/>
<path d="M36.6539 129.001C36.0945 129.04 35.7666 129.531 35.6895 130.446C35.6895 130.446 37.2534 137.013 40.3813 150.148L44.2053 150.75C44.2053 150.75 44.943 137.784 46.4283 111.875C46.1226 113.481 45.6189 115.044 44.9286 116.526C41.3281 124.525 39.5278 128.525 39.5278 128.525C39.1083 128.799 38.1584 128.953 36.6539 129.001Z" fill="#153A5B"/>
<path d="M41.423 100.796C32.4218 103.926 28.0466 111.654 28.2973 123.98C30.1192 125.47 32.2665 126.513 34.566 127.023C43.3712 121.914 37.0494 115.467 38.2694 109.978C39.1181 106.054 42.9613 106.468 41.423 100.796Z" fill="#153A5B"/>
<path fill-rule="evenodd" clip-rule="evenodd" d="M75.0328 184.054H75.1292H75.3221H75.5487C76.8893 183.971 78.2282 183.85 79.5655 183.693C84.8409 179.437 86.7167 171.954 87.006 164.154C92.5611 168.04 103.252 169.417 111.898 171.632C116.007 168.834 119.819 165.624 123.273 162.05L92.3923 140.721C80.5444 127.75 70.8424 146.19 65.3886 154.034C58.112 159.407 48.4582 176.273 44.4511 165.021C44.4028 173.986 47.2045 178.811 51.9301 181.613C53.6371 182.075 55.3586 182.475 57.0946 182.812H57.1283C59.0893 183.191 61.0632 183.489 63.0499 183.707C67.0281 184.148 71.0357 184.264 75.0328 184.054Z" fill="#12153D"/>
<path d="M76.7977 133.2C78.4308 130.818 79.7858 127.185 80.8627 122.299C80.8772 122.233 80.8652 122.164 80.8291 122.106C80.7931 122.048 80.7359 122.007 80.6698 121.991C80.6027 121.977 80.5326 121.989 80.4748 122.026C80.4171 122.063 80.3762 122.122 80.3612 122.188C79.3004 127.003 77.9711 130.578 76.3733 132.911C74.8142 135.184 73.0043 136.251 70.9437 136.113C70.8759 136.108 70.8091 136.131 70.758 136.176C70.7069 136.22 70.6757 136.284 70.6712 136.351C70.6667 136.419 70.6894 136.486 70.7341 136.537C70.7789 136.588 70.8421 136.619 70.9099 136.623C73.1666 136.787 75.1292 135.646 76.7977 133.2Z" fill="#0A1C32"/>
<path fill-rule="evenodd" clip-rule="evenodd" d="M37.3965 175.917C39.3253 176.938 41.3217 177.869 43.3855 178.71V154.091H37.3965V175.917Z" fill="#BBBBBB"/>
<path fill-rule="evenodd" clip-rule="evenodd" d="M25.2881 155.247C25.2881 156.143 26.0018 156.855 27.3085 157.057L54.2833 161.29C55.4003 161.406 56.529 161.262 57.5803 160.867C58.6315 160.473 59.5763 159.839 60.3399 159.017C61.3043 157.842 61.0198 156.359 61.0294 154.997C60.7899 155.03 60.5654 155.132 60.3837 155.291C60.2019 155.45 60.071 155.659 60.0072 155.892C59.6939 155.74 59.3587 155.638 59.0138 155.589L32.039 151.352C30.089 151.161 28.1425 151.748 26.6238 152.984C26.4276 152.859 26.2081 152.775 25.9786 152.737C25.7491 152.699 25.5142 152.708 25.2881 152.763V155.247Z" fill="#C7C7C7"/>
<path fill-rule="evenodd" clip-rule="evenodd" d="M25.9775 151.14C24.6755 152.71 25.0131 154.217 26.7635 154.486L54.8281 158.892C56.5592 159.161 59.0426 158.102 60.3397 156.533C61.6417 154.963 61.3042 153.456 59.5586 153.186L31.494 148.781C29.758 148.511 27.2795 149.57 25.9775 151.14Z" fill="#DBDBDB"/>
<path fill-rule="evenodd" clip-rule="evenodd" d="M134.976 135.723C135.268 135.004 135.493 134.259 135.647 133.498C136.033 132.603 136.452 131.688 136.761 130.764C136.859 130.288 136.996 129.821 137.171 129.367L137.653 128.188L137.778 127.677C137.867 127.323 137.998 126.98 138.169 126.657L138.347 126.295C138.566 125.9 138.808 125.517 139.07 125.15L139.553 124.413L100.364 123.012L119.541 163.418L120.322 164.891C121.232 164.05 122.121 163.185 122.989 162.296C122.54 161.147 122.008 160.031 121.397 158.959C121.421 158.938 121.444 158.915 121.465 158.892L121.576 158.781L122.155 158.203C122.351 157.85 122.596 157.526 122.883 157.24L124.189 155.935L124.411 155.728C124.546 155.57 124.696 155.43 124.84 155.285L125.057 155.078C125.149 154.977 125.246 154.876 125.342 154.785L125.636 154.491C125.978 153.972 126.34 153.466 126.721 152.974C126.937 152.6 127.205 152.258 127.517 151.958L127.584 151.896C127.817 151.376 128.144 150.904 128.549 150.504L128.679 150.374C128.773 150.162 128.885 149.958 129.012 149.763C129.185 149.3 129.431 148.868 129.74 148.482C129.966 147.944 130.293 147.453 130.704 147.038L130.907 146.768C131.022 146.528 131.16 146.3 131.317 146.084C131.388 145.855 131.476 145.631 131.582 145.415L131.678 145.044C131.957 144.345 132.23 143.644 132.498 142.94L132.532 142.868L132.864 141.876C132.953 141.62 133.061 141.37 133.188 141.13L133.732 139.488L133.954 138.833C134.084 138.448 134.721 137.389 134.494 137.735L134.417 137.841C134.504 137.413 134.615 136.994 134.726 136.57L134.976 135.723Z" fill="#6B1531"/>
<path fill-rule="evenodd" clip-rule="evenodd" d="M101.704 119.319L122.386 162.927C133.799 151.58 141.096 136.756 143.121 120.802L101.704 119.319Z" fill="#7D1B37"/>
<path fill-rule="evenodd" clip-rule="evenodd" d="M127.662 104.918C127.693 104.944 127.693 104.944 127.662 104.918V104.918Z" fill="white"/>
<path fill-rule="evenodd" clip-rule="evenodd" d="M128.173 104.465L132.995 103.194C133.477 103.025 133.907 102.732 134.239 102.344C134.571 101.955 134.794 101.486 134.885 100.984L138.328 79.1392C138.343 79.0501 138.351 78.9599 138.352 78.8696C138.468 78.8349 138.569 78.7644 138.642 78.6684C138.715 78.5723 138.755 78.4556 138.757 78.3351L137.88 77.8537C137.747 77.7803 137.601 77.7348 137.45 77.7199C137.299 77.705 137.147 77.721 137.002 77.767L132.18 79.0333C131.697 79.2043 131.268 79.499 130.936 79.8877C130.603 80.2764 130.379 80.7455 130.285 81.2481L126.847 103.093C126.807 103.271 126.803 103.455 126.835 103.634C126.867 103.814 126.935 103.985 127.035 104.138C127.045 104.155 127.056 104.171 127.069 104.186L127.642 104.913C127.693 104.859 127.731 104.795 127.754 104.725C127.778 104.656 127.785 104.582 127.777 104.508C127.911 104.515 128.044 104.5 128.173 104.465Z" fill="white"/>
<path fill-rule="evenodd" clip-rule="evenodd" d="M128.524 105.149L134.093 103.704C134.464 103.571 134.794 103.343 135.048 103.042C135.302 102.741 135.472 102.378 135.54 101.99L139.113 79.3607C139.234 78.5951 138.771 78.1233 138.086 78.3014L132.517 79.7459C132.146 79.8782 131.817 80.106 131.563 80.4061C131.309 80.7063 131.139 81.0682 131.07 81.4552L127.497 104.114C127.376 104.855 127.839 105.332 128.524 105.149Z" fill="#30324F"/>
<path fill-rule="evenodd" clip-rule="evenodd" d="M105.716 132.131C108.127 133.012 110.605 133.503 112.925 132.94C113.951 132.688 114.938 132.296 115.857 131.775C120.592 129.141 128.22 119.545 131.442 115.067C131.442 115.067 133.015 113.265 136.162 109.66C136.677 109.309 137.094 108.833 137.375 108.278C137.655 107.722 137.791 107.104 137.768 106.483C138.247 106.077 138.606 105.549 138.806 104.955C139.007 104.361 139.041 103.724 138.906 103.112C139.31 102.784 139.576 102.315 139.649 101.8C139.722 101.285 139.598 100.762 139.302 100.334L137.947 98.8655L136.5 93.4296L133.423 90.1989C133.268 90.0468 133.063 89.9544 132.846 89.9381C132.628 89.9218 132.412 89.9826 132.235 90.1097C132.059 90.2368 131.932 90.4222 131.879 90.6331C131.825 90.8441 131.848 91.0671 131.943 91.2629C131.943 91.2629 132.599 92.1537 133.92 93.9303L135.164 97.5944L128.814 96.6314C128.607 96.6291 128.406 96.6977 128.244 96.8257C128.082 96.9538 127.969 97.1335 127.923 97.3349C127.878 97.5362 127.904 97.7469 127.995 97.9318C128.087 98.1166 128.24 98.2644 128.428 98.3503L134.272 100.079L135.642 101.61L134.094 100.729L126.378 100.117C126.126 100.118 125.883 100.213 125.697 100.383C125.51 100.553 125.394 100.786 125.37 101.037C125.346 101.287 125.416 101.538 125.567 101.74C125.717 101.942 125.938 102.081 126.186 102.13L131.548 103.204L134.692 105.077L132.686 104.436L128.471 104.046L125.708 103.907C125.489 103.948 125.29 104.06 125.141 104.225C124.992 104.39 124.902 104.6 124.884 104.821C124.867 105.043 124.922 105.263 125.041 105.451C125.16 105.638 125.337 105.782 125.544 105.861L126.827 106.179C126.586 106.776 126.311 107.358 126.002 107.922L111.984 117.383C111.888 117.563 107.54 114.995 98.9407 109.68C100.031 112.725 100.461 115.966 100.2 119.19C99.9401 122.413 98.9963 125.544 97.4314 128.375C100.096 129.83 102.865 131.085 105.716 132.131Z" fill="#FF9C72"/>
<path fill-rule="evenodd" clip-rule="evenodd" d="M131.943 84.1033C132.096 84.0487 132.231 83.955 132.336 83.8316C132.441 83.7082 132.512 83.5595 132.541 83.4004L132.869 81.3203C132.917 81.0122 132.729 80.8148 132.449 80.887C132.297 80.9417 132.161 81.0354 132.056 81.1587C131.952 81.2821 131.881 81.4308 131.852 81.59L131.524 83.67C131.475 83.9781 131.663 84.1755 131.943 84.1033Z" fill="white"/>
<path fill-rule="evenodd" clip-rule="evenodd" d="M38.9106 104.354C39.605 104.898 40.0969 104.672 40.4537 104.152C41.3651 102.828 42.2331 99.66 40.1644 98.8078C40.2634 98.2872 40.1756 97.7485 39.9163 97.2862C39.657 96.8239 39.2429 96.4677 38.7467 96.28C38.8708 95.9661 38.9226 95.6284 38.8981 95.2918C38.8737 94.9552 38.7737 94.6285 38.6056 94.3357C38.4375 94.043 38.2055 93.7918 37.9269 93.6008C37.6483 93.4098 37.3303 93.2838 36.9963 93.2322C36.9836 92.8608 36.8908 92.4966 36.7244 92.1642C36.558 91.8319 36.3218 91.5392 36.0319 91.3063C34.6913 90.2133 29.9223 90.6467 28.5528 91.4796C27.5353 92.0911 26.73 93.1552 26.0791 94.9704C24.0184 95.3941 23.4044 98.5718 24.237 104.504C20.1431 114.47 14.2312 124.057 10.6194 133.754C8.30481 139.97 7.91905 146.494 13.1944 151.188C15.1522 152.735 17.2128 152.775 19.3763 151.308C21.1155 150.821 22.7238 149.953 24.0836 148.766C25.4435 147.579 26.5206 146.103 27.2364 144.447C30.7957 139.62 33.8526 134.443 36.3598 128.997C33.4279 128.891 31.0121 128.111 28.8035 126.175C29.8596 120.368 31.3496 114.042 31.7884 111.87C35.8486 108.802 38.2227 106.296 38.9106 104.354Z" fill="#FF9C72"/>
<path d="M38.8474 104.638C38.9139 104.654 38.984 104.644 39.0427 104.608C39.1013 104.573 39.1438 104.517 39.1608 104.45C39.4601 103.273 39.5852 102.058 39.5321 100.844C39.5284 100.776 39.498 100.712 39.4475 100.666C39.397 100.62 39.3304 100.596 39.2621 100.599C39.2285 100.6 39.1956 100.609 39.1653 100.623C39.135 100.638 39.1079 100.658 39.0855 100.683C39.0631 100.708 39.0459 100.738 39.0348 100.769C39.0237 100.801 39.019 100.835 39.021 100.868C39.0687 102.032 38.9486 103.196 38.6642 104.325C38.6555 104.358 38.6533 104.392 38.6578 104.425C38.6623 104.459 38.6734 104.491 38.6905 104.52C38.7075 104.549 38.7301 104.574 38.7571 104.595C38.784 104.615 38.8147 104.63 38.8474 104.638Z" fill="#E88358"/>
<path d="M28.5819 126.185L26.9472 134.649C26.9376 134.685 26.9376 134.723 26.9472 134.76C27.3136 136.749 27.1828 138.798 26.5662 140.725C25.9496 142.651 24.8664 144.396 23.4126 145.805C23.3888 145.829 23.37 145.857 23.3571 145.888C23.3443 145.919 23.3376 145.952 23.3376 145.985C23.3376 146.019 23.3443 146.052 23.3571 146.083C23.37 146.114 23.3888 146.142 23.4126 146.166C23.4364 146.19 23.4645 146.209 23.4956 146.221C23.5266 146.234 23.5599 146.241 23.5934 146.241C23.627 146.241 23.6603 146.234 23.6913 146.221C23.7223 146.209 23.7505 146.19 23.7743 146.166C25.2847 144.704 26.4113 142.892 27.0546 140.892C27.698 138.892 27.8383 136.764 27.4632 134.697L29.0738 126.372C29.1413 125.915 28.6735 125.775 28.5819 126.185Z" fill="#E88358"/>
<path d="M33.2346 93.5305H36.9958C37.0296 93.5311 37.0631 93.525 37.0944 93.5124C37.1257 93.4998 37.1541 93.481 37.178 93.4572C37.2019 93.4333 37.2207 93.405 37.2333 93.3737C37.2459 93.3424 37.252 93.309 37.2514 93.2753C37.2514 93.2076 37.2245 93.1427 37.1765 93.0948C37.1286 93.047 37.0636 93.0201 36.9958 93.0201H33.2394C32.8854 93.0006 32.5327 93.0754 32.2171 93.2368C32.083 93.3119 31.9688 93.4179 31.8841 93.5461C31.7994 93.6742 31.7466 93.8208 31.7301 93.9734C31.7254 94.0063 31.7272 94.0399 31.7356 94.0721C31.744 94.1043 31.7587 94.1345 31.7789 94.1609C31.7991 94.1873 31.8244 94.2095 31.8533 94.2261C31.8821 94.2427 31.914 94.2534 31.9471 94.2575C32.0094 94.2597 32.0704 94.2396 32.119 94.2007C32.1677 94.1618 32.2008 94.1068 32.2123 94.0456C32.2248 93.9707 32.255 93.8998 32.3002 93.8387C32.3455 93.7776 32.4046 93.7281 32.4727 93.6942C32.7098 93.5804 32.972 93.529 33.2346 93.5449V93.5305Z" fill="#E88358"/>
<path d="M38.824 96.1979C38.8228 96.1641 38.8148 96.1309 38.8004 96.1004C38.7861 96.0698 38.7657 96.0425 38.7404 96.02C38.7152 95.9975 38.6857 95.9803 38.6537 95.9695C38.6216 95.9587 38.5877 95.9545 38.554 95.9571L35.2316 96.1449C35.0008 96.159 34.7779 96.2337 34.5854 96.3616C34.4411 96.4645 34.321 96.5976 34.2334 96.7516C34.1976 96.809 34.1861 96.8783 34.2015 96.9442C34.2169 97.0102 34.2578 97.0673 34.3154 97.103C34.3729 97.1388 34.4423 97.1503 34.5084 97.1349C34.541 97.1273 34.5719 97.1134 34.5992 97.0938C34.6265 97.0743 34.6497 97.0496 34.6674 97.0212C34.7253 96.9108 34.8128 96.8186 34.92 96.7549C35.0273 96.6911 35.1502 96.6583 35.275 96.6601L38.5878 96.4723C38.6213 96.4699 38.6541 96.4608 38.6842 96.4457C38.7143 96.4306 38.7411 96.4096 38.763 96.3841C38.785 96.3586 38.8017 96.329 38.8122 96.2971C38.8226 96.2651 38.8267 96.2314 38.824 96.1979Z" fill="#E88358"/>
<path d="M37.7194 98.6823C37.3926 98.7105 37.0739 98.7986 36.7791 98.9423C36.5218 99.0607 36.3174 99.2699 36.2053 99.5297C36.1933 99.5613 36.1876 99.595 36.1886 99.6288C36.1896 99.6626 36.1972 99.6959 36.2111 99.7267C36.225 99.7576 36.2448 99.7854 36.2695 99.8086C36.2941 99.8318 36.3231 99.8499 36.3548 99.8619C36.3864 99.8739 36.4202 99.8796 36.454 99.8786C36.4879 99.8776 36.5212 99.87 36.5521 99.8561C36.583 99.8422 36.6109 99.8224 36.6341 99.7978C36.6573 99.7732 36.6755 99.7443 36.6875 99.7127C36.7574 99.5708 36.8752 99.4582 37.0202 99.3949C37.2577 99.2808 37.5145 99.2122 37.7773 99.1927L40.1064 99.0193C40.1733 99.0144 40.2357 98.9833 40.2799 98.9329C40.3241 98.8824 40.3466 98.8166 40.3427 98.7497C40.3377 98.6816 40.3061 98.6181 40.2547 98.5731C40.2032 98.528 40.1361 98.505 40.0678 98.509L37.7194 98.6823Z" fill="#E88358"/>
<path d="M25.8377 94.9267L24.9794 97.3005C24.968 97.3324 24.9631 97.3662 24.965 97.4C24.9668 97.4339 24.9754 97.467 24.9902 97.4975C25.0051 97.5279 25.0258 97.5552 25.0513 97.5776C25.0767 97.5999 25.1064 97.617 25.1385 97.6279C25.1699 97.6393 25.2031 97.6443 25.2364 97.6427C25.2697 97.6411 25.3024 97.6329 25.3325 97.6186C25.3626 97.6042 25.3895 97.584 25.4116 97.5592C25.4338 97.5343 25.4508 97.5053 25.4616 97.4738L26.3103 95.0953C26.3218 95.0637 26.3269 95.0301 26.3254 94.9965C26.3238 94.9629 26.3157 94.93 26.3013 94.8995C26.287 94.8691 26.2668 94.8418 26.2418 94.8192C26.2169 94.7966 26.1877 94.7792 26.156 94.7679C26.0927 94.7491 26.0245 94.7551 25.9654 94.7846C25.9064 94.8141 25.8607 94.8649 25.8377 94.9267Z" fill="#E88358"/>
<path d="M37.271 132.053C37.2472 132.077 37.2284 132.105 37.2155 132.136C37.2027 132.167 37.196 132.2 37.196 132.233C37.196 132.267 37.2027 132.3 37.2155 132.331C37.2284 132.362 37.2472 132.39 37.271 132.414C44.2052 139.155 50.4289 143.438 55.9422 145.265C61.4554 147.091 66.3 146.435 70.476 143.296C70.5083 143.277 70.5363 143.252 70.5581 143.222C70.5799 143.192 70.595 143.158 70.6024 143.121C70.6098 143.085 70.6093 143.047 70.601 143.011C70.5927 142.975 70.5767 142.941 70.5541 142.912C70.5315 142.882 70.5029 142.858 70.4701 142.84C70.4373 142.823 70.4012 142.812 70.3641 142.81C70.327 142.808 70.2898 142.813 70.255 142.826C70.2203 142.839 70.1887 142.86 70.1625 142.886C66.1859 145.923 61.5004 146.552 56.1061 144.774C50.7118 142.995 44.554 138.754 37.6327 132.048C37.6086 132.025 37.5802 132.006 37.549 131.994C37.5178 131.981 37.4844 131.975 37.4508 131.976C37.4173 131.976 37.3841 131.983 37.3532 131.996C37.3224 132.01 37.2944 132.029 37.271 132.053Z" fill="#0A1C32"/>
<path d="M39.2481 128.095L38.9202 128.731C38.5234 128.806 38.1225 128.858 37.7195 128.885C37.2747 128.914 36.8285 128.914 36.3838 128.885C36.3502 128.883 36.3165 128.888 36.2848 128.899C36.253 128.91 36.2238 128.927 36.1987 128.949C36.1736 128.972 36.1532 128.999 36.1386 129.029C36.124 129.059 36.1156 129.092 36.1137 129.126C36.1118 129.159 36.1165 129.193 36.1275 129.224C36.1386 129.256 36.1558 129.285 36.1782 129.31C36.2006 129.335 36.2277 129.356 36.258 129.37C36.2884 129.385 36.3212 129.393 36.3548 129.395C36.8204 129.426 37.2876 129.426 37.7532 129.395C38.2201 129.366 38.6842 129.303 39.142 129.207C39.1803 129.201 39.2164 129.185 39.2474 129.161C39.2785 129.138 39.3035 129.108 39.3204 129.073L39.7062 128.326C41.9147 124.036 44.4752 119.063 45.9411 114.845C46.6255 113.082 46.9533 111.202 46.9056 109.313C46.7887 107.361 46.0826 105.491 44.8803 103.949C44.8607 103.921 44.8358 103.898 44.8071 103.881C44.7784 103.863 44.7464 103.852 44.7131 103.847C44.6798 103.842 44.6459 103.844 44.6133 103.852C44.5807 103.86 44.5501 103.875 44.5234 103.896C44.4959 103.916 44.4726 103.941 44.455 103.97C44.4374 103.999 44.4258 104.032 44.4208 104.065C44.4159 104.099 44.4177 104.133 44.4262 104.166C44.4347 104.199 44.4498 104.23 44.4704 104.257C45.6116 105.719 46.2839 107.491 46.3992 109.341C46.4488 111.164 46.1391 112.978 45.4879 114.681C44.0027 118.86 41.4469 123.82 39.2481 128.095Z" fill="#0A1C32"/>
<path d="M85.9118 116.969C85.8912 117.001 85.878 117.037 85.8732 117.075L85.2223 123.869C85.2056 123.906 85.198 123.946 85.2 123.986C85.2021 124.027 85.2137 124.066 85.234 124.101C85.2543 124.136 85.2826 124.166 85.3167 124.188C85.3507 124.21 85.3895 124.224 85.4298 124.228C85.4702 124.232 85.5109 124.226 85.5486 124.211C85.5864 124.196 85.62 124.173 85.6469 124.143C85.6737 124.112 85.6929 124.076 85.7029 124.037C85.7129 123.997 85.7135 123.956 85.7045 123.917L86.3555 117.176C88.3934 113.741 89.1628 109.702 88.5302 105.76C88.5255 105.727 88.5143 105.695 88.4971 105.667C88.4799 105.638 88.4572 105.613 88.4302 105.594C88.4033 105.574 88.3726 105.56 88.3401 105.552C88.3076 105.544 88.2739 105.543 88.2409 105.548C88.1739 105.56 88.114 105.597 88.0736 105.652C88.0333 105.707 88.0154 105.775 88.0239 105.842C88.6424 109.685 87.8861 113.623 85.8877 116.964L85.9118 116.969Z" fill="#0A1C32"/>
<path d="M116.917 135.906C117.673 135.823 118.432 136.041 119.029 136.513L119.815 135.501C119.174 135 118.401 134.696 117.59 134.625C116.779 134.554 115.965 134.72 115.247 135.102C114.528 135.484 113.936 136.066 113.542 136.777C113.149 137.489 112.97 138.299 113.029 139.11C113.088 139.92 113.381 140.697 113.872 141.344C114.364 141.992 115.034 142.483 115.8 142.758C116.566 143.033 117.395 143.08 118.188 142.894C118.98 142.708 119.701 142.295 120.263 141.708L119.337 140.822C118.813 141.369 118.096 141.692 117.338 141.722C116.58 141.753 115.84 141.489 115.272 140.986C114.85 140.609 114.546 140.118 114.397 139.572C114.249 139.026 114.263 138.449 114.437 137.911C114.611 137.373 114.938 136.897 115.379 136.541C115.819 136.185 116.353 135.964 116.917 135.906Z" fill="#A23658"/>
<path fill-rule="evenodd" clip-rule="evenodd" d="M126.364 146.498C130.261 146.498 133.424 145.41 133.424 144.067L134.441 133.499H118.312L119.31 144.091C119.31 145.43 122.468 146.498 126.364 146.498Z" fill="#A33658"/>
<path d="M126.364 136.272C130.814 136.272 134.422 135.028 134.422 133.494C134.422 131.959 130.814 130.716 126.364 130.716C121.914 130.716 118.306 131.959 118.306 133.494C118.306 135.028 121.914 136.272 126.364 136.272Z" fill="white"/>
<path d="M126.364 135.521C130.223 135.521 133.352 134.613 133.352 133.494C133.352 132.374 130.223 131.467 126.364 131.467C122.505 131.467 119.377 132.374 119.377 133.494C119.377 134.613 122.505 135.521 126.364 135.521Z" fill="#663300"/>
<path opacity="0.38" fill-rule="evenodd" clip-rule="evenodd" d="M120.081 115.968C118.917 117.605 118.433 119.628 118.729 121.614C119.024 123.599 120.077 125.394 121.667 126.623C122.781 127.514 123.914 128.303 124.488 129.724C124.788 130.63 124.951 131.576 124.97 132.531C125.081 133.595 125.997 134.341 126.947 133.542C128.047 132.617 127.651 130.297 126.658 128.087C125.293 125.034 122.443 124.028 123.581 120.017C124.175 117.918 125.636 116.94 127.246 116.035C130.091 114.441 132.319 112.713 133.269 109.477C134.431 105.534 133.655 100.57 131.34 97.6329C130.587 96.6525 129.565 95.9116 128.398 95.5005C127.232 95.0893 125.97 95.0256 124.768 95.317C121.489 96.0537 119.126 98.7259 119.058 101.658C118.928 107.234 123.36 107.566 123.909 110.537C124.406 113.329 121.551 113.888 120.081 115.968Z" fill="white"/>
<path d="M129.103 98.5429C129.093 98.5752 129.09 98.609 129.094 98.6424C129.097 98.6759 129.107 98.7083 129.123 98.7378C129.14 98.7674 129.161 98.7934 129.188 98.8145C129.214 98.8356 129.244 98.8513 129.276 98.8607L134.099 100.305L136.254 102.713C136.277 102.738 136.304 102.758 136.334 102.772C136.364 102.787 136.397 102.795 136.431 102.797C136.464 102.799 136.498 102.794 136.53 102.783C136.561 102.772 136.591 102.754 136.616 102.732C136.641 102.709 136.661 102.682 136.676 102.652C136.69 102.622 136.698 102.589 136.7 102.555C136.702 102.522 136.697 102.488 136.686 102.456C136.675 102.425 136.657 102.396 136.635 102.371L134.441 99.8959C134.409 99.8595 134.367 99.8328 134.32 99.8188L129.421 98.3744C129.357 98.3548 129.287 98.3616 129.227 98.3932C129.168 98.4247 129.123 98.4786 129.103 98.5429Z" fill="#E88358"/>
<path d="M135.049 97.84L136.64 98.8993C136.668 98.9192 136.699 98.9333 136.733 98.9408C136.766 98.9483 136.801 98.949 136.834 98.943C136.868 98.9369 136.9 98.9241 136.929 98.9054C136.958 98.8866 136.982 98.8623 137.001 98.834C137.02 98.8056 137.033 98.7736 137.04 98.7401C137.046 98.7065 137.046 98.672 137.039 98.6386C137.032 98.6051 137.018 98.5735 136.998 98.5455C136.979 98.5175 136.954 98.4937 136.925 98.4756L135.3 97.3874C135.264 97.3613 135.222 97.3432 135.179 97.3345L130.198 96.5689C130.164 96.5638 130.131 96.5654 130.098 96.5734C130.065 96.5814 130.035 96.5958 130.007 96.6157C129.98 96.6356 129.957 96.6606 129.94 96.6894C129.923 96.7181 129.911 96.75 129.906 96.7832C129.901 96.8164 129.902 96.8502 129.911 96.8828C129.919 96.9154 129.933 96.9461 129.953 96.9732C129.973 97.0002 129.998 97.0231 130.027 97.0405C130.055 97.0578 130.087 97.0694 130.121 97.0745L135.049 97.84Z" fill="#E88358"/>
<path d="M112.12 117.638C112.18 117.606 112.225 117.552 112.245 117.487C112.264 117.422 112.258 117.352 112.226 117.292C112.194 117.232 112.139 117.187 112.074 117.167C112.009 117.147 111.939 117.154 111.879 117.186C110.118 118.132 108.734 119.65 107.953 121.488C107.173 123.326 107.044 125.375 107.587 127.297C107.605 127.362 107.648 127.417 107.707 127.45C107.766 127.484 107.835 127.493 107.9 127.475C107.966 127.456 108.021 127.412 108.055 127.352C108.088 127.293 108.097 127.223 108.079 127.157C107.568 125.348 107.691 123.419 108.425 121.689C109.16 119.959 110.463 118.53 112.12 117.638Z" fill="#E88358"/>
<path d="M132.801 108.486C132.829 108.505 132.86 108.519 132.893 108.527C132.926 108.534 132.96 108.535 132.993 108.53C133.027 108.524 133.059 108.512 133.087 108.494C133.116 108.476 133.141 108.453 133.161 108.425C133.18 108.398 133.194 108.367 133.202 108.334C133.209 108.301 133.21 108.267 133.205 108.234C133.199 108.2 133.187 108.168 133.169 108.14C133.151 108.111 133.128 108.086 133.1 108.067L131.398 106.853C131.365 106.829 131.327 106.811 131.287 106.8L130.598 106.666H130.53L126.889 105.943C126.854 105.925 126.815 105.916 126.776 105.915C126.736 105.915 126.697 105.923 126.662 105.941C126.626 105.958 126.595 105.983 126.571 106.014C126.547 106.045 126.53 106.082 126.522 106.12C126.515 106.159 126.516 106.199 126.526 106.237C126.537 106.275 126.556 106.31 126.582 106.34C126.608 106.369 126.641 106.392 126.677 106.407C126.714 106.422 126.754 106.428 126.793 106.425L130.347 107.133C130.585 107.574 130.68 108.079 130.617 108.577C130.507 109.258 130.247 109.906 129.855 110.474C129.825 110.531 129.817 110.597 129.833 110.659C129.849 110.721 129.888 110.775 129.942 110.81C129.997 110.844 130.062 110.857 130.125 110.846C130.189 110.835 130.245 110.8 130.284 110.749C130.72 110.118 131.009 109.397 131.128 108.64C131.19 108.166 131.134 107.685 130.964 107.238L131.133 107.272L132.801 108.486Z" fill="#E88358"/>
<path d="M126.195 102.125C126.188 102.158 126.188 102.193 126.194 102.226C126.201 102.259 126.214 102.291 126.233 102.319C126.251 102.348 126.276 102.372 126.304 102.39C126.332 102.409 126.364 102.422 126.398 102.428L131.466 103.444L132.695 104.176L128.51 103.791C128.442 103.786 128.375 103.807 128.323 103.85C128.271 103.893 128.237 103.955 128.23 104.022C128.227 104.056 128.23 104.09 128.24 104.122C128.25 104.154 128.266 104.184 128.288 104.21C128.309 104.236 128.336 104.257 128.365 104.273C128.395 104.289 128.428 104.298 128.462 104.301L132.642 104.687L135.907 105.784C135.972 105.804 136.043 105.799 136.104 105.768C136.165 105.738 136.212 105.685 136.235 105.621C136.245 105.589 136.249 105.555 136.247 105.522C136.244 105.488 136.235 105.455 136.22 105.425C136.205 105.395 136.184 105.369 136.158 105.347C136.133 105.325 136.103 105.308 136.071 105.298L134.889 104.903C134.875 104.885 134.857 104.87 134.836 104.86L131.692 102.982C131.667 102.968 131.639 102.958 131.61 102.953L126.499 101.923C126.432 101.91 126.362 101.924 126.306 101.962C126.249 102 126.209 102.058 126.195 102.125Z" fill="#E88358"/>
<path d="M125.795 107.792C125.223 108.778 124.995 109.926 125.149 111.055C125.303 112.184 125.829 113.23 126.644 114.027C126.668 114.051 126.696 114.07 126.727 114.083C126.758 114.096 126.791 114.102 126.825 114.102C126.858 114.102 126.892 114.096 126.923 114.083C126.954 114.07 126.982 114.051 127.006 114.027C127.029 114.004 127.048 113.975 127.061 113.945C127.074 113.914 127.081 113.88 127.081 113.847C127.081 113.813 127.074 113.78 127.061 113.749C127.048 113.718 127.029 113.69 127.006 113.666C126.272 112.947 125.8 112.004 125.662 110.987C125.524 109.97 125.728 108.936 126.244 108.047C126.261 108.019 126.272 107.987 126.277 107.954C126.282 107.921 126.28 107.887 126.271 107.855C126.263 107.822 126.248 107.792 126.227 107.766C126.207 107.739 126.181 107.717 126.152 107.701C126.123 107.683 126.09 107.672 126.056 107.667C126.022 107.662 125.988 107.664 125.955 107.673C125.922 107.681 125.89 107.696 125.863 107.717C125.836 107.737 125.813 107.763 125.795 107.792Z" fill="#E88358"/>
<path fill-rule="evenodd" clip-rule="evenodd" d="M73.4898 149.594C78.8568 148.15 82.7482 149.729 86.5336 151.453C99.6786 157.423 103.681 150.134 114.502 155.964L92.3924 140.721C90.515 138.676 88.6456 137.336 86.7843 136.7C84.8265 136.126 83.1533 136.071 81.7645 136.537C79.5586 137.235 77.5527 138.452 75.9153 140.085C74.143 141.781 72.529 143.634 71.0932 145.622C68.278 149.491 65.675 153.509 63.2959 157.659C64.3542 155.692 65.8046 153.961 67.5577 152.574C69.3108 151.187 71.3296 150.173 73.4898 149.594Z" fill="#272D7A"/>
<path d="M68.3303 150.057C69.2401 148.708 70.1852 147.356 71.1657 145.998C71.2051 145.941 71.2207 145.872 71.2089 145.804C71.1972 145.737 71.1591 145.676 71.103 145.637C71.0755 145.617 71.0444 145.604 71.0116 145.596C70.9787 145.589 70.9447 145.588 70.9116 145.594C70.8784 145.6 70.8467 145.612 70.8183 145.63C70.79 145.648 70.7654 145.672 70.7462 145.699C69.7818 147.025 68.835 148.381 67.906 149.768C66.9769 151.154 66.0671 152.535 65.1767 153.908C62.846 157.439 60.5073 160.978 58.1605 164.525C55.8138 168.072 53.6422 171.372 51.6459 174.424C51.6264 174.452 51.6128 174.483 51.6058 174.516C51.5989 174.549 51.5988 174.583 51.6056 174.616C51.6124 174.649 51.6259 174.68 51.6453 174.708C51.6646 174.735 51.6895 174.758 51.7182 174.776C51.7461 174.795 51.7777 174.809 51.811 174.816C51.8444 174.823 51.8788 174.823 51.9122 174.816C51.9456 174.81 51.9772 174.796 52.0052 174.777C52.0332 174.757 52.057 174.733 52.075 174.704C54.2836 171.333 56.4551 168.032 58.5897 164.8C60.7243 161.567 63.063 158.036 65.6058 154.207C66.4899 152.804 67.398 151.421 68.3303 150.057Z" fill="#01020F"/>
<path d="M58.6133 183.038L79.7437 153.581C79.7678 153.546 79.7842 153.507 79.7919 153.465C80.52 150.196 81.1951 149.248 81.8606 149.397C82.4537 149.527 83.1384 150.461 83.8569 151.443C84.3925 152.271 85.0418 153.02 85.7858 153.668C86.6441 154.294 87.5458 154.366 88.491 153.21L114.67 169.508C114.699 169.526 114.73 169.539 114.764 169.544C114.797 169.55 114.831 169.549 114.864 169.542C114.897 169.535 114.928 169.521 114.955 169.501C114.983 169.482 115.006 169.457 115.025 169.429C115.043 169.401 115.055 169.369 115.061 169.336C115.066 169.302 115.066 169.268 115.058 169.236C115.051 169.203 115.037 169.172 115.018 169.144C114.998 169.117 114.973 169.093 114.945 169.075L88.5922 152.671C88.5385 152.637 88.4738 152.624 88.411 152.636C88.3483 152.647 88.2924 152.682 88.2547 152.734C87.488 153.774 86.7791 153.75 86.1137 153.268C85.4081 152.65 84.7901 151.939 84.2765 151.154C83.5001 150.09 82.7623 149.079 81.9811 148.906C81.0167 148.694 80.1198 149.71 79.3097 153.331L58.2082 182.749C58.1879 182.776 58.1733 182.807 58.1653 182.84C58.1572 182.872 58.1558 182.906 58.1612 182.94C58.1666 182.973 58.1787 183.005 58.1967 183.033C58.2147 183.062 58.2383 183.086 58.2661 183.105C58.3215 183.141 58.3886 183.154 58.4532 183.141C58.5179 183.129 58.5753 183.092 58.6133 183.038Z" fill="white"/>
<path fill-rule="evenodd" clip-rule="evenodd" d="M20.8469 100.637C20.8469 100.698 20.865 100.758 20.8989 100.809C20.9328 100.859 20.981 100.899 21.0374 100.922C21.0938 100.945 21.1559 100.952 21.2157 100.94C21.2756 100.928 21.3306 100.898 21.3738 100.855C21.4169 100.812 21.4463 100.757 21.4582 100.697C21.4701 100.638 21.464 100.576 21.4407 100.519C21.4173 100.463 21.3777 100.415 21.327 100.381C21.2762 100.347 21.2166 100.329 21.1555 100.329C21.0737 100.329 20.9952 100.362 20.9373 100.419C20.8794 100.477 20.8469 100.556 20.8469 100.637Z" fill="white"/>
<path fill-rule="evenodd" clip-rule="evenodd" d="M117.226 40.0092V44.9251H115.621V61.4688H117.226V66.5629H118.548V61.4688H120.158V44.9251H118.548V40.0092H117.226Z" fill="#79243D"/>
<path fill-rule="evenodd" clip-rule="evenodd" d="M110.837 50.3226V54.5211H109.12V68.6478H110.837V73.0004H112.153V68.6478H113.658V54.5211H112.153V50.3226H110.837Z" fill="#79243D"/>
<path fill-rule="evenodd" clip-rule="evenodd" d="M104 68.0074V71.3248H102.283V82.4855H104V85.9233H105.316V82.4855H106.821V71.3248H105.316V68.0074H104Z" fill="#AB395B"/>
<path fill-rule="evenodd" clip-rule="evenodd" d="M144.268 37V40.0767H142.552V50.4141H144.268V53.5967H145.585V50.4141H147.089V40.0767H145.585V37H144.268Z" fill="#79243D"/>
<path fill-rule="evenodd" clip-rule="evenodd" d="M137.315 40.7507V42.8596H135.598V49.9614H137.315V52.1522H138.631V49.9614H140.135V42.8596H138.631V40.7507H137.315Z" fill="#79243D"/>
<path fill-rule="evenodd" clip-rule="evenodd" d="M130.651 48.5026V52.5181H129.041V66.014H130.651V70.1692H131.968V66.014H133.578V52.5181H131.968V48.5026H130.651Z" fill="#AB395B"/>
<path fill-rule="evenodd" clip-rule="evenodd" d="M124.189 43.8803V48.3003H122.579V63.1829H124.189V67.7666H125.51V63.1829H127.121V48.3003H125.51V43.8803H124.189Z" fill="#AB395B"/>
<path fill-rule="evenodd" clip-rule="evenodd" d="M97.5425 54.9015V59.3263H95.9368V74.2089H97.5425V78.7926H98.8638V74.2089H100.474V59.3263H98.8638V54.9015H97.5425Z" fill="#AB395B"/>
<path fill-rule="evenodd" clip-rule="evenodd" d="M90.198 59.9377V63.804H88.5874V76.804H90.198V80.81H91.5192V76.804H93.1298V63.804H91.5192V59.9377H90.198Z" fill="#AB395B"/>
<path fill-rule="evenodd" clip-rule="evenodd" d="M84.1901 72.5333V75.0129H82.4734V83.3522H84.1901V85.9233H85.5113V83.3522H87.011V75.0129H85.5113V72.5333H84.1901Z" fill="#AB395B"/>
<path d="M107.178 43.6036V42.661H101.784V43.6036H103.5C104.139 43.6036 104.678 43.9986 104.881 44.5462H101.784V45.4888H104.881C104.78 45.7637 104.593 46.0019 104.346 46.1707C104.099 46.3394 103.803 46.4305 103.5 46.4314H101.784V47.5691L104.523 50.2018H105.91L102.968 47.374H103.5C104.065 47.3733 104.612 47.1854 105.05 46.842C105.488 46.4986 105.788 46.0206 105.902 45.4888H107.178V44.5462H105.902C105.827 44.2032 105.672 43.881 105.449 43.6036H107.178Z" fill="#6A102B"/>
<path d="M90.9951 91.3367C91.0798 92.2886 91.8604 92.9642 93.0489 93.0516V93.746H93.6454V93.0516C94.9437 92.9493 95.749 92.2304 95.749 91.1671C95.749 90.2591 95.2074 89.7337 94.0584 89.4379L93.6454 89.3311V87.1599C94.2871 87.2227 94.7201 87.5676 94.8293 88.0827H95.67C95.5751 87.169 94.7893 86.5135 93.6454 86.4409V85.7511H93.0489V86.4552C91.9399 86.5866 91.1787 87.2958 91.1787 88.2575C91.1787 89.0878 91.7312 89.6754 92.7006 89.9233L93.0495 90.0158V92.3178C92.3923 92.2207 91.9399 91.8609 91.8307 91.3367H90.9951ZM92.9345 89.1461C92.338 88.9959 92.0194 88.6749 92.0194 88.2232C92.0194 87.6841 92.4221 87.2861 93.0489 87.1793V89.1752L92.9345 89.1466V89.1461ZM93.8445 90.2151C94.5805 90.3996 94.9037 90.7056 94.9037 91.2253C94.9037 91.8518 94.4313 92.2692 93.6454 92.3326V90.1654L93.8445 90.2145V90.2151Z" fill="#650F27"/>
</svg>
