<svg width="302" height="172" viewBox="0 0 302 172" fill="none" xmlns="http://www.w3.org/2000/svg">
<circle cx="150.674" cy="-22.25" r="174.984" transform="rotate(95.9909 150.674 -22.25)" fill="#8B2542"/>
<mask id="mask0_1069_6747" style="mask-type:alpha" maskUnits="userSpaceOnUse" x="-25" y="-199" width="351" height="351">
<circle cx="150.671" cy="-23.3286" r="174.984" transform="rotate(83.1253 150.671 -23.3286)" fill="#8B2542"/>
</mask>
<g mask="url(#mask0_1069_6747)">
<path d="M215.187 40.0789C215.118 40.0768 215.05 40.0884 214.986 40.1133C214.922 40.1381 214.864 40.1755 214.815 40.2234L189.381 65.2133L180.342 65.0727C180.218 65.063 180.094 65.0991 179.994 65.1742L139.464 95.9821H125.573C125.437 95.9821 125.307 96.0359 125.211 96.1319C125.115 96.2278 125.061 96.3579 125.061 96.4936C125.061 96.6292 125.115 96.7593 125.211 96.8553C125.307 96.9512 125.437 97.0051 125.573 97.0051H139.636C139.76 97.0056 139.88 96.9612 139.973 96.8801L180.475 66.0957L189.581 66.2363C189.649 66.2377 189.716 66.2257 189.779 66.2009C189.842 66.1761 189.9 66.139 189.949 66.0918L215.402 41.1019L224.609 40.9028C224.694 40.901 224.777 40.8783 224.851 40.8368C224.924 40.7952 224.987 40.7361 225.032 40.6646L233.186 29.1888L234.771 30.2509L234.638 26.1549L230.796 27.5918L232.337 28.6226L224.331 39.9071L215.187 40.0789Z" fill="#CE5476"/>
<path fill-rule="evenodd" clip-rule="evenodd" d="M96.6614 152.638C96.6614 158.427 114.069 164.072 135.537 165.243C157.005 166.414 174.424 162.672 174.424 156.882C174.424 151.093 157.021 145.442 135.553 144.272C114.085 143.101 96.6614 146.843 96.6614 152.638Z" fill="#DBDBDB"/>
<path fill-rule="evenodd" clip-rule="evenodd" d="M162.097 121.157V145.389C164.267 146.522 166.493 147.556 168.774 148.489V121.157H162.097Z" fill="white"/>
<path fill-rule="evenodd" clip-rule="evenodd" d="M148.642 122.44C148.642 123.434 149.437 124.225 150.887 124.45L180.933 129.149C182.178 129.277 183.436 129.116 184.607 128.678C185.779 128.24 186.832 127.537 187.685 126.625C188.759 125.321 188.442 123.675 188.447 122.162C188.181 122.198 187.932 122.311 187.729 122.487C187.527 122.662 187.381 122.893 187.309 123.151C186.958 122.985 186.586 122.871 186.202 122.814L156.156 118.115C153.987 117.904 151.821 118.553 150.13 119.922C149.911 119.785 149.666 119.694 149.411 119.653C149.155 119.611 148.894 119.621 148.642 119.681V122.44Z" fill="#C7C7C7"/>
<path fill-rule="evenodd" clip-rule="evenodd" d="M181.514 126.486C183.447 126.786 186.208 125.61 187.658 123.867C189.108 122.124 188.732 120.451 186.783 120.152L155.523 115.26C153.595 114.961 150.829 116.137 149.384 117.88C147.934 119.622 148.31 121.296 150.254 121.595L181.514 126.486Z" fill="#DBDBDB"/>
<path fill-rule="evenodd" clip-rule="evenodd" d="M79.5175 86.9119C96.4221 124.246 104.874 142.912 104.874 142.908C107.066 143.768 109.414 144.16 111.768 144.056C114.121 143.953 116.426 143.358 118.533 142.31C134.879 121.091 135.839 95.7057 121.412 66.1545C102.275 68.2179 91.2748 69.3192 84.6308 73.152C78.8837 76.4504 75.9243 82.2772 79.5175 86.9119Z" fill="#C7C7C7"/>
<path fill-rule="evenodd" clip-rule="evenodd" d="M83.3577 83.7954L108.715 139.792C110.908 140.649 113.259 141.036 115.614 140.928C117.968 140.821 120.273 140.22 122.379 139.166C138.717 117.951 139.675 92.5678 125.252 63.0166C89.5846 66.8299 75.6198 73.7561 83.3577 83.7954Z" fill="#DBDBDB"/>
<path fill-rule="evenodd" clip-rule="evenodd" d="M179.021 161.02L174.569 149.714C173.786 147.294 172.159 145.232 169.982 143.902C167.806 142.571 165.223 142.059 162.7 142.458C160.178 142.857 157.881 144.141 156.226 146.077C154.571 148.013 153.666 150.475 153.675 153.017C152.333 157.454 151.532 159.949 151.274 160.501L158.606 168.402C165.716 166.875 172.585 164.392 179.021 161.02Z" fill="#070924"/>
<path d="M157.511 150.053L157.009 150.32L165.726 166.582L166.229 166.315L157.511 150.053Z" fill="#01020F"/>
<path fill-rule="evenodd" clip-rule="evenodd" d="M157.383 103.532C157.383 103.532 162.099 105.766 170.236 109.134C174.721 103.099 175.854 94.4227 172.384 87.7512C168.453 84.7576 162.351 80.3902 157.834 78.3695C155.509 77.3739 153.073 76.6561 150.578 76.2312C148.429 75.8035 146.281 75.579 144.358 75.3224C137.644 79.125 127.439 78.3624 113.743 73.0345L101.347 76.0334C94.819 85.0998 89.2545 95.85 84.6533 108.284L101.073 112.529C106.191 133.564 109.419 146.854 111.691 149.238C112.83 154.289 114.989 156.294 117.744 157.534C131.784 163.853 148.542 135.424 155.525 120.553C155.457 121.9 156.076 116.226 157.383 103.532Z" fill="#1E4C7A"/>
<path fill-rule="evenodd" clip-rule="evenodd" d="M144.47 75.1139C143.659 74.9215 142.784 74.713 141.973 74.5045C140.167 74.0844 138.447 73.3613 136.886 72.3662C133.568 73.387 130.013 73.3478 126.719 72.2539C125.89 71.988 125.082 71.661 124.302 71.2757L124.151 71.2008C122.948 70.6011 121.821 69.8598 120.794 68.9931C119.622 70.1073 118.238 70.9778 116.723 71.5537C115.742 71.921 114.782 72.344 113.85 72.8206C116.019 76.8279 118.966 80.3672 122.519 83.2338C126.072 86.1003 130.161 88.2371 134.55 89.5206C137.283 88.1376 139.623 86.0938 141.356 83.5767C143.09 81.0596 144.16 78.1498 144.47 75.1139Z" fill="white"/>
<path fill-rule="evenodd" clip-rule="evenodd" d="M116.722 71.559C118.39 75.0993 120.79 78.2495 123.764 80.8039C126.739 83.3582 130.222 85.2592 133.985 86.3827C136.214 85.2329 138.115 83.5411 139.511 81.4645C140.907 79.3879 141.754 76.9938 141.972 74.5045C139.923 72.7939 138.921 72.2843 138.964 72.9756C125.253 60.9834 119.017 57.5693 120.256 62.7332C120.919 66.8245 119.741 69.7664 116.722 71.559Z" fill="#FF9C72"/>
<path fill-rule="evenodd" clip-rule="evenodd" d="M141.537 76.9957C141.752 76.1788 141.897 75.3455 141.972 74.5045C141.328 73.9451 140.644 73.4324 139.926 72.9703C131.501 70.3082 125.521 67.2486 121.987 63.7917C126.727 75.3278 133.244 79.7291 141.537 76.9957Z" fill="#EE875A"/>
<path fill-rule="evenodd" clip-rule="evenodd" d="M144.255 49.7913C143.974 47.6483 143.179 45.604 141.938 43.8306C140.697 42.0571 139.046 40.6064 137.124 39.6006C135.202 38.5949 133.066 38.0636 130.894 38.0514C128.723 38.0392 126.58 38.5465 124.647 39.5306C122.714 40.5147 121.047 41.9468 119.786 43.7062C118.525 45.4656 117.707 47.5008 117.401 49.6405C117.096 51.7802 117.311 53.9616 118.03 56.001C118.748 58.0404 119.949 59.8782 121.53 61.3594C121.777 65.7055 125.338 70.6556 129.694 73.0505C133.309 75.0445 140.076 75.7555 141.161 70.5487C142.311 67.9774 144.115 65.1335 144.556 62.3377C144.813 60.6965 144.432 59.7343 144.228 58.4567C143.755 55.5753 144.883 53.127 144.255 49.7913Z" fill="#FF9C72"/>
<path fill-rule="evenodd" clip-rule="evenodd" d="M128.652 62.3591C129.467 62.5423 130.312 62.5414 131.127 62.3563C131.941 62.1713 132.703 61.8069 133.357 61.2899C132.657 61.4459 131.93 61.4398 131.232 61.272C130.534 61.1043 129.885 60.7793 129.333 60.3223C128.782 59.8652 128.343 59.2882 128.051 58.6358C127.758 57.9833 127.62 57.2728 127.648 56.559L123.195 56.0939C122.127 56.824 121.363 57.917 121.047 59.1677L124.887 59.3922C125.253 60.1345 125.781 60.7861 126.432 61.2994C127.084 61.8126 127.842 62.1747 128.652 62.3591Z" fill="#EE875A"/>
<path fill-rule="evenodd" clip-rule="evenodd" d="M126.95 46.3807C121.356 48.0165 117.876 49.6202 116.508 51.1919C116.37 53.3714 116.794 55.55 117.738 57.5212C118.69 57.4595 119.637 57.6872 120.456 58.1741C121.274 58.6611 121.924 59.3842 122.32 60.2475C122.368 57.0401 124.78 56.5803 124.538 53.0147C124.382 50.6306 123.431 48.4495 126.95 46.3807Z" fill="#1D1A19"/>
<path d="M139.62 51.4805C140.292 51.3664 140.978 51.3664 141.65 51.4805C142.325 51.598 142.974 51.8313 143.568 52.1701C143.676 52.2288 143.803 52.2441 143.922 52.2128C144.041 52.1793 144.141 52.1005 144.202 51.9936C144.232 51.9417 144.252 51.884 144.259 51.8243C144.266 51.7646 144.261 51.704 144.245 51.6462C144.212 51.5277 144.135 51.4262 144.03 51.3628C143.341 50.9741 142.591 50.7047 141.811 50.5663C141.423 50.5002 141.029 50.4663 140.635 50.4648C140.241 50.4685 139.847 50.5043 139.459 50.5717C139.337 50.5926 139.229 50.6606 139.158 50.7607C139.086 50.8609 139.057 50.9851 139.078 51.1063C139.103 51.2264 139.172 51.333 139.271 51.4056C139.373 51.474 139.498 51.5008 139.62 51.4805Z" fill="#362319"/>
<path d="M127.776 52.8062C127.81 52.8562 127.854 52.8989 127.905 52.9319C127.956 52.9649 128.014 52.9875 128.074 52.9985C128.133 53.0094 128.195 53.0084 128.254 52.9956C128.314 52.9828 128.37 52.9584 128.42 52.9238C128.889 52.5959 129.389 52.3148 129.914 52.0845C130.431 51.8526 130.971 51.6735 131.525 51.55C132.082 51.4212 132.65 51.3478 133.222 51.3308C133.796 51.3122 134.369 51.3499 134.935 51.4431C135.057 51.4594 135.18 51.4288 135.279 51.3575C135.375 51.2838 135.44 51.1771 135.462 51.0582C135.479 50.939 135.448 50.8179 135.376 50.7214C135.304 50.6225 135.196 50.5554 135.075 50.5343C134.45 50.4322 133.817 50.391 133.185 50.4113C131.916 50.4515 130.667 50.7347 129.505 51.2453C128.927 51.5027 128.375 51.8141 127.856 52.1754C127.757 52.2464 127.689 52.3533 127.668 52.4732C127.647 52.5932 127.674 52.7166 127.744 52.8169L127.776 52.8062Z" fill="#362319"/>
<path fill-rule="evenodd" clip-rule="evenodd" d="M143.105 56.5964C143.075 56.4466 142.988 56.3142 142.861 56.2274C142.735 56.1406 142.58 56.1061 142.428 56.1313C142.353 56.145 142.282 56.1733 142.218 56.2145C142.153 56.2558 142.098 56.3092 142.055 56.3718C142.011 56.4343 141.981 56.5048 141.965 56.5791C141.949 56.6534 141.947 56.7301 141.961 56.8049C141.975 56.8796 142.003 56.951 142.045 57.0148C142.086 57.0786 142.14 57.1337 142.203 57.1769C142.266 57.2201 142.336 57.2505 142.411 57.2665C142.486 57.2825 142.563 57.2836 142.638 57.27C142.788 57.2401 142.921 57.1531 143.009 57.0274C143.096 56.9016 143.13 56.7471 143.105 56.5964Z" fill="black"/>
<path fill-rule="evenodd" clip-rule="evenodd" d="M133.233 56.5964C133.209 56.4674 133.148 56.3481 133.057 56.2537C132.965 56.1594 132.848 56.0941 132.719 56.0662C132.59 56.0383 132.456 56.049 132.333 56.097C132.211 56.145 132.105 56.2281 132.03 56.3358C131.955 56.4435 131.914 56.5709 131.911 56.702C131.909 56.8331 131.946 56.962 132.017 57.0723C132.088 57.1826 132.191 57.2694 132.311 57.3217C132.432 57.374 132.566 57.3895 132.696 57.3662C132.869 57.3337 133.022 57.2347 133.122 57.0907C133.223 56.9467 133.262 56.7692 133.233 56.5964Z" fill="black"/>
<path fill-rule="evenodd" clip-rule="evenodd" d="M143.809 55.9977C143.985 55.9633 144.148 55.8778 144.276 55.7518C144.403 55.6258 144.491 55.465 144.528 55.2896C144.564 55.1143 144.547 54.9321 144.48 54.766C144.413 54.5999 144.298 54.4573 144.149 54.3561C144.001 54.2549 143.826 54.1996 143.646 54.1971C143.466 54.1947 143.289 54.2452 143.138 54.3423C142.987 54.4395 142.868 54.5789 142.796 54.7431C142.724 54.9073 142.703 55.089 142.734 55.2653C142.755 55.3844 142.799 55.4982 142.865 55.5999C142.93 55.7016 143.016 55.7892 143.116 55.8574C143.216 55.9257 143.329 55.9733 143.448 55.9974C143.567 56.0215 143.69 56.0216 143.809 55.9977Z" fill="white"/>
<path fill-rule="evenodd" clip-rule="evenodd" d="M134.013 55.9282C134.19 55.8938 134.352 55.8082 134.48 55.6823C134.608 55.5563 134.695 55.3955 134.732 55.2201C134.768 55.0447 134.752 54.8626 134.684 54.6965C134.617 54.5304 134.502 54.3878 134.354 54.2866C134.205 54.1853 134.03 54.13 133.85 54.1276C133.67 54.1252 133.494 54.1757 133.342 54.2728C133.191 54.37 133.072 54.5094 133 54.6736C132.929 54.8378 132.907 55.0195 132.939 55.1958C132.959 55.3149 133.004 55.4286 133.069 55.5303C133.135 55.6321 133.22 55.7196 133.32 55.7879C133.42 55.8562 133.533 55.9038 133.652 55.9279C133.771 55.952 133.894 55.9521 134.013 55.9282Z" fill="white"/>
<path d="M140.221 65.8231C140.297 65.7588 140.348 65.67 140.364 65.5723C140.381 65.4746 140.363 65.3741 140.312 65.2885C140.288 65.2471 140.255 65.2114 140.216 65.1836C140.177 65.1559 140.132 65.1369 140.084 65.1278C140.037 65.1187 139.988 65.1197 139.942 65.1308C139.895 65.142 139.851 65.1629 139.813 65.1923C138.834 65.9574 137.599 66.3242 136.359 66.2186C135.113 66.1009 133.954 65.5299 133.104 64.6149C133.073 64.5788 133.034 64.5497 132.991 64.5298C132.947 64.5099 132.9 64.4997 132.852 64.4997C132.804 64.4997 132.757 64.5099 132.713 64.5298C132.669 64.5497 132.631 64.5788 132.599 64.6149C132.538 64.6904 132.504 64.7848 132.504 64.8822C132.504 64.9796 132.538 65.0741 132.599 65.1495C133.559 66.1948 134.874 66.8498 136.289 66.9884C137.701 67.1098 139.106 66.6933 140.221 65.8231Z" fill="#E88358"/>
<path fill-rule="evenodd" clip-rule="evenodd" d="M122.743 47.7492C119.575 48.9146 117.496 50.0657 116.508 51.2025C116.37 53.3821 116.793 55.5607 117.738 57.5319C118.42 57.4855 119.104 57.5895 119.741 57.8366C119.662 57.5408 119.592 57.2414 119.532 56.9385C119.225 55.2611 119.359 53.5333 119.922 51.923C120.485 50.3127 121.457 48.8748 122.743 47.7492Z" fill="#0F0906"/>
<path fill-rule="evenodd" clip-rule="evenodd" d="M119.424 51.5234C123.555 50.064 126.519 45.2582 131.369 44.467C135.016 43.8683 136.074 46.8191 140.833 43.478C142.359 44.8786 143.304 46.2364 144.255 49.7913C144.469 48.5084 144.792 47.7386 144.851 46.8031C146.892 49.0483 147.509 45.6217 146.204 43.7453C145.904 43.3156 145.521 42.9494 145.077 42.6677C144.634 42.386 144.139 42.1945 143.621 42.1042C144.328 40.3574 144.313 38.4034 143.58 36.6674C142.847 34.9314 141.454 33.5539 139.705 32.8347C137.697 32.4284 137.249 33.1751 138.363 35.0746C135.503 33.743 132.329 33.2231 129.191 33.5721C126.053 33.9211 123.073 35.1254 120.579 37.0525C118.867 38.2392 118.998 39.3084 120.971 40.2599C115.46 42.6976 113.387 53.6616 119.424 51.5234Z" fill="#0F0906"/>
<path d="M138.228 57.7457C138.403 58.6957 138.903 59.556 139.644 60.1801C140.384 60.8042 141.319 61.1536 142.289 61.1686C143.26 61.1836 144.205 60.8634 144.965 60.2625C145.724 59.6617 146.251 58.8173 146.456 57.8732C146.66 56.9291 146.529 55.9437 146.085 55.0848C145.641 54.226 144.912 53.5468 144.022 53.163C143.132 52.7791 142.135 52.7144 141.202 52.9798C140.269 53.2452 139.457 53.8243 138.905 54.6185L138.755 54.8537C138.348 54.5745 137.868 54.4203 137.374 54.41C136.83 54.3972 136.295 54.5583 135.849 54.8697C135.394 54.0233 134.681 53.3428 133.812 52.9266C132.943 52.5105 131.963 52.3804 131.015 52.555C130.427 52.6612 129.865 52.8822 129.363 53.2051C128.86 53.528 128.427 53.9466 128.088 54.4367C127.727 54.9515 127.48 55.5362 127.363 56.1527L118.092 55.3294C118.044 55.3242 117.995 55.3313 117.95 55.35C117.905 55.3687 117.865 55.3984 117.835 55.4363L114.381 59.6488C114.356 59.6786 114.338 59.713 114.326 59.75C114.315 59.7869 114.311 59.8258 114.315 59.8642C114.319 59.9027 114.33 59.9401 114.348 59.9742C114.366 60.0083 114.391 60.0385 114.421 60.0631C114.451 60.0876 114.486 60.1061 114.523 60.1174C114.56 60.1287 114.599 60.1326 114.638 60.1288C114.676 60.1251 114.714 60.1138 114.748 60.0957C114.782 60.0775 114.813 60.0528 114.837 60.023L118.194 55.9282L127.288 56.7354C127.268 57.093 127.289 57.4518 127.352 57.8045C127.449 58.3974 127.664 58.9651 127.984 59.4745C128.304 59.9839 128.723 60.4249 129.216 60.7717C129.708 61.1185 130.266 61.3642 130.855 61.4945C131.444 61.6249 132.054 61.6372 132.648 61.5308C133.242 61.4244 133.809 61.2014 134.315 60.8748C134.822 60.5482 135.258 60.1245 135.598 59.6284C135.939 59.1324 136.177 58.5738 136.298 57.9854C136.42 57.3969 136.422 56.7903 136.306 56.2008C136.256 55.9351 136.184 55.674 136.091 55.4203C136.428 55.1521 136.846 55.0034 137.278 54.9976C137.709 54.9918 138.131 55.1292 138.476 55.3882C138.164 56.1333 138.078 56.9527 138.228 57.7457ZM139.394 54.9552C139.868 54.2702 140.566 53.7702 141.37 53.5404C142.173 53.3107 143.031 53.3655 143.798 53.6955C144.566 54.0255 145.194 54.6103 145.576 55.3499C145.958 56.0896 146.071 56.9384 145.894 57.7515C145.718 58.5645 145.264 59.2915 144.609 59.8082C143.954 60.3249 143.139 60.5994 142.303 60.5848C141.468 60.5703 140.663 60.2675 140.027 59.7283C139.39 59.1891 138.962 58.4468 138.814 57.6281C138.645 56.6959 138.854 55.735 139.394 54.9552ZM135.097 59.2318C134.651 59.8705 134.025 60.3636 133.298 60.6488C132.571 60.9341 131.775 60.9987 131.012 60.8346C130.248 60.6706 129.55 60.2851 129.005 59.7269C128.461 59.1686 128.095 58.4625 127.954 57.6976C127.838 57.0613 127.882 56.4064 128.081 55.7909C128.28 55.1754 128.629 54.6183 129.096 54.1688C129.563 53.7193 130.134 53.3913 130.759 53.2138C131.383 53.0363 132.042 53.0148 132.677 53.1512C133.312 53.2876 133.904 53.5777 134.4 53.9958C134.895 54.4139 135.28 54.9471 135.519 55.5483C135.758 56.1495 135.845 56.8001 135.771 57.4426C135.698 58.0851 135.466 58.6996 135.097 59.2318Z" fill="white"/>
<path fill-rule="evenodd" clip-rule="evenodd" d="M120.751 62.5729C122.4 61.8459 122.867 59.4991 121.825 57.3394C120.783 55.1797 118.554 54.0197 116.905 54.7467C115.256 55.4738 114.789 57.8259 115.831 59.9855C116.873 62.1452 119.102 63.3052 120.751 62.5729Z" fill="#FFA984"/>
<path fill-rule="evenodd" clip-rule="evenodd" d="M119.765 61.4739C120.791 61.0195 121.086 59.5548 120.42 58.2077C119.754 56.8606 118.379 56.1389 117.353 56.604C116.327 57.0691 116.032 58.5231 116.698 59.8702C117.364 61.2173 118.734 61.9337 119.765 61.4739Z" fill="#EE865A"/>
<path fill-rule="evenodd" clip-rule="evenodd" d="M119.999 59.9855C120.627 59.7075 120.805 58.8148 120.397 57.9969C119.988 57.179 119.161 56.7353 118.533 57.0133C117.904 57.2913 117.727 58.1786 118.135 59.0019C118.543 59.8251 119.376 60.2635 119.999 59.9855Z" fill="#DF6D3C"/>
<path fill-rule="evenodd" clip-rule="evenodd" d="M135.913 62.5194C136.295 62.3002 136.988 62.3697 138.013 62.7332C140.081 62.9043 140.774 62.2949 140.763 61.354C140.763 60.2849 138.701 56.7032 137.895 55.7731C137.423 55.2385 136.961 55.1156 136.681 56.3077C136.681 56.3077 136.443 57.4695 135.967 59.7931C135.751 59.7149 135.519 59.6891 135.291 59.7178C135.063 59.7466 134.846 59.8291 134.656 59.9585C134.466 60.0879 134.311 60.2604 134.202 60.4618C134.092 60.6631 134.033 60.8875 134.029 61.1162C134.024 61.3449 134.074 61.5714 134.176 61.7769C134.277 61.9823 134.426 62.1608 134.61 62.2975C134.794 62.4342 135.009 62.5251 135.235 62.5628C135.462 62.6005 135.694 62.5838 135.913 62.5141V62.5194Z" fill="#F38D60"/>
<path fill-rule="evenodd" clip-rule="evenodd" d="M119.425 51.5232C121.783 50.6893 123.765 48.7648 125.93 47.1184C124.847 44.8719 124.658 42.3012 125.4 39.9218C126.142 37.5424 127.761 35.5301 129.931 34.2886C130.501 33.9575 131.102 33.6818 131.725 33.4654C127.704 33.3223 123.76 34.5879 120.58 37.0417C118.869 38.2284 118.999 39.2976 120.972 40.2491C115.462 42.6974 113.388 53.6615 119.425 51.5232Z" fill="#0F0906"/>
<path fill-rule="evenodd" clip-rule="evenodd" d="M140.297 40.741C140.481 41.7429 140.508 42.7672 140.377 43.7773C140.528 43.6811 140.678 43.5796 140.834 43.4673C142.359 44.8679 143.305 46.2257 144.255 49.7806C144.47 48.4976 144.792 47.7278 144.852 46.7923C146.893 49.0375 147.51 45.6109 146.205 43.7346C145.905 43.3049 145.522 42.9386 145.078 42.657C144.635 42.3753 144.14 42.1838 143.622 42.0934C144.329 40.3467 144.314 38.3927 143.581 36.6566C142.847 34.9206 141.455 33.5431 139.706 32.824C137.697 32.4177 137.25 33.1643 138.363 35.0638C137.509 34.6673 136.623 34.3401 135.715 34.0856C136.908 34.8098 137.933 35.7774 138.723 36.9245C139.513 38.0717 140.049 39.3724 140.297 40.741Z" fill="#1D1A19"/>
<path d="M161.045 84.1962C161.15 88.2326 160.273 92.2344 158.488 95.8606C158.13 97.1079 157.833 99.3104 157.597 102.468L169.273 107.653C170.423 105.653 171.342 103.53 172.013 101.324C167.2 98.2982 163.544 92.589 161.045 84.1962Z" fill="#153A5B"/>
<path d="M140.995 128.614C150.359 124.744 155.372 120.88 156.034 117.024C156.625 111.465 157.109 106.787 157.447 103.591L158.478 95.8607C160.68 91.6803 161.3 87.4857 160.337 83.2769C160.642 82.9605 161.016 82.7187 161.431 82.5704C161.846 82.422 162.289 82.3711 162.727 82.4216C165.267 82.7263 167.937 92.4448 173.952 96.9887C173.92 92.9615 173.431 89.8076 172.486 87.5267C168.615 84.5212 164.544 81.7815 160.299 79.3264C157.331 77.5944 153.524 76.388 148.88 75.7073C134.061 88.644 167.625 108.097 140.995 128.614Z" fill="#265E96"/>
<path d="M114.236 85.1639C114.145 86.8211 114.048 88.4248 113.962 89.9751C114.26 88.3896 114.352 86.7727 114.236 85.1639Z" fill="#220D82"/>
<path d="M103.102 108.985C102.479 109.027 102.114 109.573 102.028 110.588C102.028 110.588 103.77 117.88 107.254 132.463L111.513 133.131C111.513 133.131 112.335 118.735 113.989 89.9697C113.649 91.7531 113.087 93.4876 112.319 95.1337C108.308 104.015 106.303 108.455 106.303 108.455C105.836 108.76 104.778 108.931 103.102 108.985Z" fill="#153A5B"/>
<path d="M108.414 77.6692C98.3876 81.1439 93.5143 89.7238 93.7936 103.409C95.8229 105.064 98.2147 106.221 100.776 106.787C110.584 101.116 103.542 93.9576 104.901 87.8635C105.846 83.5067 110.127 83.9664 108.414 77.6692Z" fill="#153A5B"/>
<path fill-rule="evenodd" clip-rule="evenodd" d="M146.014 169.67H146.122H146.336H146.589C148.082 169.577 149.573 169.443 151.063 169.269C156.939 164.543 159.028 156.236 159.351 147.576C165.538 151.89 189.358 157.903 198.989 160.362C203.566 157.256 199.01 150.373 202.857 146.406L165.35 121.558C152.153 107.157 141.347 127.631 135.272 136.339C127.167 142.305 116.414 161.031 111.951 148.538C111.897 158.492 115.018 163.848 120.281 166.959C122.183 167.473 124.1 167.916 126.034 168.291H126.071C128.256 168.711 130.454 169.043 132.667 169.285C137.098 169.774 141.562 169.903 146.014 169.67Z" fill="#12153D"/>
<path d="M147.816 113.646C149.635 111.002 151.144 106.967 152.344 101.543C152.36 101.47 152.346 101.393 152.306 101.329C152.266 101.265 152.202 101.219 152.129 101.201C152.054 101.185 151.976 101.199 151.912 101.24C151.847 101.281 151.802 101.346 151.785 101.42C150.603 106.766 149.123 110.734 147.343 113.325C145.606 115.848 143.591 117.033 141.295 116.88C141.22 116.875 141.145 116.9 141.088 116.95C141.032 116.999 140.997 117.07 140.992 117.145C140.987 117.22 141.012 117.294 141.062 117.351C141.112 117.407 141.182 117.442 141.258 117.447C143.771 117.628 145.957 116.362 147.816 113.646Z" fill="#0A1C32"/>
<path fill-rule="evenodd" clip-rule="evenodd" d="M103.928 161.073C106.077 162.207 108.301 163.24 110.599 164.174V136.841H103.928V161.073Z" fill="#BBBBBB"/>
<path fill-rule="evenodd" clip-rule="evenodd" d="M90.4417 138.124C90.4417 139.118 91.2366 139.909 92.6921 140.134L122.738 144.833C123.982 144.962 125.239 144.802 126.41 144.364C127.581 143.926 128.633 143.223 129.484 142.31C130.558 141.005 130.241 139.359 130.252 137.846C129.985 137.883 129.735 137.996 129.533 138.173C129.33 138.35 129.184 138.582 129.113 138.84C128.764 138.671 128.391 138.558 128.007 138.504L97.9611 133.799C95.7891 133.588 93.6211 134.239 91.9294 135.612C91.7109 135.473 91.4664 135.38 91.2108 135.337C90.9551 135.295 90.6935 135.305 90.4417 135.366V138.124Z" fill="#C7C7C7"/>
<path fill-rule="evenodd" clip-rule="evenodd" d="M91.2105 133.564C89.7603 135.307 90.1363 136.98 92.086 137.279L123.346 142.171C125.274 142.47 128.04 141.294 129.485 139.551C130.935 137.809 130.559 136.135 128.615 135.836L97.355 130.945C95.4214 130.645 92.6607 131.821 91.2105 133.564Z" fill="#DBDBDB"/>
<path fill-rule="evenodd" clip-rule="evenodd" d="M212.398 116.242C212.723 115.443 212.973 114.616 213.145 113.772C213.575 112.778 214.042 111.762 214.386 110.736C214.495 110.207 214.648 109.689 214.842 109.185L215.379 107.876L215.519 107.309C215.618 106.915 215.764 106.535 215.954 106.176L216.153 105.775C216.396 105.336 216.665 104.911 216.958 104.503L217.495 103.685L173.845 102.129L195.205 146.99L203.203 161.325C204.216 160.391 198.079 146.732 199.046 145.745C198.546 144.469 197.954 143.231 197.273 142.04C197.3 142.017 197.325 141.992 197.349 141.965L197.472 141.842L198.117 141.201C198.335 140.809 198.608 140.449 198.928 140.132L200.383 138.683L200.63 138.453C200.781 138.277 200.947 138.122 201.108 137.961L201.35 137.732C201.452 137.619 201.559 137.507 201.667 137.406L201.994 137.079C202.376 136.503 202.779 135.941 203.203 135.396C203.444 134.98 203.742 134.6 204.089 134.268L204.164 134.198C204.423 133.621 204.787 133.097 205.239 132.653L205.384 132.509C205.489 132.273 205.613 132.046 205.754 131.83C205.947 131.316 206.221 130.836 206.565 130.408C206.817 129.81 207.182 129.266 207.639 128.804L207.865 128.505C207.994 128.239 208.147 127.985 208.322 127.746C208.401 127.491 208.5 127.243 208.617 127.003L208.724 126.591C209.035 125.815 209.339 125.036 209.638 124.255L209.675 124.175L210.046 123.074C210.144 122.789 210.265 122.512 210.406 122.245L211.013 120.422L211.26 119.695C211.405 119.267 212.114 118.091 211.861 118.476L211.775 118.594C211.872 118.118 211.995 117.653 212.119 117.183L212.398 116.242Z" fill="#6B1531"/>
<path fill-rule="evenodd" clip-rule="evenodd" d="M175.557 98.2342L203.341 160.844C216.053 148.245 262.012 127.061 264.268 109.348L175.557 98.2342Z" fill="#7D1B37"/>
<path fill-rule="evenodd" clip-rule="evenodd" d="M204.47 82.2453C204.507 82.2759 204.507 82.2759 204.47 82.2453V82.2453Z" fill="white"/>
<path fill-rule="evenodd" clip-rule="evenodd" d="M205.039 81.7427L210.411 80.3314C210.948 80.1441 211.426 79.8183 211.796 79.3873C212.166 78.9563 212.414 78.4354 212.516 77.8777L216.351 53.6242C216.368 53.5252 216.377 53.4252 216.378 53.3248C216.506 53.2863 216.62 53.2081 216.701 53.1014C216.782 52.9948 216.827 52.8652 216.829 52.7315L215.851 52.1969C215.704 52.1155 215.541 52.0649 215.373 52.0484C215.205 52.0318 215.035 52.0496 214.874 52.1007L209.503 53.5066C208.965 53.6965 208.487 54.0236 208.117 54.4552C207.747 54.8867 207.497 55.4076 207.392 55.9656L203.562 80.2192C203.518 80.4167 203.513 80.621 203.549 80.8202C203.585 81.0195 203.661 81.2095 203.772 81.3792C203.783 81.3979 203.796 81.4157 203.809 81.4326L204.449 82.2399C204.505 82.1802 204.547 82.1092 204.573 82.0317C204.599 81.9542 204.608 81.872 204.599 81.7908C204.747 81.7978 204.896 81.7816 205.039 81.7427Z" fill="white"/>
<path fill-rule="evenodd" clip-rule="evenodd" d="M205.431 82.5017L211.635 80.898C212.048 80.7502 212.415 80.4963 212.698 80.1621C212.981 79.8279 213.17 79.4253 213.246 78.9949L217.226 53.87C217.36 53.02 216.845 52.4962 216.082 52.6939L209.878 54.2977C209.466 54.4445 209.099 54.6974 208.816 55.0307C208.533 55.364 208.344 55.7658 208.267 56.1954L204.287 81.3524C204.153 82.1756 204.668 82.7048 205.431 82.5017Z" fill="#30324F"/>
<path fill-rule="evenodd" clip-rule="evenodd" d="M180.025 112.459C182.711 113.437 185.472 113.983 188.055 113.357C189.198 113.078 190.297 112.643 191.321 112.064C196.595 109.14 205.092 98.4855 208.68 93.514C208.68 93.514 210.433 91.5129 213.938 87.5107C214.511 87.1206 214.976 86.5925 215.288 85.9756C215.601 85.3587 215.752 84.6731 215.727 83.9825C216.26 83.5324 216.66 82.9461 216.883 82.2868C217.106 81.6275 217.145 80.92 216.994 80.2405C217.445 79.8761 217.74 79.356 217.822 78.7841C217.903 78.2123 217.765 77.6309 217.435 77.156L215.926 75.5256L214.314 69.4903L210.887 65.9033C210.714 65.7344 210.486 65.6319 210.244 65.6138C210.002 65.5957 209.761 65.6632 209.564 65.8043C209.367 65.9455 209.227 66.1513 209.167 66.3855C209.107 66.6197 209.133 66.8673 209.239 67.0847C209.239 67.0847 209.969 68.0737 211.441 70.0462L212.826 74.1143L205.753 73.0452C205.523 73.0426 205.299 73.1187 205.118 73.2609C204.938 73.4031 204.812 73.6026 204.761 73.8262C204.711 74.0497 204.739 74.2837 204.842 74.4889C204.944 74.6942 205.114 74.8582 205.323 74.9536L211.833 76.8727L213.358 78.5727L211.634 77.5944L203.04 76.9155C202.759 76.9167 202.489 77.0217 202.281 77.2103C202.074 77.3989 201.944 77.6575 201.917 77.936C201.89 78.2144 201.968 78.4929 202.136 78.7172C202.304 78.9416 202.55 79.0958 202.826 79.15L208.798 80.3421L212.3 82.4216L210.066 81.7106L205.371 81.2776L202.294 81.1226C202.05 81.1685 201.828 81.2928 201.662 81.4762C201.497 81.6597 201.396 81.8923 201.375 82.1383C201.357 82.3839 201.418 82.629 201.551 82.837C201.683 83.0451 201.88 83.205 202.111 83.2929L203.54 83.6458C203.272 84.3081 202.965 84.9543 202.621 85.5809L187.008 96.0852C186.9 96.2848 182.057 93.4338 172.479 87.5321C173.694 90.9128 174.172 94.512 173.882 98.0908C173.592 101.67 172.541 105.146 170.798 108.29C173.766 109.904 176.85 111.298 180.025 112.459Z" fill="#FF9C72"/>
<path fill-rule="evenodd" clip-rule="evenodd" d="M209.239 59.1356C209.409 59.0749 209.56 58.9709 209.677 58.8339C209.794 58.6969 209.872 58.5318 209.905 58.3551L210.27 56.0457C210.324 55.7036 210.115 55.4844 209.803 55.5646C209.633 55.6253 209.482 55.7293 209.365 55.8663C209.248 56.0032 209.17 56.1684 209.137 56.3451L208.772 58.6545C208.718 58.9966 208.928 59.2157 209.239 59.1356Z" fill="white"/>
<path fill-rule="evenodd" clip-rule="evenodd" d="M105.615 81.6197C106.389 82.2238 106.937 81.9725 107.334 81.3952C108.349 79.9251 109.316 76.4076 107.012 75.4614C107.122 74.8835 107.024 74.2854 106.736 73.7721C106.447 73.2588 105.986 72.8633 105.433 72.6549C105.571 72.3064 105.629 71.9314 105.601 71.5578C105.574 71.1841 105.463 70.8213 105.276 70.4963C105.088 70.1713 104.83 69.8924 104.52 69.6803C104.209 69.4682 103.855 69.3283 103.483 69.2711C103.469 68.8587 103.366 68.4543 103.18 68.0853C102.995 67.7163 102.732 67.3914 102.409 67.1328C100.916 65.9193 95.6037 66.4004 94.0783 67.3252C92.9451 68.0041 92.0481 69.1855 91.323 71.2009C89.0278 71.6713 88.3438 75.1995 89.2712 81.7854C84.7112 92.851 78.1263 103.494 74.1033 114.261C71.5252 121.162 71.0955 128.405 76.9715 133.618C79.1521 135.335 81.4474 135.38 83.8572 133.751C85.7944 133.21 87.5857 132.246 89.1004 130.928C90.6151 129.61 91.8148 127.972 92.612 126.134C96.5766 120.774 99.9816 115.026 102.774 108.979C99.5085 108.861 96.8176 107.995 94.3576 105.847C95.5339 99.3996 97.1936 92.3753 97.6823 89.9644C102.205 86.5573 104.849 83.7758 105.615 81.6197Z" fill="#FF9C72"/>
<path d="M105.545 81.9348C105.619 81.9527 105.697 81.9408 105.762 81.9018C105.827 81.8628 105.875 81.7998 105.894 81.7263C106.227 80.4189 106.366 79.07 106.307 77.7224C106.303 77.6468 106.269 77.5758 106.213 77.5248C106.157 77.4738 106.083 77.4468 106.006 77.4497C105.969 77.4518 105.932 77.4612 105.899 77.4773C105.865 77.4935 105.835 77.5161 105.81 77.544C105.785 77.5718 105.766 77.6042 105.753 77.6394C105.741 77.6746 105.736 77.7119 105.738 77.7491C105.791 79.0409 105.657 80.3335 105.34 81.5874C105.331 81.6235 105.328 81.6612 105.333 81.6983C105.338 81.7354 105.351 81.7711 105.37 81.8034C105.389 81.8357 105.414 81.864 105.444 81.8865C105.474 81.9091 105.508 81.9255 105.545 81.9348Z" fill="#E88358"/>
<path d="M94.1108 105.857L92.29 115.255C92.2793 115.295 92.2793 115.337 92.29 115.378C92.6982 117.586 92.5524 119.861 91.8656 122C91.1789 124.139 89.9723 126.077 88.353 127.641C88.3266 127.667 88.3056 127.698 88.2912 127.733C88.2769 127.767 88.2695 127.804 88.2695 127.841C88.2695 127.878 88.2769 127.915 88.2912 127.95C88.3056 127.984 88.3266 128.015 88.353 128.042C88.3795 128.068 88.4109 128.089 88.4454 128.103C88.48 128.117 88.517 128.125 88.5544 128.125C88.5919 128.125 88.6289 128.117 88.6635 128.103C88.698 128.089 88.7294 128.068 88.7559 128.042C90.4382 126.418 91.6931 124.407 92.4097 122.186C93.1262 119.965 93.2825 117.603 92.8647 115.308L94.6587 106.065C94.7338 105.558 94.2129 105.403 94.1108 105.857Z" fill="#E88358"/>
<path d="M99.2931 69.6022H103.483C103.52 69.6029 103.557 69.5961 103.592 69.5821C103.627 69.5681 103.659 69.5473 103.685 69.5208C103.712 69.4944 103.733 69.4629 103.747 69.4282C103.761 69.3935 103.768 69.3563 103.767 69.3189C103.767 69.2437 103.737 69.1717 103.684 69.1185C103.63 69.0654 103.558 69.0355 103.483 69.0355H99.2985C98.9042 69.0139 98.5113 69.097 98.1598 69.2761C98.0104 69.3595 97.8832 69.4773 97.7889 69.6196C97.6945 69.7618 97.6357 69.9245 97.6173 70.094C97.6121 70.1306 97.6142 70.1678 97.6235 70.2035C97.6328 70.2393 97.6492 70.2728 97.6717 70.3022C97.6942 70.3315 97.7224 70.3561 97.7545 70.3745C97.7867 70.393 97.8222 70.4048 97.859 70.4094C97.9284 70.4119 97.9964 70.3895 98.0506 70.3463C98.1048 70.3032 98.1416 70.2421 98.1545 70.1742C98.1684 70.091 98.202 70.0123 98.2524 69.9444C98.3028 69.8766 98.3686 69.8216 98.4445 69.7839C98.7086 69.6576 99.0007 69.6006 99.2931 69.6182V69.6022Z" fill="#E88358"/>
<path d="M105.519 72.5638C105.518 72.5263 105.509 72.4895 105.493 72.4556C105.477 72.4216 105.454 72.3913 105.426 72.3663C105.398 72.3413 105.365 72.3223 105.329 72.3103C105.294 72.2983 105.256 72.2936 105.218 72.2965L101.518 72.505C101.261 72.5206 101.013 72.6036 100.798 72.7455C100.637 72.8598 100.504 73.0076 100.406 73.1785C100.366 73.2423 100.353 73.3193 100.37 73.3925C100.388 73.4657 100.433 73.5291 100.497 73.5688C100.561 73.6085 100.639 73.6212 100.712 73.6042C100.749 73.5957 100.783 73.5802 100.813 73.5586C100.844 73.5369 100.87 73.5095 100.889 73.4779C100.954 73.3553 101.051 73.253 101.171 73.1822C101.29 73.1114 101.427 73.075 101.566 73.077L105.256 72.8685C105.293 72.8658 105.33 72.8557 105.364 72.8389C105.397 72.8221 105.427 72.7989 105.451 72.7706C105.476 72.7423 105.494 72.7094 105.506 72.6739C105.518 72.6384 105.522 72.601 105.519 72.5638Z" fill="#E88358"/>
<path d="M104.289 75.3222C103.925 75.3535 103.57 75.4513 103.241 75.6109C102.955 75.7423 102.727 75.9746 102.602 76.263C102.589 76.2981 102.583 76.3355 102.584 76.373C102.585 76.4106 102.593 76.4475 102.609 76.4818C102.624 76.516 102.646 76.5469 102.674 76.5727C102.701 76.5984 102.733 76.6185 102.769 76.6319C102.804 76.6452 102.842 76.6515 102.879 76.6504C102.917 76.6493 102.954 76.6408 102.989 76.6254C103.023 76.61 103.054 76.588 103.08 76.5607C103.106 76.5334 103.126 76.5013 103.139 76.4662C103.217 76.3087 103.348 76.1837 103.51 76.1133C103.774 75.9867 104.06 75.9105 104.353 75.8888L106.947 75.6964C107.022 75.6909 107.091 75.6564 107.141 75.6004C107.19 75.5444 107.215 75.4713 107.211 75.397C107.205 75.3214 107.17 75.2509 107.113 75.2009C107.055 75.1509 106.981 75.1253 106.904 75.1297L104.289 75.3222Z" fill="#E88358"/>
<path d="M91.0536 71.1525L90.0975 73.788C90.0849 73.8234 90.0794 73.861 90.0815 73.8985C90.0836 73.9361 90.0931 73.9729 90.1096 74.0067C90.1261 74.0405 90.1492 74.0708 90.1776 74.0956C90.2059 74.1205 90.239 74.1395 90.2748 74.1515C90.3097 74.1641 90.3468 74.1698 90.3838 74.168C90.4209 74.1662 90.4573 74.1571 90.4908 74.1412C90.5243 74.1252 90.5543 74.1028 90.579 74.0752C90.6037 74.0476 90.6226 74.0154 90.6347 73.9804L91.58 71.3396C91.5928 71.3045 91.5985 71.2673 91.5967 71.23C91.595 71.1927 91.5859 71.1561 91.5699 71.1223C91.554 71.0885 91.5315 71.0582 91.5037 71.0331C91.4759 71.0081 91.4434 70.9887 91.4081 70.9761C91.3375 70.9553 91.2617 70.9619 91.1958 70.9947C91.13 71.0274 91.0792 71.0839 91.0536 71.1525Z" fill="#E88358"/>
<path d="M103.789 112.372C103.763 112.399 103.742 112.43 103.728 112.464C103.713 112.499 103.706 112.536 103.706 112.573C103.706 112.61 103.713 112.647 103.728 112.681C103.742 112.716 103.763 112.747 103.789 112.773C111.513 120.257 118.445 125.013 124.586 127.041C130.727 129.069 136.123 128.34 140.774 124.855C140.81 124.834 140.842 124.807 140.866 124.773C140.89 124.74 140.907 124.702 140.915 124.661C140.924 124.621 140.923 124.579 140.914 124.539C140.904 124.499 140.887 124.461 140.862 124.428C140.836 124.396 140.804 124.369 140.768 124.349C140.731 124.33 140.691 124.318 140.65 124.316C140.609 124.313 140.567 124.319 140.528 124.334C140.49 124.348 140.455 124.371 140.425 124.4C135.996 127.772 130.777 128.47 124.769 126.496C118.76 124.522 111.901 119.812 104.192 112.367C104.165 112.341 104.134 112.321 104.099 112.307C104.064 112.293 104.027 112.286 103.99 112.287C103.952 112.287 103.915 112.295 103.881 112.31C103.847 112.324 103.815 112.346 103.789 112.372Z" fill="#0A1C32"/>
<path d="M105.991 107.978L105.626 108.684C105.184 108.768 104.737 108.825 104.289 108.855C103.793 108.887 103.296 108.887 102.801 108.855C102.763 108.853 102.726 108.858 102.691 108.87C102.655 108.882 102.623 108.902 102.595 108.926C102.567 108.951 102.544 108.981 102.528 109.015C102.511 109.048 102.502 109.085 102.5 109.122C102.498 109.159 102.503 109.197 102.515 109.232C102.528 109.267 102.547 109.3 102.572 109.327C102.597 109.355 102.627 109.378 102.661 109.394C102.695 109.41 102.731 109.419 102.769 109.422C103.287 109.456 103.808 109.456 104.326 109.422C104.846 109.389 105.363 109.32 105.873 109.213C105.916 109.206 105.956 109.188 105.99 109.162C106.025 109.136 106.053 109.102 106.072 109.063L106.501 108.235C108.961 103.472 111.813 97.9496 113.446 93.2668C114.209 91.3101 114.574 89.2225 114.52 87.1245C114.39 84.9582 113.604 82.882 112.265 81.1694C112.243 81.139 112.215 81.1133 112.183 81.0939C112.151 81.0744 112.115 81.0615 112.078 81.056C112.041 81.0505 112.003 81.0525 111.967 81.0619C111.931 81.0713 111.897 81.0878 111.867 81.1106C111.836 81.1328 111.811 81.1608 111.791 81.1931C111.771 81.2254 111.758 81.2613 111.753 81.2987C111.747 81.336 111.749 81.3741 111.759 81.4106C111.768 81.4472 111.785 81.4815 111.808 81.5115C113.079 83.1349 113.828 85.1025 113.956 87.1566C114.012 89.1799 113.667 91.1942 112.941 93.085C111.287 97.7251 108.44 103.231 105.991 107.978Z" fill="#0A1C32"/>
<path d="M157.967 95.6255C157.944 95.661 157.93 95.7012 157.924 95.7431L157.199 103.286C157.181 103.327 157.172 103.372 157.174 103.417C157.177 103.461 157.19 103.505 157.212 103.544C157.235 103.583 157.266 103.616 157.304 103.64C157.342 103.665 157.385 103.68 157.43 103.684C157.475 103.689 157.521 103.682 157.563 103.666C157.605 103.65 157.642 103.623 157.672 103.59C157.702 103.556 157.723 103.516 157.735 103.472C157.746 103.429 157.746 103.383 157.736 103.339L158.461 95.8554C160.731 92.0417 161.588 87.5575 160.884 83.1807C160.879 83.144 160.866 83.1087 160.847 83.0769C160.828 83.0451 160.802 83.0174 160.772 82.9955C160.742 82.9736 160.708 82.9579 160.672 82.9493C160.636 82.9407 160.598 82.9394 160.561 82.9454C160.487 82.9586 160.42 82.9997 160.375 83.0604C160.33 83.1211 160.31 83.1967 160.32 83.2715C161.009 87.5381 160.166 91.9099 157.94 95.6201L157.967 95.6255Z" fill="#0A1C32"/>
<path d="M192.502 116.65C193.345 116.558 194.19 116.8 194.855 117.324L195.73 116.201C195.016 115.645 194.155 115.307 193.252 115.228C192.349 115.149 191.442 115.333 190.642 115.757C189.842 116.181 189.182 116.828 188.744 117.618C188.305 118.408 188.107 119.307 188.172 120.207C188.237 121.107 188.563 121.969 189.111 122.688C189.659 123.407 190.405 123.953 191.258 124.258C192.111 124.564 193.035 124.616 193.918 124.409C194.8 124.202 195.603 123.744 196.23 123.092L195.198 122.108C194.614 122.716 193.816 123.074 192.971 123.108C192.127 123.142 191.302 122.849 190.671 122.29C190.2 121.872 189.861 121.327 189.696 120.721C189.531 120.115 189.546 119.474 189.74 118.876C189.934 118.279 190.299 117.75 190.789 117.355C191.279 116.96 191.875 116.715 192.502 116.65Z" fill="#A23658"/>
<path fill-rule="evenodd" clip-rule="evenodd" d="M203.025 128.411C207.365 128.411 210.888 127.203 210.888 125.711L212.021 113.977H194.055L195.167 125.738C195.167 127.224 198.685 128.411 203.025 128.411Z" fill="#A33658"/>
<path d="M203.024 117.057C207.981 117.057 211.999 115.676 211.999 113.972C211.999 112.269 207.981 110.888 203.024 110.888C198.067 110.888 194.049 112.269 194.049 113.972C194.049 115.676 198.067 117.057 203.024 117.057Z" fill="white"/>
<path d="M203.025 116.223C207.324 116.223 210.808 115.215 210.808 113.972C210.808 112.729 207.324 111.721 203.025 111.721C198.727 111.721 195.243 112.729 195.243 113.972C195.243 115.215 198.727 116.223 203.025 116.223Z" fill="#663300"/>
<path opacity="0.38" fill-rule="evenodd" clip-rule="evenodd" d="M196.026 94.5136C194.73 96.3315 194.191 98.5775 194.52 100.782C194.849 102.987 196.022 104.98 197.793 106.344C199.034 107.333 200.296 108.209 200.935 109.786C201.27 110.793 201.451 111.843 201.472 112.903C201.596 114.084 202.616 114.913 203.674 114.025C204.899 112.999 204.459 110.422 203.352 107.969C201.832 104.58 198.658 103.462 199.925 99.0093C200.586 96.6786 202.213 95.5934 204.007 94.5884C207.176 92.819 209.658 90.8999 210.716 87.3075C212.01 82.9294 211.146 77.418 208.567 74.1571C207.729 73.0685 206.59 72.2459 205.291 71.7894C203.991 71.3329 202.586 71.2622 201.247 71.5858C197.594 72.4037 194.962 75.3705 194.887 78.6261C194.742 84.8164 199.678 85.1853 200.291 88.4836C200.844 91.5841 197.664 92.2042 196.026 94.5136Z" fill="white"/>
<path d="M206.076 75.1674C206.066 75.2032 206.062 75.2408 206.066 75.2779C206.07 75.3151 206.081 75.3511 206.099 75.3838C206.117 75.4166 206.141 75.4456 206.171 75.469C206.2 75.4924 206.234 75.5098 206.27 75.5202L211.641 77.1239L214.042 79.7968C214.067 79.8245 214.097 79.8471 214.131 79.8632C214.164 79.8793 214.201 79.8885 214.239 79.8905C214.276 79.8925 214.313 79.8872 214.349 79.8747C214.384 79.8623 214.417 79.8431 214.444 79.8182C214.472 79.7933 214.495 79.7631 214.511 79.7295C214.527 79.6959 214.537 79.6594 214.539 79.6222C214.541 79.5849 214.535 79.5477 214.523 79.5125C214.51 79.4774 214.491 79.445 214.466 79.4173L212.022 76.6696C211.986 76.6291 211.94 76.5995 211.888 76.584L206.431 74.9803C206.359 74.9586 206.281 74.9661 206.215 75.0011C206.148 75.0362 206.099 75.096 206.076 75.1674Z" fill="#E88358"/>
<path d="M212.699 74.387L214.471 75.5631C214.502 75.5852 214.537 75.6008 214.575 75.6092C214.612 75.6175 214.65 75.6183 214.688 75.6116C214.725 75.6048 214.761 75.5906 214.793 75.5698C214.825 75.549 214.852 75.5221 214.874 75.4905C214.895 75.459 214.909 75.4236 214.917 75.3863C214.924 75.349 214.923 75.3107 214.915 75.2736C214.907 75.2365 214.892 75.2013 214.87 75.1702C214.848 75.1392 214.82 75.1128 214.788 75.0926L212.978 73.8845C212.938 73.8555 212.892 73.8354 212.844 73.8257L207.295 72.9757C207.258 72.9701 207.221 72.9718 207.184 72.9807C207.148 72.9896 207.114 73.0056 207.084 73.0277C207.053 73.0498 207.028 73.0775 207.008 73.1094C206.989 73.1413 206.976 73.1767 206.971 73.2136C206.965 73.2504 206.967 73.288 206.976 73.3242C206.985 73.3604 207.001 73.3945 207.023 73.4246C207.045 73.4546 207.073 73.48 207.105 73.4993C207.137 73.5186 207.173 73.5314 207.21 73.537L212.699 74.387Z" fill="#E88358"/>
<path d="M187.159 96.3682C187.226 96.3328 187.276 96.2723 187.298 96.2001C187.32 96.128 187.313 96.05 187.277 95.9833C187.242 95.9167 187.181 95.8669 187.108 95.8448C187.036 95.8228 186.958 95.8303 186.891 95.8657C184.93 96.9169 183.388 98.6019 182.519 100.643C181.65 102.684 181.506 104.958 182.11 107.092C182.13 107.164 182.178 107.225 182.244 107.262C182.309 107.299 182.387 107.309 182.459 107.29C182.532 107.268 182.594 107.22 182.631 107.154C182.668 107.088 182.678 107.01 182.658 106.937C182.09 104.928 182.226 102.787 183.044 100.866C183.862 98.9446 185.314 97.3583 187.159 96.3682Z" fill="#E88358"/>
<path d="M210.195 86.2063C210.225 86.2281 210.26 86.2436 210.297 86.2521C210.334 86.2605 210.372 86.2616 210.409 86.2554C210.446 86.2492 210.481 86.2358 210.513 86.2159C210.545 86.196 210.573 86.17 210.595 86.1395C210.617 86.109 210.632 86.0744 210.641 86.0379C210.649 86.0014 210.65 85.9635 210.644 85.9265C210.638 85.8896 210.624 85.8542 210.605 85.8224C210.585 85.7906 210.558 85.763 210.528 85.7412L208.632 84.3941C208.595 84.3672 208.553 84.3472 208.508 84.3353L207.74 84.1856H207.665L203.61 83.3838C203.571 83.3638 203.527 83.3531 203.483 83.3526C203.439 83.3521 203.396 83.3617 203.356 83.3808C203.317 83.3998 203.282 83.4278 203.255 83.4624C203.228 83.497 203.209 83.5374 203.201 83.5803C203.192 83.6233 203.194 83.6677 203.205 83.7099C203.217 83.7522 203.238 83.7913 203.267 83.824C203.296 83.8568 203.333 83.8824 203.374 83.8987C203.414 83.9151 203.459 83.9218 203.502 83.9184L207.461 84.7042C207.727 85.1945 207.832 85.7552 207.762 86.3079C207.64 87.0641 207.35 87.7836 206.913 88.4141C206.879 88.477 206.87 88.5503 206.888 88.6194C206.906 88.6885 206.95 88.7483 207.01 88.7868C207.071 88.8253 207.143 88.8397 207.214 88.8271C207.285 88.8145 207.348 88.7758 207.391 88.7188C207.877 88.0184 208.198 87.2182 208.331 86.3774C208.4 85.8518 208.337 85.3173 208.148 84.8218L208.336 84.8592L210.195 86.2063Z" fill="#E88358"/>
<path d="M202.836 79.1446C202.828 79.1815 202.828 79.2196 202.835 79.2566C202.842 79.2936 202.857 79.3288 202.878 79.3602C202.899 79.3916 202.926 79.4184 202.958 79.4393C202.989 79.4601 203.025 79.4744 203.062 79.4814L208.707 80.6093L210.076 81.4219L205.414 80.9942C205.339 80.9882 205.264 81.0117 205.206 81.0596C205.148 81.1075 205.111 81.1761 205.103 81.2508C205.099 81.2881 205.103 81.3257 205.114 81.3615C205.125 81.3973 205.143 81.4305 205.167 81.4593C205.191 81.4882 205.22 81.512 205.253 81.5294C205.287 81.5468 205.323 81.5575 205.361 81.5609L210.017 81.9886L213.654 83.2074C213.726 83.2297 213.805 83.2233 213.873 83.1894C213.941 83.1556 213.993 83.0969 214.019 83.0256C214.03 82.9902 214.035 82.9528 214.032 82.9156C214.029 82.8783 214.019 82.842 214.002 82.8088C213.985 82.7755 213.962 82.7459 213.933 82.7216C213.905 82.6974 213.872 82.679 213.836 82.6675L212.52 82.2291C212.505 82.2087 212.484 82.1923 212.461 82.181L208.959 80.0962C208.931 80.0799 208.9 80.0691 208.868 80.0641L203.175 78.9201C203.1 78.9059 203.023 78.9215 202.959 78.9635C202.896 79.0055 202.852 79.0705 202.836 79.1446Z" fill="#E88358"/>
<path d="M202.391 85.4365C201.753 86.5309 201.5 87.8055 201.671 89.0591C201.842 90.3127 202.428 91.4739 203.336 92.3592C203.363 92.3856 203.394 92.4064 203.429 92.4207C203.463 92.435 203.5 92.4423 203.538 92.4423C203.575 92.4423 203.612 92.435 203.647 92.4207C203.681 92.4064 203.713 92.3856 203.739 92.3592C203.766 92.3329 203.787 92.3016 203.801 92.2672C203.815 92.2328 203.823 92.196 203.823 92.1587C203.823 92.1215 203.815 92.0846 203.801 92.0502C203.787 92.0158 203.766 91.9846 203.739 91.9583C202.922 91.1594 202.396 90.1129 202.242 88.9836C202.089 87.8542 202.317 86.7061 202.89 85.7198C202.91 85.688 202.922 85.6527 202.927 85.616C202.933 85.5792 202.93 85.5418 202.921 85.5059C202.911 85.4701 202.895 85.4365 202.872 85.4071C202.849 85.3777 202.821 85.3532 202.788 85.3349C202.756 85.3156 202.719 85.3029 202.682 85.2976C202.644 85.2922 202.605 85.2943 202.569 85.3037C202.532 85.3132 202.497 85.3297 202.466 85.3525C202.436 85.3753 202.41 85.4038 202.391 85.4365Z" fill="#E88358"/>
<path fill-rule="evenodd" clip-rule="evenodd" d="M144.581 131.412C150.559 129.808 154.893 131.561 159.109 133.475C173.751 140.104 178.209 132.01 190.262 138.484L165.635 121.559C163.544 119.289 161.462 117.801 159.389 117.096C157.208 116.458 155.344 116.397 153.797 116.914C151.34 117.69 149.106 119.041 147.282 120.854C145.308 122.737 143.511 124.794 141.911 127.001C138.776 131.297 135.876 135.758 133.226 140.366C134.405 138.181 136.021 136.26 137.973 134.72C139.926 133.18 142.175 132.054 144.581 131.412Z" fill="#272D7A"/>
<path d="M138.384 132.361C139.397 130.865 140.45 129.362 141.542 127.855C141.586 127.792 141.603 127.715 141.59 127.64C141.577 127.565 141.535 127.498 141.472 127.454C141.442 127.432 141.407 127.417 141.371 127.409C141.334 127.401 141.296 127.4 141.259 127.407C141.222 127.413 141.187 127.427 141.155 127.447C141.124 127.467 141.096 127.493 141.075 127.523C140.001 128.995 138.946 130.501 137.911 132.041C136.877 133.58 135.863 135.113 134.871 136.638C132.275 140.558 129.67 144.487 127.057 148.425C124.443 152.363 122.024 156.027 119.8 159.416C119.778 159.446 119.763 159.481 119.756 159.518C119.748 159.554 119.748 159.592 119.755 159.629C119.763 159.665 119.778 159.7 119.8 159.73C119.821 159.761 119.849 159.787 119.881 159.806C119.912 159.828 119.947 159.843 119.984 159.851C120.021 159.859 120.06 159.859 120.097 159.851C120.134 159.844 120.169 159.829 120.2 159.807C120.232 159.786 120.258 159.758 120.278 159.726C122.738 155.984 125.157 152.319 127.535 148.73C129.912 145.141 132.517 141.221 135.349 136.969C136.334 135.412 137.346 133.876 138.384 132.361Z" fill="#01020F"/>
<path d="M127.561 168.979L151.097 136.274C151.124 136.236 151.142 136.192 151.151 136.146C151.962 132.516 152.714 131.463 153.455 131.629C154.115 131.773 154.878 132.81 155.678 133.901C156.275 134.82 156.998 135.651 157.827 136.371C158.783 137.065 159.787 137.146 160.84 135.863L190 153.958C190.031 153.978 190.067 153.992 190.104 153.998C190.141 154.004 190.179 154.003 190.215 153.995C190.252 153.987 190.287 153.972 190.317 153.95C190.348 153.929 190.374 153.901 190.394 153.87C190.414 153.838 190.428 153.803 190.434 153.766C190.441 153.729 190.44 153.692 190.432 153.655C190.424 153.619 190.408 153.584 190.387 153.553C190.365 153.523 190.337 153.497 190.306 153.477L160.953 135.264C160.893 135.226 160.821 135.212 160.751 135.225C160.681 135.238 160.619 135.276 160.577 135.333C159.723 136.488 158.933 136.461 158.192 135.927C157.406 135.241 156.718 134.451 156.146 133.58C155.281 132.399 154.459 131.276 153.589 131.084C152.515 130.848 151.516 131.976 150.613 135.996L127.11 168.659C127.087 168.689 127.071 168.723 127.062 168.759C127.053 168.795 127.051 168.833 127.057 168.87C127.063 168.907 127.077 168.942 127.097 168.974C127.117 169.006 127.143 169.033 127.174 169.054C127.236 169.094 127.311 169.108 127.383 169.094C127.455 169.08 127.519 169.039 127.561 168.979Z" fill="white"/>
<path fill-rule="evenodd" clip-rule="evenodd" d="M85.4951 77.4925C85.4951 77.56 85.5153 77.6261 85.5531 77.6823C85.5908 77.7385 85.6445 77.7823 85.7073 77.8082C85.7701 77.834 85.8392 77.8408 85.9059 77.8276C85.9726 77.8144 86.0339 77.7819 86.0819 77.7341C86.13 77.6863 86.1627 77.6254 86.176 77.5591C86.1893 77.4928 86.1825 77.4241 86.1564 77.3617C86.1304 77.2993 86.0864 77.2459 86.0298 77.2083C85.9733 77.1708 85.9069 77.1507 85.8389 77.1507C85.7477 77.1507 85.6603 77.1867 85.5958 77.2508C85.5313 77.3149 85.4951 77.4018 85.4951 77.4925Z" fill="white"/>
<path fill-rule="evenodd" clip-rule="evenodd" d="M192.847 10.1794V15.6374H191.058V34.0053H192.847V39.6611H194.318V34.0053H196.112V15.6374H194.318V10.1794H192.847Z" fill="#79243D"/>
<path fill-rule="evenodd" clip-rule="evenodd" d="M185.73 21.63V26.2915H183.818V41.9759H185.73V46.8084H187.197V41.9759H188.873V26.2915H187.197V21.63H185.73Z" fill="#79243D"/>
<path fill-rule="evenodd" clip-rule="evenodd" d="M178.115 41.2648V44.9481H176.203V57.3394H178.115V61.1563H179.581V57.3394H181.257V44.9481H179.581V41.2648H178.115Z" fill="#AB395B"/>
<path fill-rule="evenodd" clip-rule="evenodd" d="M222.968 6.83841V10.2543H221.055V21.7316H222.968V25.2651H224.434V21.7316H226.11V10.2543H224.434V6.83841H222.968Z" fill="#79243D"/>
<path fill-rule="evenodd" clip-rule="evenodd" d="M215.222 11.0027V13.3441H213.31V21.2291H215.222V23.6614H216.688V21.2291H218.364V13.3441H216.688V11.0027H215.222Z" fill="#79243D"/>
<path fill-rule="evenodd" clip-rule="evenodd" d="M207.801 19.6094V24.0677H206.007V39.0517H207.801V43.6651H209.267V39.0517H211.061V24.0677H209.267V19.6094H207.801Z" fill="#AB395B"/>
<path fill-rule="evenodd" clip-rule="evenodd" d="M200.602 14.4774V19.3848H198.808V35.9084H200.602V40.9975H202.074V35.9084H203.868V19.3848H202.074V14.4774H200.602Z" fill="#AB395B"/>
<path fill-rule="evenodd" clip-rule="evenodd" d="M170.923 26.7138V31.6265H169.134V48.1501H170.923V53.2393H172.395V48.1501H174.188V31.6265H172.395V26.7138H170.923Z" fill="#AB395B"/>
<path fill-rule="evenodd" clip-rule="evenodd" d="M162.741 32.3054V36.598H160.948V51.0315H162.741V55.4791H164.213V51.0315H166.007V36.598H164.213V32.3054H162.741Z" fill="#AB395B"/>
<path fill-rule="evenodd" clip-rule="evenodd" d="M156.05 46.2899V49.0429H154.138V58.3017H156.05V61.1563H157.521V58.3017H159.192V49.0429H157.521V46.2899H156.05Z" fill="#AB395B"/>
<path d="M181.655 14.1701V13.1236H175.647V14.1701H177.559C178.27 14.1701 178.87 14.6086 179.096 15.2167H175.647V16.2632H179.096C178.984 16.5684 178.776 16.8328 178.501 17.0202C178.225 17.2076 177.896 17.3087 177.559 17.3097H175.647V18.5729L178.698 21.4959H180.243L176.965 18.3563H177.559C178.188 18.3555 178.797 18.1468 179.285 17.7655C179.772 17.3843 180.107 16.8537 180.234 16.2632H181.655V15.2167H180.234C180.15 14.8358 179.978 14.4781 179.729 14.1701H181.655Z" fill="#6A102B"/>
<path d="M163.63 67.1666C163.725 68.2235 164.594 68.9736 165.918 69.0706V69.8416H166.582V69.0706C168.028 68.9571 168.925 68.1589 168.925 66.9783C168.925 65.9702 168.322 65.3869 167.042 65.0584L166.582 64.9399V62.5293C167.297 62.599 167.779 62.982 167.901 63.5539H168.838C168.732 62.5394 167.856 61.8116 166.582 61.731V60.9651H165.918V61.7469C164.683 61.8927 163.835 62.6802 163.835 63.7479C163.835 64.6698 164.45 65.3222 165.53 65.5974L165.919 65.7001V68.2559C165.187 68.1481 164.683 67.7486 164.561 67.1666H163.63ZM165.791 64.7344C165.126 64.5677 164.771 64.2114 164.771 63.7098C164.771 63.1113 165.22 62.6694 165.918 62.5508V64.7668L165.791 64.7351V64.7344ZM166.804 65.9214C167.624 66.1261 167.984 66.466 167.984 67.043C167.984 67.7385 167.458 68.202 166.582 68.2723V65.8662L166.804 65.9207V65.9214Z" fill="#650F27"/>
</g>
</svg>
