<svg width="146" height="148" viewBox="0 0 146 148" fill="none" xmlns="http://www.w3.org/2000/svg">
<path d="M128.284 29.9393C128.222 29.9373 128.161 29.9478 128.103 29.9702C128.046 29.9926 127.994 30.0263 127.95 30.0694L105.115 52.5774L97.0005 52.4508C96.8886 52.4421 96.7774 52.4746 96.6878 52.5422L60.3004 80.2904H47.8293C47.7073 80.2904 47.5902 80.3389 47.5039 80.4253C47.4176 80.5117 47.3691 80.6289 47.3691 80.7511C47.3691 80.8733 47.4176 80.9905 47.5039 81.0769C47.5902 81.1632 47.7073 81.2118 47.8293 81.2118H60.455C60.566 81.2123 60.6734 81.1723 60.7571 81.0993L97.1199 53.3722L105.295 53.4988C105.356 53.5001 105.416 53.4892 105.473 53.4669C105.529 53.4446 105.581 53.4112 105.625 53.3687L128.477 30.8607L136.743 30.6813C136.819 30.6797 136.893 30.6593 136.959 30.6219C137.026 30.5844 137.082 30.5311 137.122 30.4668L144.443 20.1307L145.866 21.0873L145.747 17.3981L142.297 18.6923L143.681 19.6207L136.493 29.7845L128.284 29.9393Z" fill="#CE5476"/>
<path fill-rule="evenodd" clip-rule="evenodd" d="M21.2838 134.675C30.038 140.59 39.9769 144.53 50.4101 146.223C60.8432 147.916 71.5204 147.321 81.6998 144.478C77.5433 140.864 72.5604 138.326 67.1901 137.087L22.0167 130.462C21.5891 131.066 21.3015 131.757 21.1747 132.486C21.0479 133.215 21.0852 133.963 21.2838 134.675Z" fill="#BBBBBB"/>
<path fill-rule="evenodd" clip-rule="evenodd" d="M21.8718 131.319C21.8718 136.534 37.5002 141.618 56.7741 142.673C76.048 143.727 91.6861 140.357 91.6861 135.142C91.6861 129.928 76.0625 124.838 56.7886 123.784C37.5147 122.73 21.8718 126.1 21.8718 131.319Z" fill="#DBDBDB"/>
<path fill-rule="evenodd" clip-rule="evenodd" d="M80.6194 102.965V124.79C82.5675 125.811 84.5655 126.742 86.6132 127.583V102.965H80.6194Z" fill="white"/>
<path fill-rule="evenodd" clip-rule="evenodd" d="M68.54 104.12C68.54 105.016 69.2537 105.728 70.5557 105.931L97.5304 110.163C98.648 110.278 99.7772 110.133 100.829 109.739C101.881 109.345 102.827 108.712 103.592 107.89C104.556 106.715 104.272 105.233 104.277 103.87C104.038 103.902 103.814 104.004 103.632 104.162C103.45 104.321 103.319 104.529 103.254 104.761C102.94 104.611 102.605 104.509 102.261 104.457L75.2861 100.225C73.3384 100.035 71.3942 100.62 69.8758 101.852C69.6787 101.73 69.459 101.647 69.2297 101.61C69.0004 101.573 68.7659 101.582 68.54 101.636V104.12Z" fill="#C7C7C7"/>
<path fill-rule="evenodd" clip-rule="evenodd" d="M98.0521 107.765C99.788 108.035 102.267 106.976 103.569 105.406C104.871 103.836 104.533 102.329 102.783 102.06L74.718 97.654C72.9869 97.3844 70.5035 98.4437 69.2063 100.013C67.9044 101.583 68.2419 103.09 69.9875 103.36L98.0521 107.765Z" fill="#DBDBDB"/>
<path fill-rule="evenodd" clip-rule="evenodd" d="M6.47974 72.1211C21.6565 105.748 29.2448 122.559 29.2448 122.556C31.2122 123.331 33.3209 123.683 35.4336 123.59C37.5464 123.497 39.6159 122.961 41.5074 122.017C56.1827 102.905 57.0442 80.0415 44.0921 53.4252C26.9109 55.2837 17.0353 56.2755 11.0704 59.7278C5.91073 62.6985 3.25376 67.9466 6.47974 72.1211Z" fill="#C7C7C7"/>
<path fill-rule="evenodd" clip-rule="evenodd" d="M9.92799 69.314L32.6931 119.749C34.6628 120.521 36.7732 120.87 38.8869 120.773C41.0006 120.676 43.0701 120.135 44.9605 119.186C59.6293 100.077 60.4892 77.2151 47.5403 50.5988C15.5184 54.0334 2.98096 60.2718 9.92799 69.314Z" fill="#DBDBDB"/>
<path fill-rule="evenodd" clip-rule="evenodd" d="M95.8143 138.869L91.8167 128.686C91.1136 126.506 89.6531 124.649 87.6991 123.451C85.745 122.253 83.4261 121.791 81.1613 122.151C78.8964 122.51 76.8349 123.666 75.349 125.41C73.8631 127.154 73.0508 129.371 73.0588 131.661C71.8533 135.657 71.1348 137.904 70.9033 138.402L77.4855 145.518C83.8691 144.143 90.0354 141.906 95.8143 138.869Z" fill="#070924"/>
<path fill-rule="evenodd" clip-rule="evenodd" d="M70.9036 138.388L70.8308 138.31C70.8016 138.548 70.8259 138.572 70.9036 138.388Z" fill="#070924"/>
<path d="M76.5025 128.991L76.0515 129.231L83.8777 143.879L84.3287 143.639L76.5025 128.991Z" fill="#01020F"/>
<path fill-rule="evenodd" clip-rule="evenodd" d="M76.3868 87.0903C76.3868 87.0903 80.6206 89.1029 87.926 92.1363C91.9525 86.7003 92.97 78.8859 89.8549 72.877C86.3251 70.1807 80.8472 66.247 76.7918 64.427C74.7041 63.5303 72.5173 62.8838 70.2772 62.5011C68.3483 62.1159 66.4195 61.9137 64.6932 61.6826C58.6656 65.1075 49.5036 64.4206 37.2073 59.6218L26.0779 62.3229C20.2174 70.4889 15.2217 80.1715 11.0908 91.3707L25.832 95.1937C30.4274 114.14 33.3255 126.11 35.3652 128.257C36.3875 132.807 38.326 134.613 40.7997 135.73C53.4047 141.421 68.4496 115.816 74.7183 102.421C74.6573 103.634 75.2134 98.5239 76.3868 87.0903Z" fill="#1E4C7A"/>
<path fill-rule="evenodd" clip-rule="evenodd" d="M64.7937 61.4947C64.0656 61.3214 63.2796 61.1336 62.5515 60.9459C60.9308 60.5675 59.3865 59.9162 57.9849 59.0199C55.0063 59.9394 51.8141 59.904 48.8567 58.9188C48.1125 58.6793 47.3872 58.3848 46.6868 58.0377L46.5518 57.9703C45.4712 57.4301 44.4594 56.7625 43.5379 55.9818C42.4851 56.9854 41.2425 57.7694 39.8828 58.2881C39.0017 58.6189 38.1404 58.9999 37.303 59.4292C39.2511 63.0385 41.8966 66.2264 45.0866 68.8082C48.2765 71.39 51.9476 73.3146 55.8873 74.4707C58.3409 73.225 60.4421 71.3842 61.9982 69.1171C63.5543 66.85 64.5155 64.2291 64.7937 61.4947Z" fill="white"/>
<path fill-rule="evenodd" clip-rule="evenodd" d="M39.8828 58.2929C41.3803 61.4816 43.5348 64.3189 46.2053 66.6196C48.8759 68.9203 52.0026 70.6325 55.381 71.6444C57.3821 70.6087 59.0887 69.085 60.3423 67.2146C61.5959 65.3443 62.3558 63.1879 62.5515 60.9459C60.7126 59.4051 59.8125 58.9461 59.8511 59.5688C47.5419 48.7676 41.9435 45.6926 43.0558 50.3437C43.6505 54.0286 42.5928 56.6783 39.8828 58.2929Z" fill="#FF9C72"/>
<path fill-rule="evenodd" clip-rule="evenodd" d="M62.1611 63.1896C62.3535 62.4539 62.4842 61.7034 62.5516 60.9459C61.9731 60.442 61.3591 59.9803 60.7144 59.5641C53.1502 57.1663 47.7816 54.4106 44.6086 51.297C48.8649 61.6874 54.7157 65.6516 62.1611 63.1896Z" fill="#EE875A"/>
<path fill-rule="evenodd" clip-rule="evenodd" d="M64.6009 38.687C64.3483 36.7569 63.635 34.9156 62.5209 33.3183C61.4068 31.7209 59.9245 30.4143 58.199 29.5085C56.4735 28.6026 54.5553 28.124 52.6059 28.113C50.6564 28.1021 48.7329 28.559 46.9973 29.4454C45.2616 30.3317 43.7648 31.6216 42.6327 33.2063C41.5006 34.7909 40.7665 36.6241 40.4922 38.5512C40.2178 40.4784 40.4113 42.4431 41.0564 44.28C41.7014 46.1169 42.779 47.7721 44.1986 49.1063C44.4204 53.0207 47.6175 57.4792 51.5282 59.6363C54.7734 61.4322 60.8493 62.0726 61.8233 57.3829C62.8553 55.067 64.4755 52.5055 64.8709 49.9874C65.1024 48.5092 64.76 47.6426 64.5767 46.4918C64.1524 43.8966 65.165 41.6914 64.6009 38.687Z" fill="#FF9C72"/>
<path fill-rule="evenodd" clip-rule="evenodd" d="M50.5925 50.0066C51.3239 50.1716 52.0831 50.1708 52.8141 50.0041C53.5451 49.8375 54.2294 49.5093 54.8166 49.0436C54.1878 49.1841 53.5351 49.1786 52.9087 49.0275C52.2824 48.8764 51.6992 48.5837 51.2039 48.1721C50.7087 47.7604 50.3148 47.2407 50.0524 46.6531C49.7901 46.0654 49.6664 45.4255 49.6908 44.7825L45.6932 44.3636C44.7342 45.0213 44.0484 46.0057 43.7644 47.1322L47.2122 47.3344C47.5409 48.003 48.0149 48.5898 48.5997 49.0521C49.1845 49.5144 49.8654 49.8405 50.5925 50.0066Z" fill="#EE875A"/>
<path fill-rule="evenodd" clip-rule="evenodd" d="M49.0635 35.6151C44.0421 37.0885 40.9174 38.5329 39.6894 39.9485C39.5656 41.9116 39.9456 43.8738 40.7937 45.6492C41.6478 45.5936 42.4987 45.7987 43.2333 46.2373C43.968 46.6759 44.5517 47.3272 44.9069 48.1048C44.9503 45.2159 47.1154 44.8018 46.8984 41.5903C46.7586 39.4429 45.9051 37.4785 49.0635 35.6151Z" fill="#1D1A19"/>
<path d="M60.4395 40.2084C61.0427 40.1057 61.659 40.1057 62.2622 40.2084C62.8678 40.3143 63.4503 40.5245 63.9837 40.8296C64.081 40.8825 64.1949 40.8963 64.302 40.8681C64.4084 40.8379 64.4985 40.7669 64.5527 40.6707C64.5801 40.6238 64.5976 40.572 64.6042 40.5181C64.6109 40.4643 64.6065 40.4098 64.5913 40.3577C64.5624 40.251 64.4933 40.1596 64.3984 40.1025C63.7801 39.7524 63.1067 39.5098 62.4069 39.3851C62.058 39.3256 61.7048 39.295 61.3509 39.2936C60.9968 39.297 60.6436 39.3292 60.2948 39.3899C60.1856 39.4088 60.0884 39.47 60.0242 39.5602C59.9601 39.6504 59.9343 39.7623 59.9525 39.8714C59.975 39.9796 60.0369 40.0756 60.1261 40.141C60.2181 40.2026 60.3302 40.2267 60.4395 40.2084Z" fill="#362319"/>
<path d="M49.8066 41.4025C49.8375 41.4476 49.8771 41.486 49.9229 41.5158C49.9688 41.5455 50.0201 41.5658 50.0739 41.5757C50.1277 41.5855 50.1829 41.5847 50.2363 41.5731C50.2897 41.5616 50.3404 41.5396 50.3853 41.5085C50.8062 41.2131 51.2552 40.9599 51.7258 40.7525C52.1905 40.5436 52.6752 40.3823 53.1725 40.2711C53.6726 40.1551 54.183 40.0889 54.6962 40.0736C55.2111 40.0569 55.7263 40.0908 56.2345 40.1748C56.3434 40.1895 56.4539 40.1619 56.5431 40.0977C56.6294 40.0313 56.6878 39.9352 56.707 39.8281C56.7226 39.7208 56.6948 39.6117 56.6299 39.5248C56.5652 39.4357 56.4684 39.3753 56.3599 39.3562C55.799 39.2643 55.2305 39.2272 54.6625 39.2455C53.5233 39.2817 52.4019 39.5367 51.3593 39.9966C50.8404 40.2285 50.3448 40.509 49.879 40.8344C49.7897 40.8983 49.7291 40.9946 49.7101 41.1026C49.6912 41.2107 49.7155 41.3218 49.7777 41.4122L49.8066 41.4025Z" fill="#362319"/>
<path fill-rule="evenodd" clip-rule="evenodd" d="M63.5686 44.8163C63.5417 44.6813 63.4632 44.5621 63.3498 44.4839C63.2364 44.4057 63.0969 44.3747 62.961 44.3974C62.8936 44.4097 62.8292 44.4352 62.7717 44.4723C62.7141 44.5095 62.6644 44.5576 62.6254 44.6139C62.5865 44.6703 62.559 44.7337 62.5446 44.8007C62.5302 44.8676 62.5291 44.9367 62.5415 45.004C62.5538 45.0714 62.5794 45.1356 62.6166 45.1931C62.6538 45.2506 62.702 45.3002 62.7584 45.3391C62.8148 45.378 62.8784 45.4054 62.9454 45.4198C63.0124 45.4342 63.0816 45.4353 63.1491 45.4229C63.2842 45.396 63.4036 45.3177 63.4819 45.2044C63.5602 45.0912 63.5913 44.952 63.5686 44.8163Z" fill="black"/>
<path fill-rule="evenodd" clip-rule="evenodd" d="M54.7052 44.8163C54.6843 44.7 54.6292 44.5926 54.5471 44.5076C54.465 44.4226 54.3595 44.3638 54.244 44.3387C54.1284 44.3136 54.008 44.3232 53.8979 44.3664C53.7878 44.4097 53.6931 44.4845 53.6256 44.5815C53.5581 44.6785 53.521 44.7933 53.5189 44.9114C53.5168 45.0295 53.5498 45.1455 53.6137 45.2449C53.6777 45.3442 53.7697 45.4224 53.8782 45.4695C53.9866 45.5166 54.1066 45.5306 54.223 45.5096C54.3784 45.4803 54.516 45.3912 54.6062 45.2615C54.6965 45.1318 54.732 44.9719 54.7052 44.8163Z" fill="black"/>
<path fill-rule="evenodd" clip-rule="evenodd" d="M64.2008 44.277C64.3593 44.2461 64.5052 44.169 64.62 44.0556C64.7348 43.9421 64.8135 43.7973 64.8462 43.6393C64.8789 43.4813 64.8641 43.3173 64.8037 43.1677C64.7433 43.0181 64.6399 42.8896 64.5067 42.7984C64.3734 42.7073 64.2161 42.6575 64.0546 42.6553C63.893 42.6531 63.7345 42.6986 63.5987 42.7861C63.463 42.8736 63.3562 42.9992 63.2917 43.1471C63.2273 43.295 63.208 43.4586 63.2364 43.6174C63.2548 43.7247 63.2947 43.8271 63.3535 43.9187C63.4124 44.0103 63.489 44.0892 63.579 44.1507C63.6689 44.2122 63.7702 44.2551 63.877 44.2768C63.9839 44.2985 64.0939 44.2986 64.2008 44.277Z" fill="white"/>
<path fill-rule="evenodd" clip-rule="evenodd" d="M55.4054 44.2144C55.5639 44.1834 55.7098 44.1064 55.8246 43.9929C55.9394 43.8795 56.0181 43.7347 56.0508 43.5767C56.0835 43.4187 56.0687 43.2546 56.0083 43.105C55.9479 42.9554 55.8445 42.827 55.7112 42.7358C55.578 42.6447 55.4207 42.5949 55.2592 42.5927C55.0976 42.5905 54.939 42.636 54.8033 42.7235C54.6676 42.811 54.5608 42.9365 54.4963 43.0844C54.4319 43.2323 54.4126 43.396 54.4409 43.5548C54.4594 43.662 54.4993 43.7645 54.5581 43.8561C54.617 43.9477 54.6936 44.0266 54.7835 44.0881C54.8735 44.1496 54.9748 44.1925 55.0816 44.2142C55.1884 44.2359 55.2985 44.2359 55.4054 44.2144Z" fill="white"/>
<path d="M60.9796 53.1266C61.0477 53.0688 61.0932 52.9888 61.1082 52.9008C61.1232 52.8127 61.1067 52.7223 61.0616 52.6452C61.0397 52.6079 61.0102 52.5757 60.9749 52.5507C60.9397 52.5257 60.8995 52.5086 60.857 52.5004C60.8145 52.4922 60.7708 52.4931 60.7288 52.5031C60.6867 52.5132 60.6473 52.532 60.6131 52.5585C59.7341 53.2476 58.626 53.578 57.5125 53.4829C56.3936 53.3769 55.3532 52.8626 54.5903 52.0385C54.5623 52.0059 54.5275 51.9798 54.4884 51.9618C54.4492 51.9439 54.4067 51.9347 54.3637 51.9347C54.3206 51.9347 54.2781 51.9439 54.239 51.9618C54.1999 51.9798 54.1651 52.0059 54.137 52.0385C54.0814 52.1064 54.051 52.1915 54.051 52.2792C54.051 52.367 54.0814 52.452 54.137 52.52C54.9987 53.4614 56.1787 54.0514 57.4498 54.1763C58.7171 54.2856 59.9787 53.9104 60.9796 53.1266Z" fill="#E88358"/>
<path fill-rule="evenodd" clip-rule="evenodd" d="M45.2881 36.8477C42.4431 37.8973 40.5769 38.9341 39.6896 39.9581C39.5658 41.9212 39.9459 43.8834 40.7939 45.6588C41.4064 45.617 42.0205 45.7107 42.5925 45.9333C42.5218 45.6669 42.4591 45.3972 42.4045 45.1244C42.129 43.6136 42.2498 42.0574 42.7551 40.607C43.2604 39.1567 44.133 37.8616 45.2881 36.8477Z" fill="#0F0906"/>
<path fill-rule="evenodd" clip-rule="evenodd" d="M42.3085 40.247C46.0167 38.9326 48.6785 34.6041 53.0328 33.8915C56.307 33.3522 57.257 36.01 61.5294 33.0008C62.8988 34.2622 63.7475 35.4852 64.601 38.687C64.7939 37.5315 65.0833 36.8382 65.1363 35.9956C66.9687 38.0178 67.5232 34.9315 66.3515 33.2415C66.0817 32.8545 65.7378 32.5246 65.3397 32.2709C64.9417 32.0172 64.4972 31.8447 64.032 31.7633C64.6668 30.1901 64.6536 28.4301 63.9953 26.8665C63.3369 25.3029 62.0867 24.0622 60.5167 23.4145C58.7133 23.0485 58.3114 23.721 59.3112 25.4319C56.7436 24.2325 53.8942 23.7642 51.0771 24.0786C48.2599 24.3929 45.5844 25.4777 43.3453 27.2134C41.8086 28.2822 41.926 29.2452 43.6973 30.1022C38.7498 32.2978 36.8885 42.173 42.3085 40.247Z" fill="#0F0906"/>
<path d="M59.1901 45.8515C59.347 46.7071 59.796 47.482 60.4608 48.0441C61.1256 48.6062 61.965 48.9209 62.836 48.9344C63.7071 48.9479 64.5559 48.6595 65.2379 48.1183C65.9199 47.5771 66.3929 46.8166 66.5763 45.9663C66.7597 45.1159 66.6422 44.2284 66.2438 43.4548C65.8455 42.6813 65.1908 42.0696 64.3914 41.7239C63.592 41.3782 62.6973 41.3199 61.8597 41.5589C61.0221 41.7979 60.2934 42.3195 59.7977 43.0348L59.6627 43.2466C59.2977 42.9952 58.8668 42.8563 58.4234 42.847C57.9344 42.8355 57.4544 42.9806 57.0539 43.2611C56.6457 42.4987 56.0052 41.8858 55.225 41.511C54.4448 41.1362 53.5654 41.019 52.7141 41.1763C52.1858 41.272 51.6817 41.471 51.2306 41.7618C50.7796 42.0527 50.3906 42.4296 50.086 42.8711C49.7624 43.3347 49.5406 43.8614 49.435 44.4166L41.1121 43.6752C41.0685 43.6705 41.0245 43.6768 40.984 43.6937C40.9435 43.7105 40.908 43.7373 40.8806 43.7715L37.78 47.5655C37.7579 47.5924 37.7412 47.6234 37.731 47.6567C37.7209 47.69 37.7174 47.7249 37.7207 47.7596C37.7241 47.7942 37.7342 47.8279 37.7506 47.8586C37.767 47.8893 37.7893 47.9165 37.8162 47.9387C37.8431 47.9608 37.8741 47.9774 37.9075 47.9876C37.9408 47.9978 37.9758 48.0013 38.0105 47.9979C38.0452 47.9946 38.0789 47.9844 38.1097 47.9681C38.1405 47.9517 38.1677 47.9294 38.1899 47.9026L41.2037 44.2144L49.3675 44.9415C49.3496 45.2636 49.369 45.5867 49.4254 45.9044C49.5128 46.4384 49.7057 46.9498 49.9929 47.4086C50.2801 47.8674 50.656 48.2646 51.0984 48.5769C51.5409 48.8893 52.0412 49.1106 52.5702 49.228C53.0992 49.3454 53.6464 49.3565 54.1797 49.2606C54.713 49.1648 55.2219 48.9639 55.6768 48.6698C56.1316 48.3756 56.5232 47.994 56.8289 47.5472C57.1345 47.1004 57.3481 46.5973 57.4571 46.0673C57.5661 45.5373 57.5684 44.9909 57.4638 44.46C57.4194 44.2207 57.3549 43.9855 57.2709 43.757C57.5739 43.5155 57.9488 43.3815 58.3365 43.3763C58.7242 43.3711 59.1025 43.4949 59.4119 43.7281C59.1322 44.3992 59.0551 45.1372 59.1901 45.8515ZM60.2365 43.3381C60.6622 42.7211 61.289 42.2708 62.0102 42.0638C62.7313 41.8569 63.502 41.9063 64.1907 42.2035C64.8795 42.5007 65.4436 43.0274 65.7868 43.6936C66.13 44.3599 66.231 45.1244 66.0725 45.8567C65.9141 46.589 65.5061 47.2437 64.9181 47.7091C64.3301 48.1745 63.5986 48.4217 62.8484 48.4086C62.0982 48.3955 61.3758 48.1228 60.8045 47.6372C60.2332 47.1515 59.8484 46.4829 59.7157 45.7455C59.5642 44.9059 59.7514 44.0405 60.2365 43.3381ZM56.3788 47.19C55.9785 47.7653 55.4165 48.2094 54.7637 48.4663C54.111 48.7232 53.3967 48.7814 52.7108 48.6336C52.025 48.4858 51.3983 48.1387 50.9098 47.6359C50.4212 47.133 50.0926 46.4971 49.9655 45.8081C49.8616 45.235 49.9008 44.6452 50.0797 44.0908C50.2585 43.5365 50.5714 43.0346 50.9907 42.6298C51.41 42.2249 51.9228 41.9295 52.4837 41.7696C53.0446 41.6098 53.6363 41.5904 54.2064 41.7133C54.7766 41.8361 55.3077 42.0974 55.7526 42.474C56.1976 42.8505 56.5427 43.3308 56.7575 43.8723C56.9723 44.4138 57.0501 44.9998 56.9841 45.5785C56.918 46.1571 56.7101 46.7106 56.3788 47.19Z" fill="white"/>
<path fill-rule="evenodd" clip-rule="evenodd" d="M43.4992 50.1992C44.9796 49.5444 45.3991 47.4307 44.4636 45.4855C43.5282 43.5403 41.527 42.4955 40.0466 43.1503C38.5662 43.8052 38.1467 45.9237 39.0822 47.8688C40.0177 49.814 42.0188 50.8588 43.4992 50.1992Z" fill="#FFA984"/>
<path fill-rule="evenodd" clip-rule="evenodd" d="M42.6143 49.2094C43.5353 48.8001 43.8005 47.4809 43.2026 46.2676C42.6046 45.0542 41.3702 44.4042 40.4492 44.8231C39.5282 45.242 39.2629 46.5516 39.8609 47.765C40.4588 48.9783 41.6885 49.6235 42.6143 49.2094Z" fill="#EE865A"/>
<path fill-rule="evenodd" clip-rule="evenodd" d="M42.8245 47.8689C43.3886 47.6185 43.5478 46.8144 43.1813 46.0778C42.8148 45.3411 42.0722 44.9415 41.508 45.1918C40.9438 45.4422 40.7847 46.2415 41.1512 46.9829C41.5177 47.7244 42.2651 48.1192 42.8245 47.8689Z" fill="#DF6D3C"/>
<path fill-rule="evenodd" clip-rule="evenodd" d="M57.1121 50.1511C57.4544 49.9537 58.0765 50.0163 58.9975 50.3437C60.854 50.4977 61.476 49.9488 61.4664 49.1014C61.4664 48.1385 59.6147 44.9125 58.8914 44.0748C58.4671 43.5933 58.0524 43.4825 57.8016 44.5562C57.8016 44.5562 57.5878 45.6027 57.1603 47.6955C56.9664 47.6251 56.7584 47.6018 56.5537 47.6278C56.349 47.6537 56.1534 47.728 55.9832 47.8445C55.813 47.961 55.6731 48.1164 55.5752 48.2978C55.4772 48.4791 55.424 48.6812 55.4199 48.8872C55.4159 49.0932 55.4611 49.2972 55.5519 49.4823C55.6426 49.6673 55.7763 49.8281 55.9417 49.9512C56.1072 50.0743 56.2997 50.1562 56.5033 50.1902C56.7068 50.2241 56.9155 50.209 57.1121 50.1463V50.1511Z" fill="#F38D60"/>
<path fill-rule="evenodd" clip-rule="evenodd" d="M42.3085 40.247C44.4254 39.4959 46.2048 37.7625 48.1481 36.2796C47.1763 34.2562 47.0065 31.9409 47.6727 29.7977C48.339 27.6546 49.7921 25.8423 51.7405 24.724C52.2523 24.4258 52.7916 24.1775 53.3511 23.9826C49.741 23.8537 46.2001 24.9936 43.3453 27.2037C41.8086 28.2726 41.926 29.2355 43.6973 30.0926C38.7498 32.2977 36.8885 42.1729 42.3085 40.247Z" fill="#0F0906"/>
<path fill-rule="evenodd" clip-rule="evenodd" d="M61.0468 30.5356C61.2124 31.438 61.2368 32.3605 61.1192 33.2704C61.2542 33.1837 61.3892 33.0922 61.5291 32.9911C62.8985 34.2526 63.7472 35.4756 64.6007 38.6774C64.7936 37.5219 65.0829 36.8285 65.136 35.9859C66.9684 38.0082 67.5229 34.9219 66.3512 33.2319C66.0814 32.8448 65.7375 32.515 65.3394 32.2613C64.9413 32.0076 64.4969 31.8351 64.0317 31.7537C64.6665 30.1804 64.6533 28.4205 63.995 26.8569C63.3366 25.2933 62.0864 24.0526 60.5164 23.4048C58.713 23.0389 58.3111 23.7114 59.3109 25.4222C58.5435 25.065 57.7485 24.7704 56.9336 24.5411C58.0044 25.1934 58.9247 26.0649 59.6337 27.0981C60.3427 28.1314 60.8243 29.3029 61.0468 30.5356Z" fill="#1D1A19"/>
<path d="M79.6744 69.6751C79.7686 73.3106 78.9812 76.915 77.3791 80.181C77.0576 81.3044 76.7908 83.2882 76.5786 86.1321L87.0618 90.8025C88.0941 89.0008 88.9191 87.0884 89.5211 85.1017C85.2005 82.3765 81.9183 77.2343 79.6744 69.6751Z" fill="#153A5B"/>
<path d="M61.6741 109.681C70.0806 106.195 74.5812 102.716 75.1759 99.2429C75.7064 94.2355 76.1404 90.0225 76.4441 87.1433L77.37 80.181C79.347 76.4159 79.9032 72.6378 79.0384 68.847C79.3124 68.5621 79.6487 68.3443 80.0209 68.2106C80.3932 68.077 80.7913 68.0311 81.1843 68.0766C83.4651 68.3511 85.8617 77.1044 91.2624 81.197C91.2335 77.5698 90.7947 74.7291 89.946 72.6747C86.4709 69.9678 82.8154 67.5001 79.0047 65.2888C76.3397 63.7288 72.9224 62.6423 68.7529 62.0292C55.4488 73.6811 85.582 91.2022 61.6741 109.681Z" fill="#265E96"/>
<path d="M37.6508 70.5466C37.5686 72.0392 37.4816 73.4836 37.4043 74.8799C37.6724 73.452 37.7552 71.9956 37.6508 70.5466Z" fill="#220D82"/>
<path d="M27.6539 92.0014C27.0945 92.04 26.7666 92.5311 26.6895 93.4459C26.6895 93.4459 28.2534 100.013 31.3813 113.148L35.2053 113.75C35.2053 113.75 35.943 100.784 37.4283 74.8752C37.1226 76.4814 36.6189 78.0437 35.9286 79.5263C32.3281 87.5253 30.5278 91.5248 30.5278 91.5248C30.1083 91.7992 29.1584 91.9533 27.6539 92.0014Z" fill="#153A5B"/>
<path d="M32.423 63.7963C23.4218 66.9259 19.0466 74.6537 19.2973 86.9796C21.1192 88.4704 23.2665 89.5127 25.566 90.0226C34.3712 84.914 28.0494 78.467 29.2694 72.9781C30.1181 69.054 33.9613 69.4681 32.423 63.7963Z" fill="#153A5B"/>
<path fill-rule="evenodd" clip-rule="evenodd" d="M66.0328 147.054H66.1292H66.3221H66.5487C67.8893 146.971 69.2282 146.85 70.5655 146.693C75.8409 142.437 77.7167 134.954 78.006 127.154C83.5611 131.04 94.2516 132.417 102.898 134.632C107.007 131.834 110.819 128.624 114.273 125.05L83.3923 103.721C71.5444 90.7496 61.8424 109.19 56.3886 117.034C49.112 122.407 39.4582 139.273 35.4511 128.021C35.4028 136.986 38.2045 141.811 42.9301 144.613C44.6371 145.075 46.3586 145.475 48.0946 145.812H48.1283C50.0893 146.191 52.0632 146.489 54.0499 146.707C58.0281 147.148 62.0357 147.264 66.0328 147.054Z" fill="#12153D"/>
<path d="M67.7977 96.2C69.4308 93.8182 70.7858 90.1847 71.8627 85.2992C71.8772 85.2329 71.8652 85.1635 71.8291 85.1059C71.7931 85.0483 71.7359 85.0071 71.6698 84.9911C71.6027 84.9767 71.5326 84.9894 71.4748 85.0264C71.4171 85.0634 71.3762 85.1216 71.3612 85.1885C70.3004 90.0033 68.9711 93.5775 67.3733 95.9111C65.8142 98.1837 64.0043 99.251 61.9437 99.1129C61.8759 99.1085 61.8091 99.1311 61.758 99.1758C61.7069 99.2205 61.6757 99.2836 61.6712 99.3513C61.6667 99.4189 61.6894 99.4856 61.7341 99.5367C61.7789 99.5877 61.8421 99.6188 61.9099 99.6233C64.1666 99.787 66.1292 98.6459 67.7977 96.2Z" fill="#0A1C32"/>
<path fill-rule="evenodd" clip-rule="evenodd" d="M28.3965 138.917C30.3253 139.938 32.3217 140.869 34.3855 141.71V117.091H28.3965V138.917Z" fill="#BBBBBB"/>
<path fill-rule="evenodd" clip-rule="evenodd" d="M16.2881 118.247C16.2881 119.143 17.0018 119.855 18.3085 120.057L45.2833 124.29C46.4003 124.406 47.529 124.262 48.5803 123.867C49.6315 123.473 50.5763 122.839 51.3399 122.017C52.3043 120.842 52.0198 119.359 52.0294 117.997C51.7899 118.03 51.5654 118.132 51.3837 118.291C51.2019 118.45 51.071 118.659 51.0072 118.892C50.6939 118.74 50.3587 118.638 50.0138 118.589L23.039 114.352C21.089 114.161 19.1425 114.748 17.6238 115.984C17.4276 115.859 17.2081 115.775 16.9786 115.737C16.7491 115.699 16.5142 115.708 16.2881 115.763V118.247Z" fill="#C7C7C7"/>
<path fill-rule="evenodd" clip-rule="evenodd" d="M16.9775 114.14C15.6755 115.71 16.0131 117.217 17.7635 117.486L45.8281 121.892C47.5592 122.161 50.0426 121.102 51.3397 119.533C52.6417 117.963 52.3042 116.456 50.5586 116.186L22.494 111.781C20.758 111.511 18.2795 112.57 16.9775 114.14Z" fill="#DBDBDB"/>
<path fill-rule="evenodd" clip-rule="evenodd" d="M125.976 98.7229C126.268 98.0036 126.493 97.259 126.647 96.4984C127.033 95.6029 127.452 94.6881 127.761 93.7636C127.859 93.2878 127.996 92.8208 128.171 92.3673L128.653 91.1877L128.778 90.6773C128.867 90.3227 128.998 89.98 129.169 89.6566L129.347 89.2955C129.566 88.8999 129.808 88.5173 130.07 88.1496L130.553 87.4129L91.3635 86.0118L110.541 126.418L111.322 127.891C112.232 127.05 113.121 126.185 113.989 125.296C113.54 124.147 113.008 123.031 112.397 121.959C112.421 121.938 112.444 121.915 112.465 121.892L112.576 121.781L113.155 121.203C113.351 120.85 113.596 120.526 113.883 120.24L115.189 118.935L115.411 118.728C115.546 118.57 115.696 118.43 115.84 118.285L116.057 118.078C116.149 117.977 116.246 117.876 116.342 117.785L116.636 117.491C116.978 116.972 117.34 116.466 117.721 115.974C117.937 115.6 118.205 115.258 118.517 114.958L118.584 114.896C118.817 114.376 119.144 113.904 119.549 113.504L119.679 113.374C119.773 113.162 119.885 112.958 120.012 112.763C120.185 112.3 120.431 111.868 120.74 111.482C120.966 110.944 121.293 110.453 121.704 110.038L121.907 109.768C122.022 109.528 122.16 109.3 122.317 109.084C122.388 108.855 122.476 108.631 122.582 108.415L122.678 108.044C122.957 107.345 123.23 106.644 123.498 105.94L123.532 105.868L123.864 104.876C123.953 104.62 124.061 104.37 124.188 104.13L124.732 102.488L124.954 101.833C125.084 101.448 125.721 100.389 125.494 100.735L125.417 100.841C125.504 100.413 125.615 99.994 125.726 99.5703L125.976 98.7229Z" fill="#6B1531"/>
<path fill-rule="evenodd" clip-rule="evenodd" d="M92.7041 82.3188L113.386 125.927C124.799 114.58 132.096 99.7558 134.121 83.8018L92.7041 82.3188Z" fill="#7D1B37"/>
<path fill-rule="evenodd" clip-rule="evenodd" d="M118.662 67.9178C118.693 67.9443 118.693 67.9443 118.662 67.9178V67.9178Z" fill="white"/>
<path fill-rule="evenodd" clip-rule="evenodd" d="M119.173 67.4651L123.995 66.194C124.477 66.0253 124.907 65.7319 125.239 65.3436C125.571 64.9554 125.794 64.4863 125.885 63.984L129.328 42.1392C129.343 42.0501 129.351 41.9599 129.352 41.8696C129.468 41.8349 129.569 41.7644 129.642 41.6684C129.715 41.5723 129.755 41.4556 129.757 41.3351L128.88 40.8537C128.747 40.7803 128.601 40.7348 128.45 40.7199C128.299 40.705 128.147 40.721 128.002 40.767L123.18 42.0333C122.697 42.2043 122.268 42.499 121.936 42.8877C121.603 43.2764 121.379 43.7455 121.285 44.2481L117.847 66.0929C117.807 66.2708 117.803 66.4549 117.835 66.6343C117.867 66.8137 117.935 66.9849 118.035 67.1377C118.045 67.1546 118.056 67.1706 118.069 67.1859L118.642 67.9129C118.693 67.8592 118.731 67.7952 118.754 67.7254C118.778 67.6556 118.785 67.5816 118.777 67.5085C118.911 67.5148 119.044 67.5002 119.173 67.4651Z" fill="white"/>
<path fill-rule="evenodd" clip-rule="evenodd" d="M119.524 68.1488L125.093 66.7044C125.464 66.5713 125.794 66.3426 126.048 66.0416C126.302 65.7406 126.472 65.378 126.54 64.9903L130.113 42.3607C130.234 41.5951 129.771 41.1233 129.086 41.3014L123.517 42.7459C123.146 42.8782 122.817 43.106 122.563 43.4061C122.309 43.7063 122.139 44.0682 122.07 44.4552L118.497 67.1137C118.376 67.8551 118.839 68.3318 119.524 68.1488Z" fill="#30324F"/>
<path fill-rule="evenodd" clip-rule="evenodd" d="M96.7157 95.1311C99.1268 96.0122 101.605 96.5033 103.925 95.9399C104.951 95.6884 105.938 95.2963 106.857 94.7748C111.592 92.1411 119.22 82.5451 122.442 78.0674C122.442 78.0674 124.015 76.265 127.162 72.6603C127.677 72.3089 128.094 71.8333 128.375 71.2776C128.655 70.722 128.791 70.1045 128.768 69.4826C129.247 69.0771 129.606 68.5491 129.806 67.9552C130.007 67.3614 130.041 66.7242 129.906 66.1122C130.31 65.7839 130.576 65.3155 130.649 64.8004C130.722 64.2854 130.598 63.7617 130.302 63.334L128.947 61.8655L127.5 56.4296L124.423 53.1989C124.268 53.0468 124.063 52.9544 123.846 52.9381C123.628 52.9218 123.412 52.9826 123.235 53.1097C123.059 53.2368 122.932 53.4222 122.879 53.6331C122.825 53.8441 122.848 54.0671 122.943 54.2629C122.943 54.2629 123.599 55.1537 124.92 56.9303L126.164 60.5944L119.814 59.6314C119.607 59.6291 119.406 59.6977 119.244 59.8257C119.082 59.9538 118.969 60.1335 118.923 60.3349C118.878 60.5362 118.904 60.7469 118.995 60.9318C119.087 61.1166 119.24 61.2644 119.428 61.3503L125.272 63.0788L126.642 64.61L125.094 63.7289L117.378 63.1174C117.126 63.1184 116.883 63.2131 116.697 63.3829C116.51 63.5528 116.394 63.7857 116.37 64.0365C116.346 64.2873 116.416 64.5381 116.567 64.7402C116.717 64.9422 116.938 65.0811 117.186 65.13L122.548 66.2037L125.692 68.0766L123.686 67.4363L119.471 67.0462L116.708 66.9066C116.489 66.948 116.29 67.0599 116.141 67.2252C115.992 67.3904 115.902 67.5999 115.884 67.8214C115.867 68.0427 115.922 68.2634 116.041 68.4508C116.16 68.6382 116.337 68.7822 116.544 68.8614L117.827 69.1792C117.586 69.7758 117.311 70.3578 117.002 70.9222L102.984 80.3833C102.888 80.563 98.5401 77.9951 89.9407 72.6796C91.0312 75.7246 91.4606 78.9663 91.2004 82.1897C90.9401 85.413 89.9963 88.5442 88.4314 91.3755C91.0963 92.8296 93.8653 94.0849 96.7157 95.1311Z" fill="#FF9C72"/>
<path fill-rule="evenodd" clip-rule="evenodd" d="M122.943 47.1033C123.096 47.0487 123.231 46.955 123.336 46.8316C123.441 46.7082 123.512 46.5595 123.541 46.4004L123.869 44.3203C123.917 44.0122 123.729 43.8148 123.449 43.887C123.297 43.9417 123.161 44.0354 123.056 44.1587C122.952 44.2821 122.881 44.4308 122.852 44.59L122.524 46.67C122.475 46.9781 122.663 47.1755 122.943 47.1033Z" fill="white"/>
<path fill-rule="evenodd" clip-rule="evenodd" d="M29.9106 67.3544C30.605 67.8985 31.0969 67.6722 31.4537 67.1522C32.3651 65.8281 33.2331 62.66 31.1644 61.8078C31.2634 61.2872 31.1756 60.7485 30.9163 60.2862C30.657 59.8239 30.2429 59.4677 29.7467 59.28C29.8708 58.9661 29.9226 58.6284 29.8981 58.2918C29.8737 57.9552 29.7737 57.6285 29.6056 57.3357C29.4375 57.043 29.2055 56.7918 28.9269 56.6008C28.6483 56.4098 28.3303 56.2838 27.9963 56.2322C27.9836 55.8608 27.8908 55.4966 27.7244 55.1642C27.558 54.8319 27.3218 54.5392 27.0319 54.3063C25.6913 53.2133 20.9223 53.6467 19.5528 54.4796C18.5353 55.0911 17.73 56.1552 17.0791 57.9704C15.0184 58.3941 14.4044 61.5718 15.237 67.5037C11.1431 77.4703 5.23117 87.0566 1.61942 96.7537C-0.695185 102.97 -1.08095 109.494 4.19442 114.188C6.15219 115.735 8.21283 115.775 10.3763 114.308C12.1155 113.821 13.7238 112.953 15.0836 111.766C16.4435 110.579 17.5206 109.103 18.2364 107.447C21.7957 102.62 24.8526 97.4432 27.3598 91.9966C24.4279 91.8907 22.0121 91.1107 19.8035 89.1752C20.8596 83.3685 22.3496 77.0418 22.7884 74.8703C26.8486 71.8017 29.2227 69.2964 29.9106 67.3544Z" fill="#FF9C72"/>
<path d="M29.8474 67.6382C29.9139 67.6543 29.984 67.6436 30.0427 67.6085C30.1013 67.5733 30.1438 67.5166 30.1608 67.4504C30.4601 66.2728 30.5852 65.0579 30.5321 63.8441C30.5284 63.776 30.498 63.7121 30.4475 63.6662C30.397 63.6202 30.3304 63.596 30.2621 63.5986C30.2285 63.6004 30.1956 63.6089 30.1653 63.6234C30.135 63.638 30.1079 63.6584 30.0855 63.6834C30.0631 63.7085 30.0459 63.7377 30.0348 63.7694C30.0237 63.8011 30.019 63.8347 30.021 63.8682C30.0687 65.0317 29.9486 66.196 29.6642 67.3253C29.6555 67.3578 29.6533 67.3918 29.6578 67.4252C29.6623 67.4586 29.6734 67.4908 29.6905 67.5199C29.7075 67.549 29.7301 67.5744 29.7571 67.5947C29.784 67.615 29.8147 67.6298 29.8474 67.6382Z" fill="#E88358"/>
<path d="M19.5819 89.1846L17.9472 97.649C17.9376 97.6853 17.9376 97.7235 17.9472 97.7597C18.3136 99.7491 18.1828 101.798 17.5662 103.725C16.9496 105.651 15.8664 107.396 14.4126 108.805C14.3888 108.829 14.37 108.857 14.3571 108.888C14.3443 108.919 14.3376 108.952 14.3376 108.985C14.3376 109.019 14.3443 109.052 14.3571 109.083C14.37 109.114 14.3888 109.142 14.4126 109.166C14.4364 109.19 14.4645 109.209 14.4956 109.221C14.5266 109.234 14.5599 109.241 14.5934 109.241C14.627 109.241 14.6603 109.234 14.6913 109.221C14.7223 109.209 14.7505 109.19 14.7743 109.166C16.2847 107.704 17.4113 105.892 18.0546 103.892C18.698 101.892 18.8383 99.7643 18.4632 97.6972L20.0738 89.3723C20.1413 88.9149 19.6735 88.7753 19.5819 89.1846Z" fill="#E88358"/>
<path d="M24.2346 56.5305H27.9958C28.0296 56.5311 28.0631 56.525 28.0944 56.5124C28.1257 56.4998 28.1541 56.481 28.178 56.4572C28.2019 56.4333 28.2207 56.405 28.2333 56.3737C28.2459 56.3424 28.252 56.309 28.2514 56.2753C28.2514 56.2076 28.2245 56.1427 28.1765 56.0948C28.1286 56.047 28.0636 56.0201 27.9958 56.0201H24.2394C23.8854 56.0006 23.5327 56.0754 23.2171 56.2368C23.083 56.3119 22.9688 56.4179 22.8841 56.5461C22.7994 56.6742 22.7466 56.8208 22.7301 56.9734C22.7254 57.0063 22.7272 57.0399 22.7356 57.0721C22.744 57.1043 22.7587 57.1345 22.7789 57.1609C22.7991 57.1873 22.8244 57.2095 22.8533 57.2261C22.8821 57.2427 22.914 57.2534 22.9471 57.2575C23.0094 57.2597 23.0704 57.2396 23.119 57.2007C23.1677 57.1618 23.2008 57.1068 23.2123 57.0456C23.2248 56.9707 23.255 56.8998 23.3002 56.8387C23.3455 56.7776 23.4046 56.7281 23.4727 56.6942C23.7098 56.5804 23.972 56.529 24.2346 56.5449V56.5305Z" fill="#E88358"/>
<path d="M29.824 59.1979C29.8228 59.1641 29.8148 59.1309 29.8004 59.1004C29.7861 59.0698 29.7657 59.0425 29.7404 59.02C29.7152 58.9975 29.6857 58.9803 29.6537 58.9695C29.6216 58.9587 29.5877 58.9545 29.554 58.9571L26.2316 59.1449C26.0008 59.159 25.7779 59.2337 25.5854 59.3616C25.4411 59.4645 25.321 59.5976 25.2334 59.7516C25.1976 59.809 25.1861 59.8783 25.2015 59.9442C25.2169 60.0102 25.2578 60.0673 25.3154 60.103C25.3729 60.1388 25.4423 60.1503 25.5084 60.1349C25.541 60.1273 25.5719 60.1134 25.5992 60.0938C25.6265 60.0743 25.6497 60.0496 25.6674 60.0212C25.7253 59.9108 25.8128 59.8186 25.92 59.7549C26.0273 59.6911 26.1502 59.6583 26.275 59.6601L29.5878 59.4723C29.6213 59.4699 29.6541 59.4608 29.6842 59.4457C29.7143 59.4306 29.7411 59.4096 29.763 59.3841C29.785 59.3586 29.8017 59.329 29.8122 59.2971C29.8226 59.2651 29.8267 59.2314 29.824 59.1979Z" fill="#E88358"/>
<path d="M28.7194 61.6823C28.3926 61.7105 28.0739 61.7986 27.7791 61.9423C27.5218 62.0607 27.3174 62.2699 27.2053 62.5297C27.1933 62.5613 27.1876 62.595 27.1886 62.6288C27.1896 62.6626 27.1972 62.6959 27.2111 62.7267C27.225 62.7576 27.2448 62.7854 27.2695 62.8086C27.2941 62.8318 27.3231 62.8499 27.3548 62.8619C27.3864 62.8739 27.4202 62.8796 27.454 62.8786C27.4879 62.8776 27.5212 62.87 27.5521 62.8561C27.583 62.8422 27.6109 62.8224 27.6341 62.7978C27.6573 62.7732 27.6755 62.7443 27.6875 62.7127C27.7574 62.5708 27.8752 62.4582 28.0202 62.3949C28.2577 62.2808 28.5145 62.2122 28.7773 62.1927L31.1064 62.0193C31.1733 62.0144 31.2357 61.9833 31.2799 61.9329C31.3241 61.8824 31.3466 61.8166 31.3427 61.7497C31.3377 61.6816 31.3061 61.6181 31.2547 61.5731C31.2032 61.528 31.1361 61.505 31.0678 61.509L28.7194 61.6823Z" fill="#E88358"/>
<path d="M16.8377 57.9267L15.9794 60.3005C15.968 60.3324 15.9631 60.3662 15.965 60.4C15.9668 60.4339 15.9754 60.467 15.9902 60.4975C16.0051 60.5279 16.0258 60.5552 16.0513 60.5776C16.0767 60.5999 16.1064 60.617 16.1385 60.6279C16.1699 60.6393 16.2031 60.6443 16.2364 60.6427C16.2697 60.6411 16.3024 60.6329 16.3325 60.6186C16.3626 60.6042 16.3895 60.584 16.4116 60.5592C16.4338 60.5343 16.4508 60.5053 16.4616 60.4738L17.3103 58.0953C17.3218 58.0637 17.3269 58.0301 17.3254 57.9965C17.3238 57.9629 17.3157 57.93 17.3013 57.8995C17.287 57.8691 17.2668 57.8418 17.2418 57.8192C17.2169 57.7966 17.1877 57.7792 17.156 57.7679C17.0927 57.7491 17.0245 57.7551 16.9654 57.7846C16.9064 57.8141 16.8607 57.8649 16.8377 57.9267Z" fill="#E88358"/>
<path d="M28.271 95.0529C28.2472 95.0766 28.2284 95.1048 28.2155 95.1357C28.2027 95.1667 28.196 95.1999 28.196 95.2335C28.196 95.267 28.2027 95.3002 28.2155 95.3312C28.2284 95.3622 28.2472 95.3903 28.271 95.414C35.2052 102.155 41.4289 106.438 46.9422 108.265C52.4554 110.091 57.3 109.435 61.476 106.296C61.5083 106.277 61.5363 106.252 61.5581 106.222C61.5799 106.192 61.595 106.158 61.6024 106.121C61.6098 106.085 61.6093 106.047 61.601 106.011C61.5927 105.975 61.5767 105.941 61.5541 105.912C61.5315 105.882 61.5029 105.858 61.4701 105.84C61.4373 105.823 61.4012 105.812 61.3641 105.81C61.327 105.808 61.2898 105.813 61.255 105.826C61.2203 105.839 61.1887 105.86 61.1625 105.886C57.1859 108.923 52.5004 109.552 47.1061 107.774C41.7118 105.995 35.554 101.754 28.6327 95.0481C28.6086 95.0247 28.5802 95.0062 28.549 94.9938C28.5178 94.9814 28.4844 94.9752 28.4508 94.9756C28.4173 94.9761 28.3841 94.9831 28.3532 94.9964C28.3224 95.0097 28.2944 95.0289 28.271 95.0529Z" fill="#0A1C32"/>
<path d="M30.2481 91.0951L29.9202 91.7307C29.5234 91.8063 29.1225 91.8578 28.7195 91.8848C28.2747 91.9137 27.8285 91.9137 27.3838 91.8848C27.3502 91.8828 27.3165 91.8875 27.2848 91.8986C27.253 91.9096 27.2238 91.9268 27.1987 91.9492C27.1736 91.9715 27.1532 91.9986 27.1386 92.0289C27.124 92.0591 27.1156 92.092 27.1137 92.1255C27.1118 92.159 27.1165 92.1926 27.1275 92.2243C27.1386 92.256 27.1558 92.2853 27.1782 92.3103C27.2006 92.3354 27.2277 92.3557 27.258 92.3703C27.2884 92.3849 27.3212 92.3933 27.3548 92.3951C27.8204 92.4265 28.2876 92.4265 28.7532 92.3951C29.2201 92.366 29.6842 92.3033 30.142 92.2074C30.1803 92.2006 30.2164 92.1848 30.2474 92.1614C30.2785 92.1379 30.3035 92.1075 30.3204 92.0725L30.7062 91.3263C32.9147 87.0363 35.4752 82.0626 36.9411 77.8448C37.6255 76.0824 37.9533 74.2021 37.9056 72.3126C37.7887 70.3614 37.0826 68.4914 35.8803 66.9489C35.8607 66.9215 35.8358 66.8984 35.8071 66.8808C35.7784 66.8633 35.7464 66.8517 35.7131 66.8467C35.6798 66.8418 35.6459 66.8436 35.6133 66.8521C35.5807 66.8605 35.5501 66.8754 35.5234 66.8959C35.4959 66.9159 35.4726 66.9412 35.455 66.9702C35.4374 66.9993 35.4258 67.0317 35.4208 67.0653C35.4159 67.0989 35.4177 67.1332 35.4262 67.1661C35.4347 67.1991 35.4498 67.23 35.4704 67.257C36.6116 68.7191 37.2839 70.4913 37.3992 72.3414C37.4488 74.1638 37.1391 75.978 36.4879 77.6811C35.0027 81.8603 32.4469 86.8196 30.2481 91.0951Z" fill="#0A1C32"/>
<path d="M76.9118 79.9692C76.8912 80.0012 76.878 80.0374 76.8732 80.0751L76.2223 86.8688C76.2056 86.9057 76.198 86.946 76.2 86.9865C76.2021 87.0269 76.2137 87.0662 76.234 87.1013C76.2543 87.1363 76.2826 87.1661 76.3167 87.188C76.3507 87.21 76.3895 87.2235 76.4298 87.2275C76.4702 87.2316 76.5109 87.226 76.5486 87.2112C76.5864 87.1964 76.62 87.1728 76.6469 87.1425C76.6737 87.1122 76.6929 87.0759 76.7029 87.0367C76.7129 86.9975 76.7135 86.9564 76.7045 86.917L77.3555 80.1762C79.3934 76.7413 80.1628 72.7024 79.5302 68.7603C79.5255 68.7273 79.5143 68.6955 79.4971 68.6668C79.4799 68.6382 79.4572 68.6133 79.4302 68.5935C79.4033 68.5738 79.3726 68.5596 79.3401 68.5519C79.3076 68.5442 79.2739 68.543 79.2409 68.5485C79.1739 68.5603 79.114 68.5973 79.0736 68.652C79.0333 68.7067 79.0154 68.7747 79.0239 68.8421C79.6424 72.685 78.8861 76.6226 76.8877 79.9644L76.9118 79.9692Z" fill="#0A1C32"/>
<path d="M107.917 98.9059C108.673 98.8229 109.432 99.0408 110.029 99.5126L110.815 98.5014C110.174 98.0004 109.401 97.696 108.59 97.625C107.779 97.554 106.965 97.7196 106.247 98.1016C105.528 98.4837 104.936 99.0658 104.542 99.7772C104.149 100.489 103.97 101.299 104.029 102.11C104.088 102.92 104.381 103.697 104.872 104.344C105.364 104.992 106.034 105.483 106.8 105.758C107.566 106.033 108.395 106.08 109.188 105.894C109.98 105.708 110.701 105.295 111.263 104.708L110.337 103.822C109.813 104.369 109.096 104.692 108.338 104.722C107.58 104.753 106.84 104.489 106.272 103.986C105.85 103.609 105.546 103.118 105.397 102.572C105.249 102.026 105.263 101.449 105.437 100.911C105.611 100.373 105.938 99.8965 106.379 99.5406C106.819 99.1846 107.353 98.9641 107.917 98.9059Z" fill="#A23658"/>
<path fill-rule="evenodd" clip-rule="evenodd" d="M117.364 109.498C121.261 109.498 124.424 108.41 124.424 107.067L125.441 96.4985H109.312L110.31 107.091C110.31 108.43 113.468 109.498 117.364 109.498Z" fill="#A33658"/>
<path d="M117.364 99.2719C121.814 99.2719 125.422 98.028 125.422 96.4937C125.422 94.9594 121.814 93.7156 117.364 93.7156C112.914 93.7156 109.306 94.9594 109.306 96.4937C109.306 98.028 112.914 99.2719 117.364 99.2719Z" fill="white"/>
<path d="M117.364 98.5207C121.223 98.5207 124.352 97.6131 124.352 96.4936C124.352 95.3741 121.223 94.4666 117.364 94.4666C113.505 94.4666 110.377 95.3741 110.377 96.4936C110.377 97.6131 113.505 98.5207 117.364 98.5207Z" fill="#663300"/>
<path opacity="0.38" fill-rule="evenodd" clip-rule="evenodd" d="M111.081 78.9677C109.917 80.6051 109.433 82.6281 109.729 84.6138C110.024 86.5995 111.077 88.3943 112.667 89.6229C113.781 90.5137 114.914 91.3033 115.488 92.7237C115.788 93.63 115.951 94.5762 115.97 95.5307C116.081 96.5948 116.997 97.3411 117.947 96.5418C119.047 95.6174 118.651 93.2966 117.658 91.0866C116.293 88.034 113.443 87.0277 114.581 83.017C115.175 80.9177 116.636 79.9403 118.246 79.0352C121.091 77.4415 123.319 75.7129 124.269 72.4774C125.431 68.534 124.655 63.57 122.34 60.6329C121.587 59.6525 120.565 58.9116 119.398 58.5005C118.232 58.0893 116.97 58.0256 115.768 58.317C112.489 59.0537 110.126 61.7259 110.058 64.6581C109.928 70.2337 114.36 70.5659 114.909 73.5366C115.406 76.3292 112.551 76.8877 111.081 78.9677Z" fill="white"/>
<path d="M120.103 61.5429C120.093 61.5752 120.09 61.609 120.094 61.6424C120.097 61.6759 120.107 61.7083 120.123 61.7378C120.14 61.7674 120.161 61.7934 120.188 61.8145C120.214 61.8356 120.244 61.8513 120.276 61.8607L125.099 63.3051L127.254 65.7125C127.277 65.7375 127.304 65.7578 127.334 65.7723C127.364 65.7868 127.397 65.7952 127.431 65.797C127.464 65.7987 127.498 65.7939 127.53 65.7827C127.561 65.7716 127.591 65.7542 127.616 65.7318C127.641 65.7094 127.661 65.6822 127.676 65.6519C127.69 65.6216 127.698 65.5888 127.7 65.5552C127.702 65.5217 127.697 65.4881 127.686 65.4565C127.675 65.4248 127.657 65.3957 127.635 65.3707L125.441 62.8959C125.409 62.8595 125.367 62.8328 125.32 62.8188L120.421 61.3744C120.357 61.3548 120.287 61.3616 120.227 61.3932C120.168 61.4247 120.123 61.4786 120.103 61.5429Z" fill="#E88358"/>
<path d="M126.049 60.84L127.64 61.8993C127.668 61.9192 127.699 61.9333 127.733 61.9408C127.766 61.9483 127.801 61.949 127.834 61.943C127.868 61.9369 127.9 61.9241 127.929 61.9054C127.958 61.8866 127.982 61.8623 128.001 61.834C128.02 61.8056 128.033 61.7736 128.04 61.7401C128.046 61.7065 128.046 61.672 128.039 61.6386C128.032 61.6051 128.018 61.5735 127.998 61.5455C127.979 61.5175 127.954 61.4937 127.925 61.4756L126.3 60.3874C126.264 60.3613 126.222 60.3432 126.179 60.3345L121.198 59.5689C121.164 59.5638 121.131 59.5654 121.098 59.5734C121.065 59.5814 121.035 59.5958 121.007 59.6157C120.98 59.6356 120.957 59.6606 120.94 59.6894C120.923 59.7181 120.911 59.75 120.906 59.7832C120.901 59.8164 120.902 59.8502 120.911 59.8828C120.919 59.9154 120.933 59.9461 120.953 59.9732C120.973 60.0002 120.998 60.0231 121.027 60.0405C121.055 60.0578 121.087 60.0694 121.121 60.0745L126.049 60.84Z" fill="#E88358"/>
<path d="M103.12 80.6382C103.18 80.6063 103.225 80.5519 103.245 80.4868C103.264 80.4218 103.258 80.3516 103.226 80.2916C103.194 80.2315 103.139 80.1867 103.074 80.1668C103.009 80.1469 102.939 80.1537 102.879 80.1856C101.118 81.1324 99.7337 82.6501 98.9535 84.4883C98.1733 86.3265 98.0439 88.3753 98.5869 90.2967C98.6049 90.3618 98.648 90.417 98.7068 90.4504C98.7655 90.4838 98.8351 90.4926 98.9003 90.4749C98.9658 90.4558 99.0212 90.4118 99.0546 90.3524C99.088 90.293 99.0966 90.2229 99.0787 90.1571C98.5684 88.3481 98.6905 86.4195 99.4251 84.6891C100.16 82.9588 101.463 81.53 103.12 80.6382Z" fill="#E88358"/>
<path d="M123.801 71.4855C123.829 71.5051 123.86 71.5191 123.893 71.5267C123.926 71.5343 123.96 71.5353 123.993 71.5297C124.027 71.5241 124.059 71.5121 124.087 71.4941C124.116 71.4762 124.141 71.4528 124.161 71.4253C124.18 71.3978 124.194 71.3667 124.202 71.3338C124.209 71.3009 124.21 71.2668 124.205 71.2335C124.199 71.2002 124.187 71.1683 124.169 71.1397C124.151 71.1111 124.128 71.0862 124.1 71.0666L122.398 69.8533C122.365 69.829 122.327 69.8111 122.287 69.8003L121.598 69.6655H121.53L117.889 68.9433C117.854 68.9253 117.815 68.9157 117.776 68.9152C117.736 68.9148 117.697 68.9234 117.662 68.9406C117.626 68.9578 117.595 68.9829 117.571 69.0141C117.547 69.0453 117.53 69.0817 117.522 69.1203C117.515 69.159 117.516 69.199 117.526 69.2371C117.537 69.2752 117.556 69.3103 117.582 69.3398C117.608 69.3693 117.641 69.3924 117.677 69.4071C117.714 69.4219 117.754 69.4279 117.793 69.4248L121.347 70.1326C121.585 70.5742 121.68 71.0792 121.617 71.577C121.507 72.2581 121.247 72.9062 120.855 73.4741C120.825 73.5307 120.817 73.5967 120.833 73.659C120.849 73.7212 120.888 73.775 120.942 73.8097C120.997 73.8444 121.062 73.8573 121.125 73.846C121.189 73.8346 121.245 73.7998 121.284 73.7485C121.72 73.1177 122.009 72.3969 122.128 71.6396C122.19 71.1662 122.134 70.6848 121.964 70.2385L122.133 70.2722L123.801 71.4855Z" fill="#E88358"/>
<path d="M117.195 65.1251C117.188 65.1583 117.188 65.1926 117.194 65.226C117.201 65.2593 117.214 65.291 117.233 65.3193C117.251 65.3475 117.276 65.3717 117.304 65.3905C117.332 65.4092 117.364 65.4221 117.398 65.4284L122.466 66.4444L123.695 67.1762L119.51 66.791C119.442 66.7856 119.375 66.8068 119.323 66.8499C119.271 66.8931 119.237 66.9549 119.23 67.0222C119.227 67.0557 119.23 67.0896 119.24 67.1218C119.25 67.154 119.266 67.184 119.288 67.21C119.309 67.2359 119.336 67.2574 119.365 67.2731C119.395 67.2888 119.428 67.2984 119.462 67.3014L123.642 67.6866L126.907 68.7844C126.972 68.8045 127.043 68.7987 127.104 68.7682C127.165 68.7377 127.212 68.6849 127.235 68.6207C127.245 68.5887 127.249 68.5551 127.247 68.5215C127.244 68.488 127.235 68.4553 127.22 68.4254C127.205 68.3954 127.184 68.3687 127.158 68.3469C127.133 68.325 127.103 68.3084 127.071 68.2981L125.889 67.9033C125.875 67.8849 125.857 67.8701 125.836 67.8599L122.692 65.9822C122.667 65.9675 122.639 65.9577 122.61 65.9533L117.499 64.9229C117.432 64.9101 117.362 64.9241 117.306 64.9619C117.249 64.9998 117.209 65.0584 117.195 65.1251Z" fill="#E88358"/>
<path d="M116.795 70.7921C116.223 71.7779 115.995 72.9259 116.149 74.055C116.303 75.1841 116.829 76.2299 117.644 77.0273C117.668 77.0511 117.696 77.0699 117.727 77.0827C117.758 77.0956 117.791 77.1022 117.825 77.1022C117.858 77.1022 117.892 77.0956 117.923 77.0827C117.954 77.0699 117.982 77.0511 118.006 77.0273C118.029 77.0036 118.048 76.9755 118.061 76.9445C118.074 76.9135 118.081 76.8803 118.081 76.8468C118.081 76.8132 118.074 76.78 118.061 76.749C118.048 76.7181 118.029 76.6899 118.006 76.6662C117.272 75.9467 116.8 75.0042 116.662 73.9869C116.524 72.9697 116.728 71.9356 117.244 71.0473C117.261 71.0187 117.272 70.9869 117.277 70.9538C117.282 70.9207 117.28 70.887 117.271 70.8547C117.263 70.8224 117.248 70.7921 117.227 70.7657C117.207 70.7392 117.181 70.7171 117.152 70.7007C117.123 70.6833 117.09 70.6718 117.056 70.667C117.022 70.6622 116.988 70.6641 116.955 70.6726C116.922 70.6811 116.89 70.696 116.863 70.7165C116.836 70.737 116.813 70.7627 116.795 70.7921Z" fill="#E88358"/>
<path fill-rule="evenodd" clip-rule="evenodd" d="M64.4898 112.594C69.8568 111.15 73.7482 112.729 77.5336 114.453C90.6786 120.423 94.6809 113.134 105.502 118.964L83.3924 103.721C81.515 101.676 79.6456 100.336 77.7843 99.7003C75.8265 99.1258 74.1533 99.0712 72.7645 99.5366C70.5586 100.235 68.5527 101.452 66.9153 103.085C65.143 104.781 63.529 106.634 62.0932 108.622C59.278 112.491 56.675 116.509 54.2959 120.659C55.3542 118.692 56.8046 116.961 58.5577 115.574C60.3108 114.187 62.3296 113.173 64.4898 112.594Z" fill="#272D7A"/>
<path d="M59.3303 113.057C60.2401 111.708 61.1852 110.356 62.1657 108.998C62.2051 108.941 62.2207 108.872 62.2089 108.804C62.1972 108.737 62.1591 108.676 62.103 108.637C62.0755 108.617 62.0444 108.604 62.0116 108.596C61.9787 108.589 61.9447 108.588 61.9116 108.594C61.8784 108.6 61.8467 108.612 61.8183 108.63C61.79 108.648 61.7654 108.672 61.7462 108.699C60.7818 110.025 59.835 111.381 58.906 112.768C57.9769 114.154 57.0671 115.535 56.1767 116.908C53.846 120.439 51.5073 123.978 49.1605 127.525C46.8138 131.072 44.6422 134.372 42.6459 137.424C42.6264 137.452 42.6128 137.483 42.6058 137.516C42.5989 137.549 42.5988 137.583 42.6056 137.616C42.6124 137.649 42.6259 137.68 42.6453 137.708C42.6646 137.735 42.6895 137.758 42.7182 137.776C42.7461 137.795 42.7777 137.809 42.811 137.816C42.8444 137.823 42.8788 137.823 42.9122 137.816C42.9456 137.81 42.9772 137.796 43.0052 137.777C43.0332 137.757 43.057 137.733 43.075 137.704C45.2836 134.333 47.4551 131.032 49.5897 127.8C51.7243 124.567 54.063 121.036 56.6058 117.207C57.4899 115.804 58.398 114.421 59.3303 113.057Z" fill="#01020F"/>
<path d="M49.6133 146.038L70.7437 116.581C70.7678 116.546 70.7842 116.507 70.7919 116.465C71.52 113.196 72.1951 112.248 72.8606 112.397C73.4537 112.527 74.1384 113.461 74.8569 114.443C75.3925 115.271 76.0418 116.02 76.7858 116.668C77.6441 117.294 78.5458 117.366 79.491 116.21L105.67 132.508C105.699 132.526 105.73 132.539 105.764 132.544C105.797 132.55 105.831 132.549 105.864 132.542C105.897 132.535 105.928 132.521 105.955 132.501C105.983 132.482 106.006 132.457 106.025 132.429C106.043 132.401 106.055 132.369 106.061 132.336C106.066 132.302 106.066 132.268 106.058 132.236C106.051 132.203 106.037 132.172 106.018 132.144C105.998 132.117 105.973 132.093 105.945 132.075L79.5922 115.671C79.5385 115.637 79.4738 115.624 79.411 115.636C79.3483 115.647 79.2924 115.682 79.2547 115.734C78.488 116.774 77.7791 116.75 77.1137 116.268C76.4081 115.65 75.7901 114.939 75.2765 114.154C74.5001 113.09 73.7623 112.079 72.9811 111.906C72.0167 111.694 71.1198 112.71 70.3097 116.331L49.2082 145.749C49.1879 145.776 49.1733 145.807 49.1653 145.84C49.1572 145.872 49.1558 145.906 49.1612 145.94C49.1666 145.973 49.1787 146.005 49.1967 146.033C49.2147 146.062 49.2383 146.086 49.2661 146.105C49.3215 146.141 49.3886 146.154 49.4532 146.141C49.5179 146.129 49.5753 146.092 49.6133 146.038Z" fill="white"/>
<path fill-rule="evenodd" clip-rule="evenodd" d="M11.8469 63.6374C11.8469 63.6983 11.865 63.7579 11.8989 63.8086C11.9328 63.8593 11.981 63.8987 12.0374 63.9221C12.0938 63.9454 12.1559 63.9515 12.2157 63.9396C12.2756 63.9277 12.3306 63.8984 12.3738 63.8553C12.4169 63.8122 12.4463 63.7573 12.4582 63.6975C12.4701 63.6377 12.464 63.5758 12.4407 63.5195C12.4173 63.4632 12.3777 63.415 12.327 63.3812C12.2762 63.3473 12.2166 63.3292 12.1555 63.3292C12.0737 63.3292 11.9952 63.3617 11.9373 63.4195C11.8794 63.4773 11.8469 63.5557 11.8469 63.6374Z" fill="white"/>
<path fill-rule="evenodd" clip-rule="evenodd" d="M108.226 3.00922V7.92514H106.621V24.4688H108.226V29.5629H109.548V24.4688H111.158V7.92514H109.548V3.00922H108.226Z" fill="#79243D"/>
<path fill-rule="evenodd" clip-rule="evenodd" d="M101.837 13.3226V17.5211H100.12V31.6478H101.837V36.0004H103.153V31.6478H104.658V17.5211H103.153V13.3226H101.837Z" fill="#79243D"/>
<path fill-rule="evenodd" clip-rule="evenodd" d="M94.9999 31.0074V34.3248H93.2832V45.4855H94.9999V48.9233H96.3163V45.4855H97.8208V34.3248H96.3163V31.0074H94.9999Z" fill="#AB395B"/>
<path fill-rule="evenodd" clip-rule="evenodd" d="M135.268 0V3.07667H133.552V13.4141H135.268V16.5967H136.585V13.4141H138.089V3.07667H136.585V0H135.268Z" fill="#79243D"/>
<path fill-rule="evenodd" clip-rule="evenodd" d="M128.315 3.75069V5.85958H126.598V12.9614H128.315V15.1522H129.631V12.9614H131.135V5.85958H129.631V3.75069H128.315Z" fill="#79243D"/>
<path fill-rule="evenodd" clip-rule="evenodd" d="M121.651 11.5026V15.5181H120.041V29.014H121.651V33.1692H122.968V29.014H124.578V15.5181H122.968V11.5026H121.651Z" fill="#AB395B"/>
<path fill-rule="evenodd" clip-rule="evenodd" d="M115.189 6.88034V11.3003H113.579V26.1829H115.189V30.7666H116.51V26.1829H118.121V11.3003H116.51V6.88034H115.189Z" fill="#AB395B"/>
<path fill-rule="evenodd" clip-rule="evenodd" d="M88.5425 17.9015V22.3263H86.9368V37.2089H88.5425V41.7926H89.8638V37.2089H91.4744V22.3263H89.8638V17.9015H88.5425Z" fill="#AB395B"/>
<path fill-rule="evenodd" clip-rule="evenodd" d="M81.198 22.9377V26.804H79.5874V39.804H81.198V43.81H82.5192V39.804H84.1298V26.804H82.5192V22.9377H81.198Z" fill="#AB395B"/>
<path fill-rule="evenodd" clip-rule="evenodd" d="M75.1901 35.5333V38.0129H73.4734V46.3522H75.1901V48.9233H76.5113V46.3522H78.011V38.0129H76.5113V35.5333H75.1901Z" fill="#AB395B"/>
<path d="M98.1781 6.60362V5.66103H92.7837V6.60362H94.5001C95.1386 6.60362 95.6775 6.99857 95.8806 7.54622H92.7837V8.48881H95.8806C95.7799 8.76369 95.5932 9.00187 95.346 9.17065C95.0988 9.33942 94.8033 9.43051 94.5001 9.43141H92.7837V10.5691L95.5231 13.2018H96.9099L93.9675 10.374H94.5001C95.065 10.3733 95.6124 10.1854 96.0499 9.84195C96.4875 9.49854 96.7885 9.02063 96.9021 8.48881H98.1781V7.54622H96.9021C96.8269 7.20321 96.672 6.88097 96.4489 6.60362H98.1781Z" fill="#6A102B"/>
<path d="M81.9951 54.3367C82.0798 55.2886 82.8604 55.9642 84.0489 56.0516V56.746H84.6454V56.0516C85.9437 55.9493 86.749 55.2304 86.749 54.1671C86.749 53.2591 86.2074 52.7337 85.0584 52.4379L84.6454 52.3311V50.1599C85.2871 50.2227 85.7201 50.5676 85.8293 51.0827H86.67C86.5751 50.169 85.7893 49.5135 84.6454 49.4409V48.7511H84.0489V49.4552C82.9399 49.5866 82.1787 50.2958 82.1787 51.2575C82.1787 52.0878 82.7312 52.6754 83.7006 52.9233L84.0495 53.0158V55.3178C83.3923 55.2207 82.9399 54.8609 82.8307 54.3367H81.9951ZM83.9345 52.1461C83.338 51.9959 83.0194 51.6749 83.0194 51.2232C83.0194 50.6841 83.4221 50.2861 84.0489 50.1793V52.1752L83.9345 52.1466V52.1461ZM84.8445 53.2151C85.5805 53.3996 85.9037 53.7056 85.9037 54.2253C85.9037 54.8518 85.4313 55.2692 84.6454 55.3326V53.1654L84.8445 53.2145V53.2151Z" fill="#650F27"/>
</svg>
